{"glyphs":{"0":{"ha":810,"x_min":87,"x_max":722,"o":"m 406 -13 q 237 51 309 -13 q 126 230 165 114 q 87 505 87 347 q 126 780 87 664 q 237 960 165 897 q 406 1023 309 1023 q 573 960 503 1023 q 683 780 644 897 q 722 505 722 664 q 683 230 722 347 q 573 51 644 114 q 406 -13 503 -13 m 406 18 q 557 78 493 18 q 656 246 621 137 q 691 505 691 355 q 656 764 691 655 q 557 933 621 873 q 406 992 493 992 q 254 933 318 992 q 154 764 189 873 q 119 505 119 655 q 154 246 119 355 q 254 78 189 137 q 406 18 318 18 z "},"1":{"ha":491,"x_min":90,"x_max":343,"o":"m 343 1010 l 343 0 l 312 0 l 312 977 l 307 977 l 90 819 l 90 857 l 300 1010 l 343 1010 z "},"2":{"ha":836,"x_min":114,"x_max":726,"o":"m 114 0 l 114 27 l 444 404 q 564 551 521 491 q 626 659 608 610 q 644 758 644 707 q 613 879 644 826 q 528 962 582 932 q 403 993 473 993 q 275 961 330 993 q 190 874 220 928 q 159 753 159 820 l 127 753 q 162 890 127 829 q 259 988 197 951 q 403 1024 321 1024 q 544 989 482 1024 q 640 895 605 955 q 675 758 675 835 q 656 650 675 702 q 592 536 637 599 q 469 385 547 474 l 162 35 l 162 31 l 726 31 l 726 0 l 114 0 z "},"3":{"ha":793,"x_min":95,"x_max":705,"o":"m 400 -14 q 244 21 314 -14 q 135 115 175 55 q 95 252 95 176 l 126 252 q 163 132 127 184 q 261 48 199 79 q 400 18 323 18 q 544 51 482 18 q 640 139 606 83 q 674 262 674 195 q 634 390 674 335 q 526 474 595 444 q 370 505 458 505 l 355 505 l 355 537 l 370 537 q 509 565 447 537 q 607 644 571 593 q 644 765 644 695 q 612 882 644 830 q 526 963 581 933 q 399 993 471 993 q 271 963 327 993 q 182 880 214 933 q 151 758 151 827 l 119 758 q 155 896 119 836 q 254 990 191 956 q 399 1024 317 1024 q 542 990 479 1024 q 639 898 604 956 q 675 765 675 840 q 623 612 675 677 q 481 524 570 548 l 481 521 q 600 469 550 505 q 677 379 650 432 q 705 262 705 326 q 667 122 705 184 q 559 23 628 60 q 400 -14 490 -14 z "},"4":{"ha":821,"x_min":90,"x_max":732,"o":"m 90 248 l 90 271 l 564 1010 l 587 1010 l 587 951 l 564 951 l 135 283 l 135 279 l 732 279 l 732 248 l 90 248 m 567 0 l 567 258 l 567 267 l 567 1010 l 599 1010 l 599 0 l 567 0 z "},"5":{"ha":753,"x_min":87,"x_max":665,"o":"m 359 -14 q 218 21 279 -14 q 122 115 157 55 q 87 252 87 175 l 119 252 q 149 131 119 184 q 233 47 178 77 q 359 18 287 18 q 503 57 441 18 q 600 163 565 96 q 634 313 634 230 q 597 468 634 403 q 497 570 559 534 q 360 606 435 606 q 241 580 295 606 q 155 512 188 554 l 112 518 l 168 1010 l 636 1010 l 636 978 l 197 978 l 148 554 l 151 554 q 240 614 187 590 q 360 637 293 637 q 478 614 423 637 q 576 548 534 591 q 642 446 618 505 q 665 313 665 386 q 626 146 665 220 q 517 29 587 72 q 359 -14 448 -14 z "},"6":{"ha":770,"x_min":87,"x_max":683,"o":"m 393 -13 q 272 16 328 -13 q 175 104 216 45 q 111 251 134 162 q 87 458 87 339 q 103 660 87 560 q 154 843 118 760 q 250 974 189 925 q 404 1023 311 1023 q 535 990 478 1023 q 625 899 591 958 q 665 764 659 840 l 633 764 q 564 928 625 864 q 404 992 503 992 q 247 929 311 992 q 151 742 183 866 q 119 437 118 618 l 122 437 q 177 530 138 490 q 272 594 217 571 q 388 618 327 618 q 536 576 469 618 q 643 464 603 535 q 683 303 683 393 q 647 147 683 219 q 545 31 610 75 q 393 -13 480 -13 m 393 18 q 527 57 469 18 q 618 160 585 96 q 652 303 652 225 q 616 447 652 383 q 521 549 581 511 q 386 587 460 587 q 276 563 327 587 q 190 496 226 538 q 139 401 154 454 q 136 288 124 347 q 190 139 153 199 q 278 48 226 79 q 393 18 330 18 z "},"7":{"ha":750,"x_min":77,"x_max":673,"o":"m 157 0 l 637 976 l 637 979 l 77 979 l 77 1010 l 673 1010 l 673 978 l 191 0 l 157 0 z "},"8":{"ha":804,"x_min":87,"x_max":717,"o":"m 401 -13 q 244 24 315 -13 q 130 122 173 60 q 87 260 87 184 q 116 376 87 322 q 194 469 144 431 q 307 521 243 508 l 307 524 q 173 617 224 551 q 122 768 122 684 q 160 898 122 840 q 261 989 197 956 q 401 1023 324 1023 q 543 990 479 1023 q 645 898 606 956 q 683 768 683 840 q 633 617 683 685 q 498 524 583 550 l 498 521 q 610 469 561 508 q 688 376 660 431 q 717 260 717 322 q 674 122 717 184 q 561 24 632 60 q 401 -13 490 -13 m 401 18 q 545 51 481 18 q 647 139 609 84 q 685 262 685 195 q 647 385 685 330 q 545 474 609 441 q 401 507 481 507 q 259 474 323 507 q 157 385 195 441 q 119 262 119 330 q 157 139 119 195 q 259 51 195 84 q 401 18 323 18 m 401 535 q 528 567 471 535 q 618 652 585 599 q 652 768 652 705 q 618 882 652 831 q 528 963 585 933 q 401 992 471 992 q 277 963 334 992 q 187 882 220 933 q 153 768 153 831 q 187 652 153 705 q 277 567 220 599 q 401 535 334 535 z "},"9":{"ha":770,"x_min":87,"x_max":683,"o":"m 368 -13 q 236 20 293 -13 q 146 113 180 54 q 106 250 113 172 l 138 250 q 208 83 146 148 q 368 18 269 18 q 524 82 460 18 q 620 269 587 145 q 652 575 652 393 l 648 575 q 594 482 633 523 q 499 417 554 441 q 384 394 445 394 q 235 435 302 394 q 128 548 168 477 q 87 709 87 620 q 124 865 87 793 q 226 980 161 937 q 377 1023 291 1023 q 499 995 443 1023 q 596 907 555 966 q 660 761 637 849 q 683 554 683 673 q 668 351 683 452 q 618 168 653 250 q 521 36 583 85 q 368 -13 460 -13 m 385 425 q 495 449 444 425 q 581 515 545 473 q 632 611 617 557 q 636 724 648 665 q 582 872 618 812 q 493 962 545 932 q 377 992 441 992 q 244 954 302 992 q 152 851 186 916 q 119 709 119 787 q 154 565 119 629 q 250 463 190 501 q 385 425 311 425 z "},"\u0000":{"ha":814,"x_min":0,"x_max":0,"o":""},"A":{"ha":875,"x_min":38,"x_max":837,"o":"m 38 0 l 416 1010 l 458 1010 l 837 0 l 804 0 l 511 783 q 470 891 490 837 q 431 1000 450 945 l 443 1000 q 403 891 423 945 q 363 783 383 837 l 71 0 l 38 0 m 186 336 l 186 367 l 688 367 l 688 336 l 186 336 z "},"Ä":{"ha":875,"x_min":38,"x_max":837,"o":"m 38 0 l 416 1010 l 458 1010 l 837 0 l 804 0 l 511 783 q 470 891 490 837 q 431 1000 450 945 l 443 1000 q 403 891 423 945 q 363 783 383 837 l 71 0 l 38 0 m 186 336 l 186 367 l 688 367 l 688 336 l 186 336 m 574 1187 q 552 1196 562 1187 q 543 1219 543 1206 q 552 1241 543 1232 q 574 1251 562 1251 q 597 1241 588 1251 q 606 1219 606 1232 q 597 1196 606 1206 q 574 1187 588 1187 m 300 1187 q 278 1196 288 1187 q 269 1219 269 1206 q 278 1241 269 1232 q 300 1251 288 1251 q 323 1241 314 1251 q 332 1219 332 1232 q 323 1196 332 1206 q 300 1187 314 1187 z "},"Ã":{"ha":875,"x_min":38,"x_max":837,"o":"m 38 0 l 416 1010 l 458 1010 l 837 0 l 804 0 l 511 783 q 470 891 490 837 q 431 1000 450 945 l 443 1000 q 403 891 423 945 q 363 783 383 837 l 71 0 l 38 0 m 186 336 l 186 367 l 688 367 l 688 336 l 186 336 m 525 1163 q 475 1175 496 1163 q 437 1203 454 1187 q 401 1231 419 1219 q 359 1243 382 1243 q 304 1223 326 1243 q 280 1168 283 1203 l 249 1168 q 281 1244 253 1214 q 353 1274 310 1274 q 407 1262 385 1274 q 447 1234 429 1250 q 481 1206 465 1219 q 519 1194 498 1194 q 567 1211 549 1194 q 594 1267 586 1228 l 626 1267 q 591 1191 618 1219 q 525 1163 564 1163 z "},"À":{"ha":875,"x_min":38,"x_max":837,"o":"m 38 0 l 416 1010 l 458 1010 l 837 0 l 804 0 l 511 783 q 470 891 490 837 q 431 1000 450 945 l 443 1000 q 403 891 423 945 q 363 783 383 837 l 71 0 l 38 0 m 186 336 l 186 367 l 688 367 l 688 336 l 186 336 m 425 1118 l 317 1308 l 357 1308 l 456 1118 l 425 1118 z "},"Á":{"ha":875,"x_min":38,"x_max":837,"o":"m 38 0 l 416 1010 l 458 1010 l 837 0 l 804 0 l 511 783 q 470 891 490 837 q 431 1000 450 945 l 443 1000 q 403 891 423 945 q 363 783 383 837 l 71 0 l 38 0 m 186 336 l 186 367 l 688 367 l 688 336 l 186 336 m 421 1118 l 519 1308 l 559 1308 l 452 1118 l 421 1118 z "},"Â":{"ha":875,"x_min":38,"x_max":837,"o":"m 38 0 l 416 1010 l 458 1010 l 837 0 l 804 0 l 511 783 q 470 891 490 837 q 431 1000 450 945 l 443 1000 q 403 891 423 945 q 363 783 383 837 l 71 0 l 38 0 m 186 336 l 186 367 l 688 367 l 688 336 l 186 336 m 290 1126 l 252 1126 l 252 1129 l 431 1314 l 444 1314 l 623 1129 l 623 1126 l 585 1126 l 437 1279 l 290 1126 z "},"Å":{"ha":875,"x_min":38,"x_max":837,"o":"m 38 0 l 416 1010 l 458 1010 l 837 0 l 804 0 l 511 783 q 470 891 490 837 q 431 1000 450 945 l 443 1000 q 403 891 423 945 q 363 783 383 837 l 71 0 l 38 0 m 186 336 l 186 367 l 688 367 l 688 336 l 186 336 m 437 1109 q 382 1123 407 1109 q 342 1163 357 1138 q 327 1219 327 1188 q 342 1274 327 1249 q 382 1313 357 1298 q 437 1328 407 1328 q 493 1313 468 1328 q 533 1273 517 1298 q 548 1219 548 1249 q 533 1163 548 1188 q 493 1124 518 1139 q 437 1109 468 1109 m 437 1140 q 494 1163 471 1140 q 517 1219 517 1185 q 494 1274 517 1251 q 437 1297 471 1297 q 381 1274 404 1297 q 358 1219 358 1251 q 381 1163 358 1186 q 437 1140 404 1140 z "},"Ǻ":{"ha":875,"x_min":38,"x_max":837,"o":"m 38 0 l 416 1010 l 458 1010 l 837 0 l 804 0 l 511 783 q 470 891 490 837 q 431 1000 450 945 l 443 1000 q 403 891 423 945 q 363 783 383 837 l 71 0 l 38 0 m 186 336 l 186 367 l 688 367 l 688 336 l 186 336 m 425 1369 l 503 1463 l 543 1463 l 456 1369 l 425 1369 m 437 1109 q 382 1123 407 1109 q 342 1163 357 1138 q 327 1219 327 1188 q 342 1274 327 1249 q 382 1313 357 1298 q 437 1328 407 1328 q 493 1313 468 1328 q 533 1273 517 1298 q 548 1219 548 1249 q 533 1163 548 1188 q 493 1124 518 1139 q 437 1109 468 1109 m 437 1140 q 494 1163 471 1140 q 517 1219 517 1185 q 494 1274 517 1251 q 437 1297 471 1297 q 381 1274 404 1297 q 358 1219 358 1251 q 381 1163 358 1186 q 437 1140 404 1140 z "},"":{"ha":875,"x_min":38,"x_max":845,"o":"m 38 0 l 416 1010 l 458 1010 l 837 0 l 804 0 l 511 783 q 470 891 490 837 q 431 1000 450 945 l 443 1000 q 403 891 423 945 q 363 783 383 837 l 71 0 l 38 0 m 186 336 l 186 367 l 688 367 l 688 336 l 186 336 m 437 1109 q 382 1123 407 1109 q 342 1163 357 1138 q 327 1219 327 1188 q 342 1274 327 1249 q 382 1313 357 1298 q 437 1328 407 1328 q 493 1313 468 1328 q 533 1273 517 1298 q 548 1219 548 1249 q 533 1163 548 1188 q 493 1124 518 1139 q 437 1109 468 1109 m 437 1140 q 494 1163 471 1140 q 517 1219 517 1185 q 494 1274 517 1251 q 437 1297 471 1297 q 381 1274 404 1297 q 358 1219 358 1251 q 381 1163 358 1186 q 437 1140 404 1140 m 800 -288 q 715 -261 751 -288 q 680 -182 680 -235 q 718 -82 680 -128 q 808 10 755 -35 l 837 0 q 747 -92 783 -48 q 711 -182 711 -136 q 738 -239 711 -222 q 800 -256 764 -256 q 819 -255 810 -256 q 836 -251 828 -254 l 845 -280 q 823 -286 834 -284 q 800 -288 812 -288 z "},"Ā":{"ha":875,"x_min":38,"x_max":837,"o":"m 38 0 l 416 1010 l 458 1010 l 837 0 l 804 0 l 511 783 q 470 891 490 837 q 431 1000 450 945 l 443 1000 q 403 891 423 945 q 363 783 383 837 l 71 0 l 38 0 m 186 336 l 186 367 l 688 367 l 688 336 l 186 336 m 595 1234 l 595 1203 l 279 1203 l 279 1234 l 595 1234 z "},"Ă":{"ha":875,"x_min":38,"x_max":837,"o":"m 38 0 l 416 1010 l 458 1010 l 837 0 l 804 0 l 511 783 q 470 891 490 837 q 431 1000 450 945 l 443 1000 q 403 891 423 945 q 363 783 383 837 l 71 0 l 38 0 m 186 336 l 186 367 l 688 367 l 688 336 l 186 336 m 437 1117 q 348 1141 388 1117 q 283 1205 307 1165 q 260 1295 260 1246 l 291 1295 q 334 1190 291 1233 q 437 1147 377 1147 q 541 1190 498 1147 q 584 1295 584 1233 l 615 1295 q 591 1205 615 1246 q 528 1141 568 1165 q 437 1117 488 1117 z "},"Ą":{"ha":875,"x_min":38,"x_max":845,"o":"m 38 0 l 416 1010 l 458 1010 l 837 0 l 804 0 l 511 783 q 470 891 490 837 q 431 1000 450 945 l 443 1000 q 403 891 423 945 q 363 783 383 837 l 71 0 l 38 0 m 186 336 l 186 367 l 688 367 l 688 336 l 186 336 m 800 -288 q 715 -261 751 -288 q 680 -182 680 -235 q 718 -82 680 -128 q 808 10 755 -35 l 837 0 q 747 -92 783 -48 q 711 -182 711 -136 q 738 -239 711 -222 q 800 -256 764 -256 q 819 -255 810 -256 q 836 -251 828 -254 l 845 -280 q 823 -286 834 -284 q 800 -288 812 -288 z "},"Ǎ":{"ha":875,"x_min":38,"x_max":837,"o":"m 38 0 l 416 1010 l 458 1010 l 837 0 l 804 0 l 511 783 q 470 891 490 837 q 431 1000 450 945 l 443 1000 q 403 891 423 945 q 363 783 383 837 l 71 0 l 38 0 m 186 336 l 186 367 l 688 367 l 688 336 l 186 336 m 290 1312 l 437 1158 l 585 1312 l 623 1312 l 623 1308 l 444 1122 l 431 1122 l 252 1308 l 252 1312 l 290 1312 z "},"Ǟ":{"ha":875,"x_min":38,"x_max":837,"o":"m 38 0 l 416 1010 l 458 1010 l 837 0 l 804 0 l 511 783 q 470 891 490 837 q 431 1000 450 945 l 443 1000 q 403 891 423 945 q 363 783 383 837 l 71 0 l 38 0 m 186 336 l 186 367 l 688 367 l 688 336 l 186 336 m 583 1164 q 560 1174 570 1164 q 551 1196 551 1183 q 560 1219 551 1210 q 583 1228 570 1228 q 605 1219 596 1228 q 614 1196 614 1210 q 605 1174 614 1183 q 583 1164 596 1164 m 309 1164 q 286 1174 296 1164 q 277 1196 277 1183 q 286 1219 277 1210 q 309 1228 296 1228 q 331 1219 322 1228 q 340 1196 340 1210 q 331 1174 340 1183 q 309 1164 322 1164 m 595 1402 l 595 1371 l 279 1371 l 279 1402 l 595 1402 z "},"Ǡ":{"ha":875,"x_min":38,"x_max":837,"o":"m 38 0 l 416 1010 l 458 1010 l 837 0 l 804 0 l 511 783 q 470 891 490 837 q 431 1000 450 945 l 443 1000 q 403 891 423 945 q 363 783 383 837 l 71 0 l 38 0 m 186 336 l 186 367 l 688 367 l 688 336 l 186 336 m 437 1164 q 415 1174 425 1164 q 406 1196 406 1183 q 415 1219 406 1210 q 437 1228 425 1228 q 460 1219 451 1228 q 469 1196 469 1210 q 460 1174 469 1183 q 437 1164 451 1164 m 595 1402 l 595 1371 l 279 1371 l 279 1402 l 595 1402 z "},"Ȁ":{"ha":875,"x_min":38,"x_max":837,"o":"m 38 0 l 416 1010 l 458 1010 l 837 0 l 804 0 l 511 783 q 470 891 490 837 q 431 1000 450 945 l 443 1000 q 403 891 423 945 q 363 783 383 837 l 71 0 l 38 0 m 186 336 l 186 367 l 688 367 l 688 336 l 186 336 m 513 1118 l 416 1308 l 451 1308 l 544 1118 l 513 1118 m 337 1118 l 218 1308 l 256 1308 l 368 1118 l 337 1118 z "},"Ȃ":{"ha":875,"x_min":38,"x_max":837,"o":"m 38 0 l 416 1010 l 458 1010 l 837 0 l 804 0 l 511 783 q 470 891 490 837 q 431 1000 450 945 l 443 1000 q 403 891 423 945 q 363 783 383 837 l 71 0 l 38 0 m 186 336 l 186 367 l 688 367 l 688 336 l 186 336 m 437 1289 q 527 1267 487 1289 q 591 1208 568 1245 q 615 1126 615 1171 l 585 1126 q 542 1220 585 1181 q 437 1258 498 1258 q 332 1220 376 1258 q 289 1126 289 1181 l 260 1126 q 283 1208 260 1171 q 348 1267 307 1245 q 437 1289 388 1289 z "},"Ȧ":{"ha":875,"x_min":38,"x_max":837,"o":"m 38 0 l 416 1010 l 458 1010 l 837 0 l 804 0 l 511 783 q 470 891 490 837 q 431 1000 450 945 l 443 1000 q 403 891 423 945 q 363 783 383 837 l 71 0 l 38 0 m 186 336 l 186 367 l 688 367 l 688 336 l 186 336 m 437 1187 q 415 1196 425 1187 q 406 1219 406 1205 q 415 1241 406 1232 q 437 1251 425 1251 q 460 1241 451 1251 q 469 1219 469 1232 q 460 1196 469 1206 q 437 1187 451 1187 z "},"Ḁ":{"ha":875,"x_min":38,"x_max":837,"o":"m 38 0 l 416 1010 l 458 1010 l 837 0 l 804 0 l 511 783 q 470 891 490 837 q 431 1000 450 945 l 443 1000 q 403 891 423 945 q 363 783 383 837 l 71 0 l 38 0 m 186 336 l 186 367 l 688 367 l 688 336 l 186 336 m 437 -298 q 382 -283 407 -298 q 342 -244 357 -269 q 327 -189 327 -219 q 342 -134 327 -158 q 382 -94 357 -109 q 437 -79 407 -79 q 493 -94 468 -79 q 533 -134 517 -109 q 548 -189 548 -158 q 533 -244 548 -219 q 493 -284 518 -269 q 437 -298 468 -298 m 437 -267 q 494 -244 471 -267 q 517 -189 517 -222 q 494 -133 517 -156 q 437 -111 471 -111 q 381 -133 404 -111 q 358 -189 358 -156 q 381 -244 358 -222 q 437 -267 404 -267 z "},"Ạ":{"ha":875,"x_min":38,"x_max":837,"o":"m 38 0 l 416 1010 l 458 1010 l 837 0 l 804 0 l 511 783 q 470 891 490 837 q 431 1000 450 945 l 443 1000 q 403 891 423 945 q 363 783 383 837 l 71 0 l 38 0 m 186 336 l 186 367 l 688 367 l 688 336 l 186 336 m 437 -220 q 415 -211 425 -220 q 406 -189 406 -202 q 415 -166 406 -175 q 437 -157 425 -157 q 460 -166 451 -157 q 469 -189 469 -175 q 460 -211 469 -201 q 437 -220 451 -220 z "},"Ả":{"ha":875,"x_min":38,"x_max":837,"o":"m 38 0 l 416 1010 l 458 1010 l 837 0 l 804 0 l 511 783 q 470 891 490 837 q 431 1000 450 945 l 443 1000 q 403 891 423 945 q 363 783 383 837 l 71 0 l 38 0 m 186 336 l 186 367 l 688 367 l 688 336 l 186 336 m 453 1118 l 422 1118 l 458 1187 q 478 1255 482 1233 q 425 1278 473 1278 l 353 1278 l 353 1308 l 425 1308 q 478 1298 458 1308 q 506 1271 498 1289 q 507 1230 513 1253 q 486 1177 502 1206 l 453 1118 z "},"Ấ":{"ha":875,"x_min":38,"x_max":837,"o":"m 38 0 l 416 1010 l 458 1010 l 837 0 l 804 0 l 511 783 q 470 891 490 837 q 431 1000 450 945 l 443 1000 q 403 891 423 945 q 363 783 383 837 l 71 0 l 38 0 m 186 336 l 186 367 l 688 367 l 688 336 l 186 336 m 290 1101 l 252 1101 l 252 1105 l 431 1291 l 444 1291 l 623 1105 l 623 1101 l 585 1101 l 437 1255 l 290 1101 m 547 1339 l 656 1525 l 697 1525 l 578 1339 l 547 1339 z "},"Ầ":{"ha":875,"x_min":38,"x_max":837,"o":"m 38 0 l 416 1010 l 458 1010 l 837 0 l 804 0 l 511 783 q 470 891 490 837 q 431 1000 450 945 l 443 1000 q 403 891 423 945 q 363 783 383 837 l 71 0 l 38 0 m 186 336 l 186 367 l 688 367 l 688 336 l 186 336 m 290 1101 l 252 1101 l 252 1105 l 431 1291 l 444 1291 l 623 1105 l 623 1101 l 585 1101 l 437 1255 l 290 1101 m 591 1339 l 473 1525 l 513 1525 l 623 1339 l 591 1339 z "},"Ẩ":{"ha":875,"x_min":38,"x_max":837,"o":"m 38 0 l 416 1010 l 458 1010 l 837 0 l 804 0 l 511 783 q 470 891 490 837 q 431 1000 450 945 l 443 1000 q 403 891 423 945 q 363 783 383 837 l 71 0 l 38 0 m 186 336 l 186 367 l 688 367 l 688 336 l 186 336 m 290 1101 l 252 1101 l 252 1105 l 431 1291 l 444 1291 l 623 1105 l 623 1101 l 585 1101 l 437 1255 l 290 1101 m 566 1339 l 534 1339 l 572 1404 q 594 1472 600 1449 q 540 1495 589 1495 l 469 1495 l 469 1525 l 540 1525 q 606 1507 585 1525 q 626 1460 627 1490 q 601 1394 625 1431 l 566 1339 z "},"Ẫ":{"ha":875,"x_min":38,"x_max":837,"o":"m 38 0 l 416 1010 l 458 1010 l 837 0 l 804 0 l 511 783 q 470 891 490 837 q 431 1000 450 945 l 443 1000 q 403 891 423 945 q 363 783 383 837 l 71 0 l 38 0 m 186 336 l 186 367 l 688 367 l 688 336 l 186 336 m 290 1101 l 252 1101 l 252 1105 l 430 1291 l 443 1291 l 623 1105 l 623 1101 l 585 1101 l 437 1255 l 290 1101 m 525 1380 q 475 1392 496 1380 q 437 1420 454 1404 q 401 1448 419 1436 q 359 1460 382 1460 q 304 1440 326 1460 q 280 1385 283 1420 l 249 1385 q 281 1461 253 1431 q 353 1491 310 1491 q 407 1479 385 1491 q 447 1451 429 1467 q 481 1423 465 1436 q 519 1411 498 1411 q 567 1428 549 1411 q 594 1484 586 1445 l 626 1484 q 591 1408 618 1436 q 525 1380 564 1380 z "},"Ậ":{"ha":875,"x_min":38,"x_max":837,"o":"m 38 0 l 416 1010 l 458 1010 l 837 0 l 804 0 l 511 783 q 470 891 490 837 q 431 1000 450 945 l 443 1000 q 403 891 423 945 q 363 783 383 837 l 71 0 l 38 0 m 186 336 l 186 367 l 688 367 l 688 336 l 186 336 m 290 1126 l 252 1126 l 252 1129 l 431 1314 l 444 1314 l 623 1129 l 623 1126 l 585 1126 l 437 1279 l 290 1126 m 437 -220 q 415 -211 425 -220 q 406 -189 406 -202 q 415 -166 406 -175 q 437 -157 425 -157 q 460 -166 451 -157 q 469 -189 469 -175 q 460 -211 469 -201 q 437 -220 451 -220 z "},"Ắ":{"ha":875,"x_min":38,"x_max":837,"o":"m 38 0 l 416 1010 l 458 1010 l 837 0 l 804 0 l 511 783 q 470 891 490 837 q 431 1000 450 945 l 443 1000 q 403 891 423 945 q 363 783 383 837 l 71 0 l 38 0 m 186 336 l 186 367 l 688 367 l 688 336 l 186 336 m 437 1096 q 348 1120 388 1096 q 283 1184 307 1144 q 260 1274 260 1225 l 291 1274 q 334 1169 291 1212 q 437 1126 377 1126 q 541 1169 498 1126 q 584 1274 584 1212 l 615 1274 q 591 1184 615 1225 q 528 1120 568 1144 q 437 1096 488 1096 m 420 1339 l 530 1525 l 570 1525 l 452 1339 l 420 1339 z "},"Ằ":{"ha":875,"x_min":38,"x_max":837,"o":"m 38 0 l 416 1010 l 458 1010 l 837 0 l 804 0 l 511 783 q 470 891 490 837 q 431 1000 450 945 l 443 1000 q 403 891 423 945 q 363 783 383 837 l 71 0 l 38 0 m 186 336 l 186 367 l 688 367 l 688 336 l 186 336 m 437 1096 q 348 1120 388 1096 q 283 1184 307 1144 q 260 1274 260 1225 l 291 1274 q 334 1169 291 1212 q 437 1126 377 1126 q 541 1169 498 1126 q 584 1274 584 1212 l 615 1274 q 591 1184 615 1225 q 528 1120 568 1144 q 437 1096 488 1096 m 454 1339 l 422 1339 l 304 1525 l 345 1525 l 454 1339 z "},"Ẳ":{"ha":875,"x_min":38,"x_max":837,"o":"m 38 0 l 416 1010 l 458 1010 l 837 0 l 804 0 l 511 783 q 470 891 490 837 q 431 1000 450 945 l 443 1000 q 403 891 423 945 q 363 783 383 837 l 71 0 l 38 0 m 186 336 l 186 367 l 688 367 l 688 336 l 186 336 m 437 1096 q 348 1120 388 1096 q 283 1184 307 1144 q 260 1274 260 1225 l 291 1274 q 334 1169 291 1212 q 437 1126 377 1126 q 541 1169 498 1126 q 584 1274 584 1212 l 615 1274 q 591 1184 615 1225 q 528 1120 568 1144 q 437 1096 488 1096 m 454 1339 l 422 1339 l 460 1404 q 482 1472 488 1449 q 428 1495 477 1495 l 357 1495 l 357 1525 l 428 1525 q 494 1507 473 1525 q 514 1460 515 1490 q 489 1394 512 1431 l 454 1339 z "},"Ẵ":{"ha":875,"x_min":38,"x_max":837,"o":"m 38 0 l 416 1010 l 458 1010 l 837 0 l 804 0 l 511 783 q 470 891 490 837 q 431 1000 450 945 l 443 1000 q 403 891 423 945 q 363 783 383 837 l 71 0 l 38 0 m 186 336 l 186 367 l 688 367 l 688 336 l 186 336 m 437 1109 q 348 1133 388 1109 q 283 1197 307 1157 q 260 1286 260 1238 l 291 1286 q 334 1182 291 1225 q 437 1139 377 1139 q 541 1182 498 1139 q 584 1286 584 1225 l 615 1286 q 591 1197 615 1238 q 528 1133 568 1157 q 437 1109 488 1109 m 536 1380 q 486 1392 507 1380 q 448 1420 465 1404 q 412 1448 430 1436 q 370 1460 393 1460 q 315 1440 336 1460 q 291 1385 294 1420 l 260 1385 q 292 1461 264 1431 q 364 1491 321 1491 q 418 1479 396 1491 q 458 1451 440 1467 q 492 1423 475 1436 q 530 1411 509 1411 q 578 1428 559 1411 q 605 1484 597 1445 l 637 1484 q 602 1408 629 1436 q 536 1380 574 1380 z "},"Ặ":{"ha":875,"x_min":38,"x_max":837,"o":"m 38 0 l 416 1010 l 458 1010 l 837 0 l 804 0 l 511 783 q 470 891 490 837 q 431 1000 450 945 l 443 1000 q 403 891 423 945 q 363 783 383 837 l 71 0 l 38 0 m 186 336 l 186 367 l 688 367 l 688 336 l 186 336 m 437 1117 q 348 1141 388 1117 q 283 1205 307 1165 q 260 1295 260 1246 l 291 1295 q 334 1190 291 1233 q 437 1147 377 1147 q 541 1190 498 1147 q 584 1295 584 1233 l 615 1295 q 591 1205 615 1246 q 528 1141 568 1165 q 437 1117 488 1117 m 437 -220 q 415 -211 425 -220 q 406 -189 406 -202 q 415 -166 406 -175 q 437 -157 425 -157 q 460 -166 451 -157 q 469 -189 469 -175 q 460 -211 469 -201 q 437 -220 451 -220 z "},"Α":{"ha":875,"x_min":38,"x_max":837,"o":"m 38 0 l 416 1010 l 458 1010 l 837 0 l 804 0 l 511 783 q 470 891 490 837 q 431 1000 450 945 l 443 1000 q 403 891 423 945 q 363 783 383 837 l 71 0 l 38 0 m 186 336 l 186 367 l 688 367 l 688 336 l 186 336 z "},"Ά":{"ha":875,"x_min":38,"x_max":837,"o":"m 38 0 l 416 1010 l 458 1010 l 837 0 l 804 0 l 511 783 q 470 891 490 837 q 431 1000 450 945 l 443 1000 q 403 891 423 945 q 363 783 383 837 l 71 0 l 38 0 m 186 336 l 186 367 l 688 367 l 688 336 l 186 336 m 216 821 l 241 1010 l 275 1010 l 241 821 l 216 821 z "},"Ἀ":{"ha":913,"x_min":77,"x_max":876,"o":"m 77 0 l 454 1010 l 497 1010 l 876 0 l 842 0 l 549 783 q 509 891 529 837 q 469 1000 489 945 l 481 1000 q 442 891 462 945 q 401 783 422 837 l 110 0 l 77 0 m 225 336 l 225 367 l 726 367 l 726 336 l 225 336 m 182 819 l 171 819 l 171 850 l 182 850 q 246 870 222 850 q 271 922 271 890 q 246 971 271 954 q 182 988 222 988 l 149 988 l 149 1019 l 182 1019 q 268 994 235 1019 q 302 922 302 968 q 268 847 302 876 q 182 819 235 819 z "},"Ἁ":{"ha":913,"x_min":77,"x_max":876,"o":"m 77 0 l 454 1010 l 497 1010 l 876 0 l 842 0 l 549 783 q 509 891 529 837 q 469 1000 489 945 l 481 1000 q 442 891 462 945 q 401 783 422 837 l 110 0 l 77 0 m 225 336 l 225 367 l 726 367 l 726 336 l 225 336 m 267 814 q 180 843 214 814 q 146 918 146 872 q 180 989 146 964 q 267 1015 214 1015 l 299 1015 l 299 984 l 267 984 q 202 967 227 984 q 178 918 178 949 q 202 866 178 886 q 267 846 227 846 l 277 846 l 277 814 l 267 814 z "},"Ἂ":{"ha":974,"x_min":77,"x_max":936,"o":"m 137 0 l 515 1010 l 557 1010 l 936 0 l 903 0 l 610 783 q 569 891 589 837 q 530 1000 549 945 l 542 1000 q 502 891 522 945 q 462 783 482 837 l 170 0 l 137 0 m 286 336 l 286 367 l 787 367 l 787 336 l 286 336 m 109 814 l 98 814 l 98 846 l 109 846 q 174 866 149 846 q 198 918 198 886 q 174 967 198 949 q 109 984 149 984 l 77 984 l 77 1015 l 109 1015 q 196 989 162 1015 q 229 918 229 964 q 196 843 229 872 q 109 814 162 814 m 343 821 l 317 821 l 283 1010 l 317 1010 l 343 821 z "},"Ἃ":{"ha":982,"x_min":77,"x_max":945,"o":"m 146 0 l 524 1010 l 566 1010 l 945 0 l 911 0 l 618 783 q 578 891 598 837 q 538 1000 558 945 l 551 1000 q 511 891 531 945 q 471 783 491 837 l 179 0 l 146 0 m 294 336 l 294 367 l 795 367 l 795 336 l 294 336 m 197 814 q 110 843 144 814 q 77 918 77 872 q 110 989 77 964 q 197 1015 144 1015 l 229 1015 l 229 984 l 197 984 q 133 967 157 984 q 108 918 108 949 q 133 866 108 886 q 197 846 157 846 l 208 846 l 208 814 l 197 814 m 365 821 l 339 821 l 305 1010 l 338 1010 l 365 821 z "},"Ἄ":{"ha":972,"x_min":77,"x_max":935,"o":"m 136 0 l 514 1010 l 557 1010 l 935 0 l 902 0 l 609 783 q 569 891 589 837 q 529 1000 549 945 l 541 1000 q 502 891 522 945 q 461 783 481 837 l 170 0 l 136 0 m 285 336 l 285 367 l 786 367 l 786 336 l 285 336 m 109 814 l 98 814 l 98 846 l 109 846 q 174 866 149 846 q 198 918 198 886 q 174 967 198 949 q 109 984 149 984 l 77 984 l 77 1015 l 109 1015 q 196 989 162 1015 q 229 918 229 964 q 196 843 229 872 q 109 814 162 814 m 307 821 l 332 1010 l 366 1010 l 332 821 l 307 821 z "},"Ἅ":{"ha":977,"x_min":77,"x_max":939,"o":"m 140 0 l 518 1010 l 561 1010 l 939 0 l 906 0 l 613 783 q 573 891 593 837 q 533 1000 553 945 l 545 1000 q 506 891 526 945 q 465 783 486 837 l 174 0 l 140 0 m 289 336 l 289 367 l 790 367 l 790 336 l 289 336 m 197 814 q 110 843 144 814 q 77 918 77 872 q 110 989 77 964 q 197 1015 144 1015 l 229 1015 l 229 984 l 197 984 q 133 967 157 984 q 108 918 108 949 q 133 866 108 886 q 197 846 157 846 l 208 846 l 208 814 l 197 814 m 315 821 l 341 1010 l 374 1010 l 340 821 l 315 821 z "},"Ἆ":{"ha":954,"x_min":77,"x_max":917,"o":"m 118 0 l 496 1010 l 538 1010 l 917 0 l 884 0 l 591 783 q 550 891 570 837 q 511 1000 530 945 l 523 1000 q 483 891 503 945 q 443 783 463 837 l 151 0 l 118 0 m 267 336 l 267 367 l 768 367 l 768 336 l 267 336 m 221 810 l 210 810 l 210 841 l 221 841 q 286 861 261 841 q 310 913 310 882 q 286 962 310 945 q 221 979 261 979 l 189 979 l 189 1010 l 221 1010 q 308 985 274 1010 q 341 913 341 959 q 308 839 341 867 q 221 810 274 810 m 353 1084 q 303 1097 324 1084 q 264 1124 282 1109 q 229 1152 247 1140 q 186 1164 210 1164 q 132 1144 153 1164 q 108 1089 111 1124 l 77 1089 q 109 1165 81 1135 q 181 1196 138 1196 q 235 1183 213 1196 q 275 1156 257 1171 q 309 1128 292 1140 q 347 1116 326 1116 q 395 1133 376 1116 q 422 1188 414 1149 l 454 1188 q 418 1112 446 1140 q 353 1084 391 1084 z "},"Ἇ":{"ha":954,"x_min":77,"x_max":916,"o":"m 118 0 l 496 1010 l 538 1010 l 917 0 l 884 0 l 591 783 q 550 891 570 837 q 511 1000 530 945 l 523 1000 q 483 891 503 945 q 443 783 463 837 l 151 0 l 118 0 m 267 336 l 267 367 l 768 367 l 768 336 l 267 336 m 309 810 q 222 839 256 810 q 189 913 189 867 q 222 985 189 959 q 309 1010 256 1010 l 341 1010 l 341 979 l 309 979 q 244 962 269 979 q 220 913 220 945 q 244 861 220 882 q 309 841 269 841 l 319 841 l 319 810 l 309 810 m 353 1084 q 303 1097 324 1084 q 264 1124 282 1109 q 229 1152 247 1140 q 186 1164 210 1164 q 132 1144 153 1164 q 108 1089 111 1124 l 77 1089 q 109 1165 81 1135 q 181 1196 138 1196 q 235 1183 213 1196 q 275 1156 257 1171 q 309 1128 292 1140 q 347 1116 326 1116 q 395 1133 376 1116 q 422 1188 414 1149 l 454 1188 q 418 1112 446 1140 q 353 1084 391 1084 z "},"Ᾰ":{"ha":875,"x_min":38,"x_max":837,"o":"m 38 0 l 416 1010 l 458 1010 l 837 0 l 804 0 l 511 783 q 470 891 490 837 q 431 1000 450 945 l 443 1000 q 403 891 423 945 q 363 783 383 837 l 71 0 l 38 0 m 186 336 l 186 367 l 688 367 l 688 336 l 186 336 m 437 1117 q 348 1141 388 1117 q 283 1205 307 1165 q 260 1295 260 1246 l 291 1295 q 334 1190 291 1233 q 437 1147 377 1147 q 541 1190 498 1147 q 584 1295 584 1233 l 615 1295 q 591 1205 615 1246 q 528 1141 568 1165 q 437 1117 488 1117 z "},"Ᾱ":{"ha":875,"x_min":38,"x_max":837,"o":"m 38 0 l 416 1010 l 458 1010 l 837 0 l 804 0 l 511 783 q 470 891 490 837 q 431 1000 450 945 l 443 1000 q 403 891 423 945 q 363 783 383 837 l 71 0 l 38 0 m 186 336 l 186 367 l 688 367 l 688 336 l 186 336 m 595 1234 l 595 1203 l 279 1203 l 279 1234 l 595 1234 z "},"Ὰ":{"ha":875,"x_min":38,"x_max":837,"o":"m 38 0 l 416 1010 l 458 1010 l 837 0 l 804 0 l 511 783 q 470 891 490 837 q 431 1000 450 945 l 443 1000 q 403 891 423 945 q 363 783 383 837 l 71 0 l 38 0 m 186 336 l 186 367 l 688 367 l 688 336 l 186 336 m 210 851 l 184 851 l 151 1040 l 184 1040 l 210 851 z "},"Ⱥ":{"ha":875,"x_min":38,"x_max":837,"o":"m 662 1138 l 212 -129 l 178 -129 l 628 1138 l 662 1138 m 38 0 l 416 1010 l 458 1010 l 837 0 l 804 0 l 511 783 q 470 891 490 837 q 431 1000 450 945 l 443 1000 q 403 891 423 945 q 363 783 383 837 l 71 0 l 38 0 m 186 336 l 186 367 l 688 367 l 688 336 l 186 336 z "},"Ά":{"ha":913,"x_min":77,"x_max":876,"o":"m 77 0 l 454 1010 l 497 1010 l 876 0 l 842 0 l 549 783 q 509 891 529 837 q 469 1000 489 945 l 481 1000 q 442 891 462 945 q 401 783 422 837 l 110 0 l 77 0 m 225 336 l 225 367 l 726 367 l 726 336 l 225 336 m 254 821 l 280 1010 l 314 1010 l 279 821 l 254 821 z "},"А":{"ha":875,"x_min":38,"x_max":837,"o":"m 38 0 l 416 1010 l 458 1010 l 837 0 l 804 0 l 511 783 q 470 891 490 837 q 431 1000 450 945 l 443 1000 q 403 891 423 945 q 363 783 383 837 l 71 0 l 38 0 m 186 336 l 186 367 l 688 367 l 688 336 l 186 336 z "},"Ӑ":{"ha":875,"x_min":38,"x_max":837,"o":"m 38 0 l 416 1010 l 458 1010 l 837 0 l 804 0 l 511 783 q 470 891 490 837 q 431 1000 450 945 l 443 1000 q 403 891 423 945 q 363 783 383 837 l 71 0 l 38 0 m 186 336 l 186 367 l 688 367 l 688 336 l 186 336 m 437 1117 q 348 1141 388 1117 q 283 1205 307 1165 q 260 1295 260 1246 l 291 1295 q 334 1190 291 1233 q 437 1147 377 1147 q 541 1190 498 1147 q 584 1295 584 1233 l 615 1295 q 591 1205 615 1246 q 528 1141 568 1165 q 437 1117 488 1117 z "},"Ӓ":{"ha":875,"x_min":38,"x_max":837,"o":"m 38 0 l 416 1010 l 458 1010 l 837 0 l 804 0 l 511 783 q 470 891 490 837 q 431 1000 450 945 l 443 1000 q 403 891 423 945 q 363 783 383 837 l 71 0 l 38 0 m 186 336 l 186 367 l 688 367 l 688 336 l 186 336 m 574 1187 q 552 1196 562 1187 q 543 1219 543 1206 q 552 1241 543 1232 q 574 1251 562 1251 q 597 1241 588 1251 q 606 1219 606 1232 q 597 1196 606 1206 q 574 1187 588 1187 m 300 1187 q 278 1196 288 1187 q 269 1219 269 1206 q 278 1241 269 1232 q 300 1251 288 1251 q 323 1241 314 1251 q 332 1219 332 1232 q 323 1196 332 1206 q 300 1187 314 1187 z "},"ᾈ":{"ha":913,"x_min":77,"x_max":876,"o":"m 77 0 l 454 1010 l 497 1010 l 876 0 l 842 0 l 549 783 q 509 891 529 837 q 469 1000 489 945 l 481 1000 q 442 891 462 945 q 401 783 422 837 l 110 0 l 77 0 m 225 336 l 225 367 l 726 367 l 726 336 l 225 336 m 528 -293 q 479 -271 498 -293 q 460 -216 460 -250 l 460 -63 l 492 -63 l 492 -216 q 502 -251 492 -237 q 530 -264 513 -264 q 541 -263 534 -264 q 552 -262 547 -262 l 557 -290 q 543 -292 551 -291 q 528 -293 535 -293 m 182 819 l 171 819 l 171 850 l 182 850 q 246 870 222 850 q 271 922 271 890 q 246 971 271 954 q 182 988 222 988 l 149 988 l 149 1019 l 182 1019 q 268 994 235 1019 q 302 922 302 968 q 268 847 302 876 q 182 819 235 819 z "},"ᾉ":{"ha":913,"x_min":77,"x_max":876,"o":"m 77 0 l 454 1010 l 497 1010 l 876 0 l 842 0 l 549 783 q 509 891 529 837 q 469 1000 489 945 l 481 1000 q 442 891 462 945 q 401 783 422 837 l 110 0 l 77 0 m 225 336 l 225 367 l 726 367 l 726 336 l 225 336 m 528 -293 q 479 -271 498 -293 q 460 -216 460 -250 l 460 -63 l 492 -63 l 492 -216 q 502 -251 492 -237 q 530 -264 513 -264 q 541 -263 534 -264 q 552 -262 547 -262 l 557 -290 q 543 -292 551 -291 q 528 -293 535 -293 m 267 814 q 180 843 214 814 q 146 918 146 872 q 180 989 146 964 q 267 1015 214 1015 l 299 1015 l 299 984 l 267 984 q 202 967 227 984 q 178 918 178 949 q 202 866 178 886 q 267 846 227 846 l 277 846 l 277 814 l 267 814 z "},"ᾊ":{"ha":974,"x_min":77,"x_max":936,"o":"m 137 0 l 515 1010 l 557 1010 l 936 0 l 903 0 l 610 783 q 569 891 589 837 q 530 1000 549 945 l 542 1000 q 502 891 522 945 q 462 783 482 837 l 170 0 l 137 0 m 286 336 l 286 367 l 787 367 l 787 336 l 286 336 m 589 -293 q 539 -271 558 -293 q 521 -216 521 -250 l 521 -63 l 552 -63 l 552 -216 q 563 -251 552 -237 q 591 -264 573 -264 q 601 -263 595 -264 q 612 -262 607 -262 l 617 -290 q 603 -292 611 -291 q 589 -293 595 -293 m 109 814 l 98 814 l 98 846 l 109 846 q 174 866 149 846 q 198 918 198 886 q 174 967 198 949 q 109 984 149 984 l 77 984 l 77 1015 l 109 1015 q 196 989 162 1015 q 229 918 229 964 q 196 843 229 872 q 109 814 162 814 m 343 821 l 317 821 l 283 1010 l 317 1010 l 343 821 z "},"ᾋ":{"ha":982,"x_min":77,"x_max":945,"o":"m 146 0 l 524 1010 l 566 1010 l 945 0 l 911 0 l 618 783 q 578 891 598 837 q 538 1000 558 945 l 551 1000 q 511 891 531 945 q 471 783 491 837 l 179 0 l 146 0 m 294 336 l 294 367 l 795 367 l 795 336 l 294 336 m 597 -293 q 548 -271 567 -293 q 530 -216 530 -250 l 530 -63 l 561 -63 l 561 -216 q 571 -251 561 -237 q 600 -264 582 -264 q 610 -263 604 -264 q 621 -262 616 -262 l 626 -290 q 612 -292 620 -291 q 597 -293 604 -293 m 197 814 q 110 843 144 814 q 77 918 77 872 q 110 989 77 964 q 197 1015 144 1015 l 229 1015 l 229 984 l 197 984 q 133 967 157 984 q 108 918 108 949 q 133 866 108 886 q 197 846 157 846 l 208 846 l 208 814 l 197 814 m 365 821 l 339 821 l 305 1010 l 338 1010 l 365 821 z "},"ᾌ":{"ha":972,"x_min":77,"x_max":935,"o":"m 136 0 l 514 1010 l 557 1010 l 935 0 l 902 0 l 609 783 q 569 891 589 837 q 529 1000 549 945 l 541 1000 q 502 891 522 945 q 461 783 481 837 l 170 0 l 136 0 m 285 336 l 285 367 l 786 367 l 786 336 l 285 336 m 109 814 l 98 814 l 98 846 l 109 846 q 174 866 149 846 q 198 918 198 886 q 174 967 198 949 q 109 984 149 984 l 77 984 l 77 1015 l 109 1015 q 196 989 162 1015 q 229 918 229 964 q 196 843 229 872 q 109 814 162 814 m 307 821 l 332 1010 l 366 1010 l 332 821 l 307 821 m 588 -293 q 539 -271 557 -293 q 520 -216 520 -250 l 520 -63 l 551 -63 l 551 -216 q 562 -251 551 -237 q 590 -264 572 -264 q 600 -263 594 -264 q 612 -262 606 -262 l 616 -290 q 603 -292 610 -291 q 588 -293 595 -293 z "},"ᾍ":{"ha":977,"x_min":77,"x_max":939,"o":"m 140 0 l 518 1010 l 561 1010 l 939 0 l 906 0 l 613 783 q 573 891 593 837 q 533 1000 553 945 l 545 1000 q 506 891 526 945 q 465 783 486 837 l 174 0 l 140 0 m 289 336 l 289 367 l 790 367 l 790 336 l 289 336 m 592 -293 q 543 -271 562 -293 q 524 -216 524 -250 l 524 -63 l 555 -63 l 555 -216 q 566 -251 555 -237 q 594 -264 576 -264 q 604 -263 598 -264 q 616 -262 610 -262 l 621 -290 q 607 -292 614 -291 q 592 -293 599 -293 m 197 814 q 110 843 144 814 q 77 918 77 872 q 110 989 77 964 q 197 1015 144 1015 l 229 1015 l 229 984 l 197 984 q 133 967 157 984 q 108 918 108 949 q 133 866 108 886 q 197 846 157 846 l 208 846 l 208 814 l 197 814 m 315 821 l 341 1010 l 374 1010 l 340 821 l 315 821 z "},"ᾎ":{"ha":954,"x_min":77,"x_max":917,"o":"m 118 0 l 496 1010 l 538 1010 l 917 0 l 884 0 l 591 783 q 550 891 570 837 q 511 1000 530 945 l 523 1000 q 483 891 503 945 q 443 783 463 837 l 151 0 l 118 0 m 267 336 l 267 367 l 768 367 l 768 336 l 267 336 m 221 810 l 210 810 l 210 841 l 221 841 q 286 861 261 841 q 310 913 310 882 q 286 962 310 945 q 221 979 261 979 l 189 979 l 189 1010 l 221 1010 q 308 985 274 1010 q 341 913 341 959 q 308 839 341 867 q 221 810 274 810 m 353 1084 q 303 1097 324 1084 q 264 1124 282 1109 q 229 1152 247 1140 q 186 1164 210 1164 q 132 1144 153 1164 q 108 1089 111 1124 l 77 1089 q 109 1165 81 1135 q 181 1196 138 1196 q 235 1183 213 1196 q 275 1156 257 1171 q 309 1128 292 1140 q 347 1116 326 1116 q 395 1133 376 1116 q 422 1188 414 1149 l 454 1188 q 418 1112 446 1140 q 353 1084 391 1084 m 570 -293 q 520 -271 539 -293 q 502 -216 502 -250 l 502 -63 l 533 -63 l 533 -216 q 544 -251 533 -237 q 572 -264 554 -264 q 582 -263 576 -264 q 593 -262 588 -262 l 598 -290 q 584 -292 592 -291 q 570 -293 576 -293 z "},"ᾏ":{"ha":954,"x_min":77,"x_max":916,"o":"m 118 0 l 496 1010 l 538 1010 l 917 0 l 884 0 l 591 783 q 550 891 570 837 q 511 1000 530 945 l 523 1000 q 483 891 503 945 q 443 783 463 837 l 151 0 l 118 0 m 267 336 l 267 367 l 768 367 l 768 336 l 267 336 m 570 -293 q 520 -271 539 -293 q 502 -216 502 -250 l 502 -63 l 533 -63 l 533 -216 q 544 -251 533 -237 q 572 -264 554 -264 q 582 -263 576 -264 q 593 -262 588 -262 l 598 -290 q 584 -292 592 -291 q 570 -293 576 -293 m 309 810 q 222 839 256 810 q 189 913 189 867 q 222 985 189 959 q 309 1010 256 1010 l 341 1010 l 341 979 l 309 979 q 244 962 269 979 q 220 913 220 945 q 244 861 220 882 q 309 841 269 841 l 319 841 l 319 810 l 309 810 m 353 1084 q 303 1097 324 1084 q 264 1124 282 1109 q 229 1152 247 1140 q 186 1164 210 1164 q 132 1144 153 1164 q 108 1089 111 1124 l 77 1089 q 109 1165 81 1135 q 181 1196 138 1196 q 235 1183 213 1196 q 275 1156 257 1171 q 309 1128 292 1140 q 347 1116 326 1116 q 395 1133 376 1116 q 422 1188 414 1149 l 454 1188 q 418 1112 446 1140 q 353 1084 391 1084 z "},"ᾼ":{"ha":875,"x_min":38,"x_max":837,"o":"m 38 0 l 416 1010 l 458 1010 l 837 0 l 804 0 l 511 783 q 470 891 490 837 q 431 1000 450 945 l 443 1000 q 403 891 423 945 q 363 783 383 837 l 71 0 l 38 0 m 186 336 l 186 367 l 688 367 l 688 336 l 186 336 m 490 -293 q 440 -271 459 -293 q 422 -216 422 -250 l 422 -63 l 453 -63 l 453 -216 q 464 -251 453 -237 q 492 -264 474 -264 q 502 -263 496 -264 q 513 -262 508 -262 l 518 -290 q 504 -292 512 -291 q 490 -293 496 -293 z "},"Λ":{"ha":875,"x_min":38,"x_max":837,"o":"m 38 0 l 416 1010 l 458 1010 l 837 0 l 804 0 l 511 783 q 470 891 490 837 q 431 1000 450 945 l 443 1000 q 403 891 423 945 q 363 783 383 837 l 71 0 l 38 0 z "},"Æ":{"ha":1313,"x_min":38,"x_max":1223,"o":"m 38 0 l 553 1010 l 1208 1010 l 1208 979 l 703 979 l 703 521 l 1180 521 l 1180 490 l 703 490 l 703 31 l 1223 31 l 1223 0 l 671 0 l 671 979 l 572 979 l 73 0 l 38 0 m 235 342 l 235 373 l 688 373 l 688 342 l 235 342 z "},"Ǣ":{"ha":1313,"x_min":38,"x_max":1223,"o":"m 38 0 l 553 1010 l 1208 1010 l 1208 979 l 703 979 l 703 521 l 1180 521 l 1180 490 l 703 490 l 703 31 l 1223 31 l 1223 0 l 671 0 l 671 979 l 572 979 l 73 0 l 38 0 m 235 342 l 235 373 l 688 373 l 688 342 l 235 342 m 1001 1234 l 1001 1203 l 686 1203 l 686 1234 l 1001 1234 z "},"Ǽ":{"ha":1313,"x_min":38,"x_max":1223,"o":"m 38 0 l 553 1010 l 1208 1010 l 1208 979 l 703 979 l 703 521 l 1180 521 l 1180 490 l 703 490 l 703 31 l 1223 31 l 1223 0 l 671 0 l 671 979 l 572 979 l 73 0 l 38 0 m 235 342 l 235 373 l 688 373 l 688 342 l 235 342 m 827 1118 l 926 1308 l 965 1308 l 858 1118 l 827 1118 z "},"Ӕ":{"ha":1313,"x_min":38,"x_max":1223,"o":"m 38 0 l 553 1010 l 1208 1010 l 1208 979 l 703 979 l 703 521 l 1180 521 l 1180 490 l 703 490 l 703 31 l 1223 31 l 1223 0 l 671 0 l 671 979 l 572 979 l 73 0 l 38 0 m 235 342 l 235 373 l 688 373 l 688 342 l 235 342 z "},"B":{"ha":878,"x_min":148,"x_max":779,"o":"m 148 0 l 148 1010 l 463 1010 q 611 980 549 1010 q 706 891 673 949 q 739 754 739 833 q 720 645 739 694 q 665 562 701 595 q 581 515 629 528 l 581 512 q 677 473 632 507 q 750 386 722 440 q 779 261 779 331 q 745 124 779 183 q 648 33 711 65 q 496 0 585 0 l 148 0 m 179 31 l 496 31 q 680 95 612 31 q 747 261 747 158 q 714 385 747 332 q 625 468 682 438 q 496 498 568 498 l 179 498 l 179 31 m 179 529 l 496 529 q 613 560 566 529 q 684 643 660 591 q 708 754 708 694 q 642 920 708 861 q 463 979 575 979 l 179 979 l 179 529 z "},"Ḃ":{"ha":878,"x_min":148,"x_max":779,"o":"m 148 0 l 148 1010 l 463 1010 q 611 980 549 1010 q 706 891 673 949 q 739 754 739 833 q 720 645 739 694 q 665 562 701 595 q 581 515 629 528 l 581 512 q 677 473 632 507 q 750 386 722 440 q 779 261 779 331 q 745 124 779 183 q 648 33 711 65 q 496 0 585 0 l 148 0 m 179 31 l 496 31 q 680 95 612 31 q 747 261 747 158 q 714 385 747 332 q 625 468 682 438 q 496 498 568 498 l 179 498 l 179 31 m 179 529 l 496 529 q 613 560 566 529 q 684 643 660 591 q 708 754 708 694 q 642 920 708 861 q 463 979 575 979 l 179 979 l 179 529 m 414 1185 q 391 1194 401 1185 q 382 1217 382 1203 q 391 1239 382 1230 q 414 1249 401 1249 q 436 1239 427 1249 q 446 1217 446 1230 q 436 1194 446 1204 q 414 1185 427 1185 z "},"Ḅ":{"ha":878,"x_min":148,"x_max":779,"o":"m 148 0 l 148 1010 l 463 1010 q 611 980 549 1010 q 706 891 673 949 q 739 754 739 833 q 720 645 739 694 q 665 562 701 595 q 581 515 629 528 l 581 512 q 677 473 632 507 q 750 386 722 440 q 779 261 779 331 q 745 124 779 183 q 648 33 711 65 q 496 0 585 0 l 148 0 m 179 31 l 496 31 q 680 95 612 31 q 747 261 747 158 q 714 385 747 332 q 625 468 682 438 q 496 498 568 498 l 179 498 l 179 31 m 179 529 l 496 529 q 613 560 566 529 q 684 643 660 591 q 708 754 708 694 q 642 920 708 861 q 463 979 575 979 l 179 979 l 179 529 m 426 -220 q 404 -211 413 -220 q 394 -189 394 -202 q 404 -166 394 -175 q 426 -157 413 -157 q 449 -166 439 -157 q 458 -189 458 -175 q 449 -211 458 -201 q 426 -220 439 -220 z "},"Ḇ":{"ha":878,"x_min":148,"x_max":779,"o":"m 148 0 l 148 1010 l 463 1010 q 611 980 549 1010 q 706 891 673 949 q 739 754 739 833 q 720 645 739 694 q 665 562 701 595 q 581 515 629 528 l 581 512 q 677 473 632 507 q 750 386 722 440 q 779 261 779 331 q 745 124 779 183 q 648 33 711 65 q 496 0 585 0 l 148 0 m 179 31 l 496 31 q 680 95 612 31 q 747 261 747 158 q 714 385 747 332 q 625 468 682 438 q 496 498 568 498 l 179 498 l 179 31 m 179 529 l 496 529 q 613 560 566 529 q 684 643 660 591 q 708 754 708 694 q 642 920 708 861 q 463 979 575 979 l 179 979 l 179 529 m 583 -173 l 583 -204 l 268 -204 l 268 -173 l 583 -173 z "},"Ƀ":{"ha":878,"x_min":36,"x_max":779,"o":"m 148 0 l 148 1010 l 463 1010 q 611 980 549 1010 q 706 891 673 949 q 739 754 739 833 q 720 645 739 694 q 665 562 701 595 q 581 515 629 528 l 581 512 q 677 473 632 507 q 750 386 722 440 q 779 261 779 331 q 745 124 779 183 q 648 33 711 65 q 496 0 585 0 l 148 0 m 179 31 l 496 31 q 680 95 612 31 q 747 261 747 158 q 714 385 747 332 q 625 468 682 438 q 496 498 568 498 l 179 498 l 179 31 m 179 529 l 496 529 q 613 560 566 529 q 684 643 660 591 q 708 754 708 694 q 642 920 708 861 q 463 979 575 979 l 179 979 l 179 529 m 36 250 l 36 279 l 339 279 l 339 250 l 36 250 z "},"Ɓ":{"ha":986,"x_min":47,"x_max":887,"o":"m 47 758 l 47 868 q 82 974 47 937 q 180 1010 116 1010 l 255 1010 l 255 979 l 183 979 q 104 952 130 979 q 79 868 79 925 l 79 758 l 47 758 m 256 0 l 256 1010 l 571 1010 q 719 980 657 1010 q 814 891 781 949 q 848 754 848 833 q 828 645 848 694 q 773 562 809 595 q 689 515 738 528 l 689 512 q 786 473 741 507 q 859 386 831 440 q 887 261 887 331 q 853 124 887 183 q 756 33 820 65 q 605 0 693 0 l 256 0 m 288 31 l 605 31 q 788 95 720 31 q 856 261 856 158 q 823 385 856 332 q 733 468 790 438 q 605 498 676 498 l 288 498 l 288 31 m 288 529 l 605 529 q 721 560 674 529 q 792 643 768 591 q 817 754 817 694 q 750 920 817 861 q 571 979 684 979 l 288 979 l 288 529 z "},"В":{"ha":878,"x_min":148,"x_max":779,"o":"m 148 0 l 148 1010 l 463 1010 q 611 980 549 1010 q 706 891 673 949 q 739 754 739 833 q 720 645 739 694 q 665 562 701 595 q 581 515 629 528 l 581 512 q 677 473 632 507 q 750 386 722 440 q 779 261 779 331 q 745 124 779 183 q 648 33 711 65 q 496 0 585 0 l 148 0 m 179 31 l 496 31 q 680 95 612 31 q 747 261 747 158 q 714 385 747 332 q 625 468 682 438 q 496 498 568 498 l 179 498 l 179 31 m 179 529 l 496 529 q 613 560 566 529 q 684 643 660 591 q 708 754 708 694 q 642 920 708 861 q 463 979 575 979 l 179 979 l 179 529 z "},"Β":{"ha":878,"x_min":148,"x_max":779,"o":"m 148 0 l 148 1010 l 463 1010 q 611 980 549 1010 q 706 891 673 949 q 739 754 739 833 q 720 645 739 694 q 665 562 701 595 q 581 515 629 528 l 581 512 q 677 473 632 507 q 750 386 722 440 q 779 261 779 331 q 745 124 779 183 q 648 33 711 65 q 496 0 585 0 l 148 0 m 179 31 l 496 31 q 680 95 612 31 q 747 261 747 158 q 714 385 747 332 q 625 468 682 438 q 496 498 568 498 l 179 498 l 179 31 m 179 529 l 496 529 q 613 560 566 529 q 684 643 660 591 q 708 754 708 694 q 642 920 708 861 q 463 979 575 979 l 179 979 l 179 529 z "},"C":{"ha":985,"x_min":91,"x_max":897,"o":"m 510 -13 q 291 52 386 -13 q 144 233 197 117 q 91 505 91 350 q 144 777 91 660 q 291 958 197 893 q 510 1023 386 1023 q 667 993 599 1023 q 783 913 735 962 q 859 806 831 864 q 897 694 887 749 l 865 694 q 827 799 854 747 q 756 895 800 852 q 650 965 711 939 q 510 992 589 992 q 318 936 406 992 q 176 771 230 880 q 122 505 122 662 q 176 237 122 346 q 318 74 230 129 q 510 18 406 18 q 650 45 589 18 q 755 116 711 72 q 827 212 800 159 q 865 316 854 264 l 897 316 q 859 205 887 262 q 783 98 831 147 q 667 18 735 49 q 510 -13 599 -13 z "},"Ƈ":{"ha":985,"x_min":91,"x_max":1039,"o":"m 865 694 l 865 1002 q 897 1104 865 1072 q 990 1137 928 1137 q 1014 1137 1000 1137 q 1039 1137 1027 1137 l 1039 1105 q 1013 1105 1026 1105 q 990 1105 999 1105 q 919 1082 941 1105 q 897 1002 897 1058 l 897 694 l 865 694 m 510 -13 q 291 52 386 -13 q 144 233 197 117 q 91 505 91 350 q 144 777 91 660 q 291 958 197 893 q 510 1023 386 1023 q 667 993 599 1023 q 783 913 735 962 q 859 806 831 864 q 897 694 887 749 l 865 694 q 827 799 854 747 q 756 895 800 852 q 650 965 711 939 q 510 992 589 992 q 318 936 406 992 q 176 771 230 880 q 122 505 122 662 q 176 237 122 346 q 318 74 230 129 q 510 18 406 18 q 650 45 589 18 q 755 116 711 72 q 827 212 800 159 q 865 316 854 264 l 897 316 q 859 205 887 262 q 783 98 831 147 q 667 18 735 49 q 510 -13 599 -13 z "},"Ç":{"ha":985,"x_min":91,"x_max":897,"o":"m 510 -13 q 291 52 386 -13 q 144 233 197 117 q 91 505 91 350 q 144 777 91 660 q 291 958 197 893 q 510 1023 386 1023 q 667 993 599 1023 q 783 913 735 962 q 859 806 831 864 q 897 694 887 749 l 865 694 q 827 799 854 747 q 756 895 800 852 q 650 965 711 939 q 510 992 589 992 q 318 936 406 992 q 176 771 230 880 q 122 505 122 662 q 176 237 122 346 q 318 74 230 129 q 510 18 406 18 q 650 45 589 18 q 755 116 711 72 q 827 212 800 159 q 865 316 854 264 l 897 316 q 859 205 887 262 q 783 98 831 147 q 667 18 735 49 q 510 -13 599 -13 m 448 -283 l 448 -252 l 514 -252 q 582 -232 557 -252 q 606 -177 606 -212 q 582 -122 606 -142 q 509 -101 557 -101 l 469 -101 l 496 13 l 526 13 l 526 0 l 509 -70 q 603 -100 569 -71 q 637 -177 637 -128 q 604 -255 637 -226 q 514 -283 570 -283 l 448 -283 z "},"Ć":{"ha":985,"x_min":91,"x_max":897,"o":"m 510 -13 q 291 52 386 -13 q 144 233 197 117 q 91 505 91 350 q 144 777 91 660 q 291 958 197 893 q 510 1023 386 1023 q 667 993 599 1023 q 783 913 735 962 q 859 806 831 864 q 897 694 887 749 l 865 694 q 827 799 854 747 q 756 895 800 852 q 650 965 711 939 q 510 992 589 992 q 318 936 406 992 q 176 771 230 880 q 122 505 122 662 q 176 237 122 346 q 318 74 230 129 q 510 18 406 18 q 650 45 589 18 q 755 116 711 72 q 827 212 800 159 q 865 316 854 264 l 897 316 q 859 205 887 262 q 783 98 831 147 q 667 18 735 49 q 510 -13 599 -13 m 494 1118 l 592 1308 l 631 1308 l 524 1118 l 494 1118 z "},"Ĉ":{"ha":985,"x_min":91,"x_max":897,"o":"m 510 -13 q 291 52 386 -13 q 144 233 197 117 q 91 505 91 350 q 144 777 91 660 q 291 958 197 893 q 510 1023 386 1023 q 667 993 599 1023 q 783 913 735 962 q 859 806 831 864 q 897 694 887 749 l 865 694 q 827 799 854 747 q 756 895 800 852 q 650 965 711 939 q 510 992 589 992 q 318 936 406 992 q 176 771 230 880 q 122 505 122 662 q 176 237 122 346 q 318 74 230 129 q 510 18 406 18 q 650 45 589 18 q 755 116 711 72 q 827 212 800 159 q 865 316 854 264 l 897 316 q 859 205 887 262 q 783 98 831 147 q 667 18 735 49 q 510 -13 599 -13 m 362 1126 l 325 1126 l 325 1129 l 503 1314 l 516 1314 l 696 1129 l 696 1126 l 657 1126 l 509 1279 l 362 1126 z "},"Ċ":{"ha":985,"x_min":91,"x_max":897,"o":"m 510 -13 q 291 52 386 -13 q 144 233 197 117 q 91 505 91 350 q 144 777 91 660 q 291 958 197 893 q 510 1023 386 1023 q 667 993 599 1023 q 783 913 735 962 q 859 806 831 864 q 897 694 887 749 l 865 694 q 827 799 854 747 q 756 895 800 852 q 650 965 711 939 q 510 992 589 992 q 318 936 406 992 q 176 771 230 880 q 122 505 122 662 q 176 237 122 346 q 318 74 230 129 q 510 18 406 18 q 650 45 589 18 q 755 116 711 72 q 827 212 800 159 q 865 316 854 264 l 897 316 q 859 205 887 262 q 783 98 831 147 q 667 18 735 49 q 510 -13 599 -13 m 510 1187 q 488 1196 497 1187 q 478 1219 478 1205 q 488 1241 478 1232 q 510 1251 497 1251 q 533 1241 524 1251 q 542 1219 542 1232 q 533 1196 542 1206 q 510 1187 524 1187 z "},"Č":{"ha":985,"x_min":91,"x_max":897,"o":"m 510 -13 q 291 52 386 -13 q 144 233 197 117 q 91 505 91 350 q 144 777 91 660 q 291 958 197 893 q 510 1023 386 1023 q 667 993 599 1023 q 783 913 735 962 q 859 806 831 864 q 897 694 887 749 l 865 694 q 827 799 854 747 q 756 895 800 852 q 650 965 711 939 q 510 992 589 992 q 318 936 406 992 q 176 771 230 880 q 122 505 122 662 q 176 237 122 346 q 318 74 230 129 q 510 18 406 18 q 650 45 589 18 q 755 116 711 72 q 827 212 800 159 q 865 316 854 264 l 897 316 q 859 205 887 262 q 783 98 831 147 q 667 18 735 49 q 510 -13 599 -13 m 362 1312 l 509 1158 l 657 1312 l 696 1312 l 696 1308 l 516 1122 l 503 1122 l 325 1308 l 325 1312 l 362 1312 z "},"Ḉ":{"ha":985,"x_min":91,"x_max":897,"o":"m 510 -13 q 291 52 386 -13 q 144 233 197 117 q 91 505 91 350 q 144 777 91 660 q 291 958 197 893 q 510 1023 386 1023 q 667 993 599 1023 q 783 913 735 962 q 859 806 831 864 q 897 694 887 749 l 865 694 q 827 799 854 747 q 756 895 800 852 q 650 965 711 939 q 510 992 589 992 q 318 936 406 992 q 176 771 230 880 q 122 505 122 662 q 176 237 122 346 q 318 74 230 129 q 510 18 406 18 q 650 45 589 18 q 755 116 711 72 q 827 212 800 159 q 865 316 854 264 l 897 316 q 859 205 887 262 q 783 98 831 147 q 667 18 735 49 q 510 -13 599 -13 m 448 -283 l 448 -252 l 514 -252 q 582 -232 557 -252 q 606 -177 606 -212 q 582 -122 606 -142 q 509 -101 557 -101 l 469 -101 l 496 13 l 526 13 l 526 0 l 509 -70 q 603 -100 569 -71 q 637 -177 637 -128 q 604 -255 637 -226 q 514 -283 570 -283 l 448 -283 m 494 1118 l 592 1308 l 631 1308 l 524 1118 l 494 1118 z "},"Ȼ":{"ha":985,"x_min":91,"x_max":897,"o":"m 239 -129 l 730 1138 l 764 1138 l 273 -129 l 239 -129 m 510 -13 q 291 52 386 -13 q 144 233 197 117 q 91 505 91 350 q 144 777 91 660 q 291 958 197 893 q 510 1023 386 1023 q 667 993 599 1023 q 783 913 735 962 q 859 806 831 864 q 897 694 887 749 l 865 694 q 827 799 854 747 q 756 895 800 852 q 650 965 711 939 q 510 992 589 992 q 318 936 406 992 q 176 771 230 880 q 122 505 122 662 q 176 237 122 346 q 318 74 230 129 q 510 18 406 18 q 650 45 589 18 q 755 116 711 72 q 827 212 800 159 q 865 316 854 264 l 897 316 q 859 205 887 262 q 783 98 831 147 q 667 18 735 49 q 510 -13 599 -13 z "},"Ɔ":{"ha":985,"x_min":88,"x_max":894,"o":"m 475 1023 q 694 959 600 1023 q 841 777 788 894 q 894 506 894 661 q 841 234 894 351 q 694 52 788 117 q 475 -13 600 -13 q 318 18 386 -13 q 202 98 250 48 q 126 205 154 147 q 88 316 98 262 l 120 316 q 157 212 130 264 q 229 115 184 159 q 335 45 273 72 q 475 18 396 18 q 667 75 578 18 q 809 240 755 131 q 863 506 863 349 q 809 773 863 665 q 667 937 755 882 q 475 992 578 992 q 335 965 397 992 q 229 895 273 939 q 158 799 185 851 q 120 694 130 746 l 88 694 q 126 806 98 748 q 202 912 154 863 q 318 992 250 962 q 475 1023 386 1023 z "},"Ϲ":{"ha":985,"x_min":91,"x_max":897,"o":"m 510 -13 q 291 52 386 -13 q 144 233 197 117 q 91 505 91 350 q 144 777 91 660 q 291 958 197 893 q 510 1023 386 1023 q 667 993 599 1023 q 783 913 735 962 q 859 806 831 864 q 897 694 887 749 l 865 694 q 827 799 854 747 q 756 895 800 852 q 650 965 711 939 q 510 992 589 992 q 318 936 406 992 q 176 771 230 880 q 122 505 122 662 q 176 237 122 346 q 318 74 230 129 q 510 18 406 18 q 650 45 589 18 q 755 116 711 72 q 827 212 800 159 q 865 316 854 264 l 897 316 q 859 205 887 262 q 783 98 831 147 q 667 18 735 49 q 510 -13 599 -13 z "},"D":{"ha":972,"x_min":148,"x_max":882,"o":"m 412 0 l 164 0 l 164 31 l 412 31 q 651 88 553 31 q 800 252 749 145 q 850 509 850 359 q 802 762 850 656 q 662 923 753 867 q 438 979 570 979 l 164 979 l 164 1010 l 438 1010 q 677 950 578 1010 q 829 778 776 890 q 882 509 882 666 q 826 234 882 348 q 666 60 771 120 q 412 0 561 0 m 179 1010 l 179 0 l 148 0 l 148 1010 l 179 1010 z "},"Ɗ":{"ha":1081,"x_min":49,"x_max":990,"o":"m 49 758 l 49 868 q 83 974 49 937 q 182 1010 117 1010 l 256 1010 l 256 979 l 184 979 q 105 952 131 979 q 80 868 80 925 l 80 758 l 49 758 m 521 0 l 273 0 l 273 31 l 521 31 q 759 88 661 31 q 908 252 857 145 q 959 509 959 359 q 910 762 959 656 q 770 923 862 867 q 547 979 678 979 l 273 979 l 273 1010 l 547 1010 q 785 950 686 1010 q 937 778 884 890 q 990 509 990 666 q 935 234 990 348 q 774 60 879 120 q 521 0 669 0 m 288 1010 l 288 0 l 256 0 l 256 1010 l 288 1010 z "},"Ď":{"ha":972,"x_min":148,"x_max":882,"o":"m 412 0 l 164 0 l 164 31 l 412 31 q 651 88 553 31 q 800 252 749 145 q 850 509 850 359 q 802 762 850 656 q 662 923 753 867 q 438 979 570 979 l 164 979 l 164 1010 l 438 1010 q 677 950 578 1010 q 829 778 776 890 q 882 509 882 666 q 826 234 882 348 q 666 60 771 120 q 412 0 561 0 m 179 1010 l 179 0 l 148 0 l 148 1010 l 179 1010 m 271 1312 l 418 1158 l 566 1312 l 605 1312 l 605 1308 l 425 1122 l 412 1122 l 234 1308 l 234 1312 l 271 1312 z "},"Ḋ":{"ha":972,"x_min":148,"x_max":882,"o":"m 412 0 l 164 0 l 164 31 l 412 31 q 651 88 553 31 q 800 252 749 145 q 850 509 850 359 q 802 762 850 656 q 662 923 753 867 q 438 979 570 979 l 164 979 l 164 1010 l 438 1010 q 677 950 578 1010 q 829 778 776 890 q 882 509 882 666 q 826 234 882 348 q 666 60 771 120 q 412 0 561 0 m 179 1010 l 179 0 l 148 0 l 148 1010 l 179 1010 m 419 1187 q 397 1196 406 1187 q 387 1219 387 1205 q 397 1241 387 1232 q 419 1251 406 1251 q 442 1241 433 1251 q 451 1219 451 1232 q 442 1196 451 1206 q 419 1187 433 1187 z "},"Ḍ":{"ha":972,"x_min":148,"x_max":882,"o":"m 412 0 l 164 0 l 164 31 l 412 31 q 651 88 553 31 q 800 252 749 145 q 850 509 850 359 q 802 762 850 656 q 662 923 753 867 q 438 979 570 979 l 164 979 l 164 1010 l 438 1010 q 677 950 578 1010 q 829 778 776 890 q 882 509 882 666 q 826 234 882 348 q 666 60 771 120 q 412 0 561 0 m 179 1010 l 179 0 l 148 0 l 148 1010 l 179 1010 m 391 -220 q 368 -211 378 -220 q 359 -189 359 -202 q 368 -166 359 -175 q 391 -157 378 -157 q 413 -166 404 -157 q 422 -189 422 -175 q 413 -211 422 -201 q 391 -220 404 -220 z "},"Ḏ":{"ha":972,"x_min":148,"x_max":882,"o":"m 412 0 l 164 0 l 164 31 l 412 31 q 651 88 553 31 q 800 252 749 145 q 850 509 850 359 q 802 762 850 656 q 662 923 753 867 q 438 979 570 979 l 164 979 l 164 1010 l 438 1010 q 677 950 578 1010 q 829 778 776 890 q 882 509 882 666 q 826 234 882 348 q 666 60 771 120 q 412 0 561 0 m 179 1010 l 179 0 l 148 0 l 148 1010 l 179 1010 m 548 -173 l 548 -204 l 233 -204 l 233 -173 l 548 -173 z "},"Ḑ":{"ha":972,"x_min":148,"x_max":882,"o":"m 412 0 l 164 0 l 164 31 l 412 31 q 651 88 553 31 q 800 252 749 145 q 850 509 850 359 q 802 762 850 656 q 662 923 753 867 q 438 979 570 979 l 164 979 l 164 1010 l 438 1010 q 677 950 578 1010 q 829 778 776 890 q 882 509 882 666 q 826 234 882 348 q 666 60 771 120 q 412 0 561 0 m 179 1010 l 179 0 l 148 0 l 148 1010 l 179 1010 m 307 -335 l 372 -80 l 406 -80 l 332 -335 l 307 -335 z "},"Ḓ":{"ha":972,"x_min":148,"x_max":882,"o":"m 412 0 l 164 0 l 164 31 l 412 31 q 651 88 553 31 q 800 252 749 145 q 850 509 850 359 q 802 762 850 656 q 662 923 753 867 q 438 979 570 979 l 164 979 l 164 1010 l 438 1010 q 677 950 578 1010 q 829 778 776 890 q 882 509 882 666 q 826 234 882 348 q 666 60 771 120 q 412 0 561 0 m 179 1010 l 179 0 l 148 0 l 148 1010 l 179 1010 m 243 -283 l 205 -283 l 205 -279 l 384 -94 l 397 -94 l 576 -279 l 576 -283 l 538 -283 l 390 -130 l 243 -283 z "},"Ɖ":{"ha":975,"x_min":31,"x_max":884,"o":"m 415 0 l 167 0 l 167 31 l 415 31 q 653 88 555 31 q 802 252 751 145 q 853 509 853 359 q 805 762 853 656 q 664 923 756 867 q 441 979 572 979 l 167 979 l 167 1010 l 441 1010 q 680 950 581 1010 q 831 778 779 890 q 884 509 884 666 q 829 234 884 348 q 669 60 774 120 q 415 0 564 0 m 182 1010 l 182 0 l 151 0 l 151 1010 l 182 1010 m 31 490 l 31 521 l 421 521 l 421 490 l 31 490 z "},"ǲ":{"ha":1675,"x_min":148,"x_max":1580,"o":"m 412 0 l 164 0 l 164 31 l 412 31 q 651 88 553 31 q 800 252 749 145 q 850 509 850 359 q 802 762 850 656 q 662 923 753 867 q 438 979 570 979 l 164 979 l 164 1010 l 438 1010 q 677 950 578 1010 q 829 778 776 890 q 882 509 882 666 q 826 234 882 348 q 666 60 771 120 q 412 0 561 0 m 179 1010 l 179 0 l 148 0 l 148 1010 l 179 1010 m 1067 0 l 1067 31 l 1525 714 l 1525 718 l 1091 718 l 1091 749 l 1564 749 l 1564 716 l 1107 35 l 1107 31 l 1580 31 l 1580 0 l 1067 0 z "},"ǅ":{"ha":1675,"x_min":148,"x_max":1580,"o":"m 412 0 l 164 0 l 164 31 l 412 31 q 651 88 553 31 q 800 252 749 145 q 850 509 850 359 q 802 762 850 656 q 662 923 753 867 q 438 979 570 979 l 164 979 l 164 1010 l 438 1010 q 677 950 578 1010 q 829 778 776 890 q 882 509 882 666 q 826 234 882 348 q 666 60 771 120 q 412 0 561 0 m 179 1010 l 179 0 l 148 0 l 148 1010 l 179 1010 m 1067 0 l 1067 31 l 1525 714 l 1525 718 l 1091 718 l 1091 749 l 1564 749 l 1564 716 l 1107 35 l 1107 31 l 1580 31 l 1580 0 l 1067 0 m 1168 1050 l 1315 896 l 1463 1050 l 1501 1050 l 1501 1046 l 1322 861 l 1309 861 l 1131 1046 l 1131 1050 l 1168 1050 z "},"E":{"ha":804,"x_min":148,"x_max":714,"o":"m 148 0 l 148 1010 l 703 1010 l 703 979 l 179 979 l 179 524 l 669 524 l 669 492 l 179 492 l 179 31 l 714 31 l 714 0 l 148 0 z "},"È":{"ha":804,"x_min":148,"x_max":714,"o":"m 148 0 l 148 1010 l 703 1010 l 703 979 l 179 979 l 179 524 l 669 524 l 669 492 l 179 492 l 179 31 l 714 31 l 714 0 l 148 0 m 419 1118 l 311 1308 l 351 1308 l 450 1118 l 419 1118 z "},"É":{"ha":804,"x_min":148,"x_max":714,"o":"m 148 0 l 148 1010 l 703 1010 l 703 979 l 179 979 l 179 524 l 669 524 l 669 492 l 179 492 l 179 31 l 714 31 l 714 0 l 148 0 m 415 1118 l 513 1308 l 553 1308 l 446 1118 l 415 1118 z "},"Ê":{"ha":804,"x_min":148,"x_max":714,"o":"m 148 0 l 148 1010 l 703 1010 l 703 979 l 179 979 l 179 524 l 669 524 l 669 492 l 179 492 l 179 31 l 714 31 l 714 0 l 148 0 m 283 1126 l 245 1126 l 245 1129 l 424 1314 l 437 1314 l 616 1129 l 616 1126 l 578 1126 l 430 1279 l 283 1126 z "},"Ë":{"ha":804,"x_min":148,"x_max":714,"o":"m 148 0 l 148 1010 l 703 1010 l 703 979 l 179 979 l 179 524 l 669 524 l 669 492 l 179 492 l 179 31 l 714 31 l 714 0 l 148 0 m 568 1187 q 546 1196 555 1187 q 536 1219 536 1206 q 546 1241 536 1232 q 568 1251 555 1251 q 591 1241 582 1251 q 600 1219 600 1232 q 591 1196 600 1206 q 568 1187 582 1187 m 294 1187 q 272 1196 281 1187 q 262 1219 262 1206 q 272 1241 262 1232 q 294 1251 281 1251 q 317 1241 308 1251 q 326 1219 326 1232 q 317 1196 326 1206 q 294 1187 308 1187 z "},"Ē":{"ha":804,"x_min":148,"x_max":714,"o":"m 148 0 l 148 1010 l 703 1010 l 703 979 l 179 979 l 179 524 l 669 524 l 669 492 l 179 492 l 179 31 l 714 31 l 714 0 l 148 0 m 589 1234 l 589 1203 l 273 1203 l 273 1234 l 589 1234 z "},"Ĕ":{"ha":804,"x_min":148,"x_max":714,"o":"m 148 0 l 148 1010 l 703 1010 l 703 979 l 179 979 l 179 524 l 669 524 l 669 492 l 179 492 l 179 31 l 714 31 l 714 0 l 148 0 m 431 1117 q 341 1141 381 1117 q 277 1205 300 1165 q 253 1295 253 1246 l 284 1295 q 327 1190 284 1233 q 431 1147 370 1147 q 534 1190 491 1147 q 577 1295 577 1233 l 608 1295 q 585 1205 608 1246 q 521 1141 561 1165 q 431 1117 481 1117 z "},"Ė":{"ha":804,"x_min":148,"x_max":714,"o":"m 148 0 l 148 1010 l 703 1010 l 703 979 l 179 979 l 179 524 l 669 524 l 669 492 l 179 492 l 179 31 l 714 31 l 714 0 l 148 0 m 431 1187 q 409 1196 418 1187 q 399 1219 399 1205 q 409 1241 399 1232 q 431 1251 418 1251 q 454 1241 445 1251 q 463 1219 463 1232 q 454 1196 463 1206 q 431 1187 445 1187 z "},"Ę":{"ha":804,"x_min":148,"x_max":722,"o":"m 148 0 l 148 1010 l 703 1010 l 703 979 l 179 979 l 179 524 l 669 524 l 669 492 l 179 492 l 179 31 l 714 31 l 714 0 l 148 0 m 677 -288 q 593 -261 628 -288 q 557 -182 557 -235 q 595 -82 557 -128 q 686 10 633 -35 l 714 0 q 625 -92 661 -48 q 589 -182 589 -136 q 615 -239 589 -222 q 677 -256 641 -256 q 696 -255 687 -256 q 713 -251 705 -254 l 722 -280 q 700 -286 711 -284 q 677 -288 689 -288 z "},"Ě":{"ha":804,"x_min":148,"x_max":714,"o":"m 148 0 l 148 1010 l 703 1010 l 703 979 l 179 979 l 179 524 l 669 524 l 669 492 l 179 492 l 179 31 l 714 31 l 714 0 l 148 0 m 283 1312 l 430 1158 l 578 1312 l 616 1312 l 616 1308 l 437 1122 l 424 1122 l 245 1308 l 245 1312 l 283 1312 z "},"Ȅ":{"ha":804,"x_min":148,"x_max":714,"o":"m 148 0 l 148 1010 l 703 1010 l 703 979 l 179 979 l 179 524 l 669 524 l 669 492 l 179 492 l 179 31 l 714 31 l 714 0 l 148 0 m 506 1118 l 409 1308 l 444 1308 l 537 1118 l 506 1118 m 330 1118 l 212 1308 l 250 1308 l 361 1118 l 330 1118 z "},"Ȇ":{"ha":804,"x_min":148,"x_max":714,"o":"m 148 0 l 148 1010 l 703 1010 l 703 979 l 179 979 l 179 524 l 669 524 l 669 492 l 179 492 l 179 31 l 714 31 l 714 0 l 148 0 m 431 1289 q 521 1267 481 1289 q 585 1208 562 1245 q 609 1126 609 1171 l 579 1126 q 536 1220 579 1181 q 431 1258 492 1258 q 326 1220 370 1258 q 283 1126 283 1181 l 254 1126 q 277 1208 254 1171 q 341 1267 301 1245 q 431 1289 382 1289 z "},"Ȩ":{"ha":804,"x_min":148,"x_max":714,"o":"m 148 0 l 148 1010 l 703 1010 l 703 979 l 179 979 l 179 524 l 669 524 l 669 492 l 179 492 l 179 31 l 714 31 l 714 0 l 148 0 m 368 -283 l 368 -252 l 435 -252 q 502 -232 478 -252 q 526 -177 526 -212 q 502 -122 526 -142 q 430 -101 478 -101 l 390 -101 l 417 13 l 446 13 l 446 0 l 429 -70 q 524 -100 490 -71 q 557 -177 557 -128 q 524 -255 557 -226 q 435 -283 491 -283 l 368 -283 z "},"Ḕ":{"ha":804,"x_min":148,"x_max":714,"o":"m 148 0 l 148 1010 l 703 1010 l 703 979 l 179 979 l 179 524 l 669 524 l 669 492 l 179 492 l 179 31 l 714 31 l 714 0 l 148 0 m 589 1212 l 589 1181 l 273 1181 l 273 1212 l 589 1212 m 419 1343 l 300 1529 l 341 1529 l 451 1343 l 419 1343 z "},"Ḗ":{"ha":804,"x_min":148,"x_max":714,"o":"m 148 0 l 148 1010 l 703 1010 l 703 979 l 179 979 l 179 524 l 669 524 l 669 492 l 179 492 l 179 31 l 714 31 l 714 0 l 148 0 m 589 1212 l 589 1181 l 273 1181 l 273 1212 l 589 1212 m 418 1343 l 528 1529 l 569 1529 l 450 1343 l 418 1343 z "},"Ḙ":{"ha":804,"x_min":148,"x_max":714,"o":"m 148 0 l 148 1010 l 703 1010 l 703 979 l 179 979 l 179 524 l 669 524 l 669 492 l 179 492 l 179 31 l 714 31 l 714 0 l 148 0 m 283 -283 l 245 -283 l 245 -279 l 424 -94 l 437 -94 l 616 -279 l 616 -283 l 578 -283 l 430 -130 l 283 -283 z "},"Ḛ":{"ha":804,"x_min":148,"x_max":714,"o":"m 148 0 l 148 1010 l 703 1010 l 703 979 l 179 979 l 179 524 l 669 524 l 669 492 l 179 492 l 179 31 l 714 31 l 714 0 l 148 0 m 519 -244 q 469 -232 490 -244 q 431 -204 448 -220 q 395 -176 413 -189 q 353 -164 376 -164 q 298 -184 319 -164 q 274 -239 277 -204 l 243 -239 q 275 -163 247 -193 q 347 -133 304 -133 q 401 -145 379 -133 q 441 -173 423 -157 q 475 -201 458 -189 q 513 -213 492 -213 q 561 -196 543 -213 q 588 -140 580 -179 l 620 -140 q 585 -216 612 -189 q 519 -244 557 -244 z "},"Ḝ":{"ha":804,"x_min":148,"x_max":714,"o":"m 148 0 l 148 1010 l 703 1010 l 703 979 l 179 979 l 179 524 l 669 524 l 669 492 l 179 492 l 179 31 l 714 31 l 714 0 l 148 0 m 368 -283 l 368 -252 l 435 -252 q 502 -232 478 -252 q 526 -177 526 -212 q 502 -122 526 -142 q 430 -101 478 -101 l 390 -101 l 417 13 l 446 13 l 446 0 l 429 -70 q 524 -100 490 -71 q 557 -177 557 -128 q 524 -255 557 -226 q 435 -283 491 -283 l 368 -283 m 431 1117 q 341 1141 381 1117 q 277 1205 300 1165 q 253 1295 253 1246 l 284 1295 q 327 1190 284 1233 q 431 1147 370 1147 q 534 1190 491 1147 q 577 1295 577 1233 l 608 1295 q 585 1205 608 1246 q 521 1141 561 1165 q 431 1117 481 1117 z "},"Ẹ":{"ha":804,"x_min":148,"x_max":714,"o":"m 148 0 l 148 1010 l 703 1010 l 703 979 l 179 979 l 179 524 l 669 524 l 669 492 l 179 492 l 179 31 l 714 31 l 714 0 l 148 0 m 431 -220 q 409 -211 418 -220 q 399 -189 399 -202 q 409 -166 399 -175 q 431 -157 418 -157 q 454 -166 445 -157 q 463 -189 463 -175 q 454 -211 463 -201 q 431 -220 445 -220 z "},"Ẻ":{"ha":804,"x_min":148,"x_max":714,"o":"m 148 0 l 148 1010 l 703 1010 l 703 979 l 179 979 l 179 524 l 669 524 l 669 492 l 179 492 l 179 31 l 714 31 l 714 0 l 148 0 m 446 1118 l 415 1118 l 451 1187 q 471 1255 475 1233 q 418 1278 467 1278 l 347 1278 l 347 1308 l 418 1308 q 472 1298 452 1308 q 499 1271 492 1289 q 500 1230 506 1253 q 479 1177 495 1206 l 446 1118 z "},"Ẽ":{"ha":804,"x_min":148,"x_max":714,"o":"m 148 0 l 148 1010 l 703 1010 l 703 979 l 179 979 l 179 524 l 669 524 l 669 492 l 179 492 l 179 31 l 714 31 l 714 0 l 148 0 m 519 1163 q 469 1175 490 1163 q 431 1203 448 1187 q 395 1231 413 1219 q 353 1243 376 1243 q 298 1223 319 1243 q 274 1168 277 1203 l 243 1168 q 275 1244 247 1214 q 347 1274 304 1274 q 401 1262 379 1274 q 441 1234 423 1250 q 475 1206 458 1219 q 513 1194 492 1194 q 561 1211 543 1194 q 588 1267 580 1228 l 620 1267 q 585 1191 612 1219 q 519 1163 557 1163 z "},"Ế":{"ha":804,"x_min":148,"x_max":714,"o":"m 148 0 l 148 1010 l 703 1010 l 703 979 l 179 979 l 179 524 l 669 524 l 669 492 l 179 492 l 179 31 l 714 31 l 714 0 l 148 0 m 283 1101 l 245 1101 l 245 1105 l 424 1291 l 437 1291 l 616 1105 l 616 1101 l 578 1101 l 430 1255 l 283 1101 m 540 1339 l 650 1525 l 690 1525 l 572 1339 l 540 1339 z "},"Ề":{"ha":804,"x_min":148,"x_max":714,"o":"m 148 0 l 148 1010 l 703 1010 l 703 979 l 179 979 l 179 524 l 669 524 l 669 492 l 179 492 l 179 31 l 714 31 l 714 0 l 148 0 m 283 1101 l 245 1101 l 245 1105 l 424 1291 l 437 1291 l 616 1105 l 616 1101 l 578 1101 l 430 1255 l 283 1101 m 585 1339 l 466 1525 l 507 1525 l 616 1339 l 585 1339 z "},"Ể":{"ha":804,"x_min":148,"x_max":714,"o":"m 148 0 l 148 1010 l 703 1010 l 703 979 l 179 979 l 179 524 l 669 524 l 669 492 l 179 492 l 179 31 l 714 31 l 714 0 l 148 0 m 283 1101 l 245 1101 l 245 1105 l 424 1291 l 437 1291 l 616 1105 l 616 1101 l 578 1101 l 430 1255 l 283 1101 m 559 1339 l 528 1339 l 566 1404 q 587 1472 593 1449 q 533 1495 582 1495 l 462 1495 l 462 1525 l 533 1525 q 600 1507 578 1525 q 619 1460 621 1490 q 594 1394 618 1431 l 559 1339 z "},"Ễ":{"ha":804,"x_min":148,"x_max":714,"o":"m 148 0 l 148 1010 l 703 1010 l 703 979 l 179 979 l 179 524 l 669 524 l 669 492 l 179 492 l 179 31 l 714 31 l 714 0 l 148 0 m 283 1101 l 245 1101 l 245 1105 l 423 1291 l 436 1291 l 616 1105 l 616 1101 l 578 1101 l 430 1255 l 283 1101 m 518 1380 q 469 1392 490 1380 q 430 1420 448 1404 q 394 1448 412 1436 q 352 1460 376 1460 q 298 1440 319 1460 q 273 1385 277 1420 l 242 1385 q 275 1461 246 1431 q 347 1491 303 1491 q 400 1479 378 1491 q 440 1451 422 1467 q 475 1423 458 1436 q 513 1411 492 1411 q 561 1428 542 1411 q 587 1484 579 1445 l 619 1484 q 584 1408 611 1436 q 518 1380 557 1380 z "},"Ệ":{"ha":804,"x_min":148,"x_max":714,"o":"m 148 0 l 148 1010 l 703 1010 l 703 979 l 179 979 l 179 524 l 669 524 l 669 492 l 179 492 l 179 31 l 714 31 l 714 0 l 148 0 m 283 1126 l 245 1126 l 245 1129 l 424 1314 l 437 1314 l 616 1129 l 616 1126 l 578 1126 l 430 1279 l 283 1126 m 431 -220 q 409 -211 418 -220 q 399 -189 399 -202 q 409 -166 399 -175 q 431 -157 418 -157 q 454 -166 445 -157 q 463 -189 463 -175 q 454 -211 463 -201 q 431 -220 445 -220 z "},"Ɇ":{"ha":804,"x_min":148,"x_max":714,"o":"m 239 -129 l 604 1138 l 633 1138 l 267 -129 l 239 -129 m 148 0 l 148 1010 l 703 1010 l 703 979 l 179 979 l 179 524 l 669 524 l 669 492 l 179 492 l 179 31 l 714 31 l 714 0 l 148 0 z "},"Ǝ":{"ha":804,"x_min":90,"x_max":656,"o":"m 656 1010 l 656 0 l 101 0 l 101 31 l 625 31 l 625 487 l 135 487 l 135 518 l 625 518 l 625 979 l 90 979 l 90 1010 l 656 1010 z "},"Ε":{"ha":804,"x_min":148,"x_max":714,"o":"m 148 0 l 148 1010 l 703 1010 l 703 979 l 179 979 l 179 524 l 669 524 l 669 492 l 179 492 l 179 31 l 714 31 l 714 0 l 148 0 z "},"Έ":{"ha":888,"x_min":77,"x_max":798,"o":"m 232 0 l 232 1010 l 787 1010 l 787 979 l 263 979 l 263 524 l 753 524 l 753 492 l 263 492 l 263 31 l 798 31 l 798 0 l 232 0 m 77 821 l 102 1010 l 136 1010 l 102 821 l 77 821 z "},"Ἐ":{"ha":993,"x_min":77,"x_max":903,"o":"m 337 0 l 337 1010 l 892 1010 l 892 979 l 368 979 l 368 524 l 858 524 l 858 492 l 368 492 l 368 31 l 903 31 l 903 0 l 337 0 m 109 819 l 98 819 l 98 850 l 109 850 q 174 870 149 850 q 198 922 198 890 q 174 971 198 954 q 109 988 149 988 l 77 988 l 77 1019 l 109 1019 q 196 994 162 1019 q 229 922 229 968 q 196 847 229 876 q 109 819 162 819 z "},"Ἑ":{"ha":995,"x_min":77,"x_max":906,"o":"m 340 0 l 340 1010 l 895 1010 l 895 979 l 371 979 l 371 524 l 861 524 l 861 492 l 371 492 l 371 31 l 906 31 l 906 0 l 340 0 m 197 814 q 110 843 144 814 q 77 918 77 872 q 110 989 77 964 q 197 1015 144 1015 l 229 1015 l 229 984 l 197 984 q 133 967 157 984 q 108 918 108 949 q 133 866 108 886 q 197 846 157 846 l 208 846 l 208 814 l 197 814 z "},"Ἒ":{"ha":1126,"x_min":77,"x_max":1036,"o":"m 471 0 l 471 1010 l 1025 1010 l 1025 979 l 502 979 l 502 524 l 991 524 l 991 492 l 502 492 l 502 31 l 1037 31 l 1037 0 l 471 0 m 109 814 l 98 814 l 98 846 l 109 846 q 174 866 149 846 q 198 918 198 886 q 174 967 198 949 q 109 984 149 984 l 77 984 l 77 1015 l 109 1015 q 196 989 162 1015 q 229 918 229 964 q 196 843 229 872 q 109 814 162 814 m 343 821 l 317 821 l 283 1010 l 317 1010 l 343 821 z "},"Ἓ":{"ha":1135,"x_min":77,"x_max":1045,"o":"m 479 0 l 479 1010 l 1034 1010 l 1034 979 l 510 979 l 510 524 l 1000 524 l 1000 492 l 510 492 l 510 31 l 1045 31 l 1045 0 l 479 0 m 197 814 q 110 843 144 814 q 77 918 77 872 q 110 989 77 964 q 197 1015 144 1015 l 229 1015 l 229 984 l 197 984 q 133 967 157 984 q 108 918 108 949 q 133 866 108 886 q 197 846 157 846 l 208 846 l 208 814 l 197 814 m 365 821 l 339 821 l 305 1010 l 338 1010 l 365 821 z "},"Ἔ":{"ha":1124,"x_min":77,"x_max":1036,"o":"m 469 0 l 469 1010 l 1024 1010 l 1024 979 l 500 979 l 500 524 l 990 524 l 990 492 l 500 492 l 500 31 l 1036 31 l 1036 0 l 469 0 m 109 814 l 98 814 l 98 846 l 109 846 q 174 866 149 846 q 198 918 198 886 q 174 967 198 949 q 109 984 149 984 l 77 984 l 77 1015 l 109 1015 q 196 989 162 1015 q 229 918 229 964 q 196 843 229 872 q 109 814 162 814 m 307 821 l 332 1010 l 366 1010 l 332 821 l 307 821 z "},"Ἕ":{"ha":1129,"x_min":77,"x_max":1040,"o":"m 473 0 l 473 1010 l 1028 1010 l 1028 979 l 505 979 l 505 524 l 994 524 l 994 492 l 505 492 l 505 31 l 1040 31 l 1040 0 l 473 0 m 197 814 q 110 843 144 814 q 77 918 77 872 q 110 989 77 964 q 197 1015 144 1015 l 229 1015 l 229 984 l 197 984 q 133 967 157 984 q 108 918 108 949 q 133 866 108 886 q 197 846 157 846 l 208 846 l 208 814 l 197 814 m 315 821 l 341 1010 l 374 1010 l 340 821 l 315 821 z "},"Ὲ":{"ha":860,"x_min":-16,"x_max":770,"o":"m 204 0 l 204 1010 l 759 1010 l 759 979 l 235 979 l 235 524 l 725 524 l 725 492 l 235 492 l 235 31 l 770 31 l 770 0 l 204 0 m 43 851 l 18 851 l -16 1040 l 17 1040 l 43 851 z "},"Έ":{"ha":888,"x_min":77,"x_max":798,"o":"m 232 0 l 232 1010 l 787 1010 l 787 979 l 263 979 l 263 524 l 753 524 l 753 492 l 263 492 l 263 31 l 798 31 l 798 0 l 232 0 m 77 821 l 102 1010 l 136 1010 l 102 821 l 77 821 z "},"Е":{"ha":804,"x_min":148,"x_max":714,"o":"m 148 0 l 148 1010 l 703 1010 l 703 979 l 179 979 l 179 524 l 669 524 l 669 492 l 179 492 l 179 31 l 714 31 l 714 0 l 148 0 z "},"Ѐ":{"ha":804,"x_min":148,"x_max":714,"o":"m 148 0 l 148 1010 l 703 1010 l 703 979 l 179 979 l 179 524 l 669 524 l 669 492 l 179 492 l 179 31 l 714 31 l 714 0 l 148 0 m 419 1118 l 311 1308 l 351 1308 l 450 1118 l 419 1118 z "},"Ё":{"ha":804,"x_min":148,"x_max":714,"o":"m 148 0 l 148 1010 l 703 1010 l 703 979 l 179 979 l 179 524 l 669 524 l 669 492 l 179 492 l 179 31 l 714 31 l 714 0 l 148 0 m 568 1187 q 546 1196 555 1187 q 536 1219 536 1206 q 546 1241 536 1232 q 568 1251 555 1251 q 591 1241 582 1251 q 600 1219 600 1232 q 591 1196 600 1206 q 568 1187 582 1187 m 294 1187 q 272 1196 281 1187 q 262 1219 262 1206 q 272 1241 262 1232 q 294 1251 281 1251 q 317 1241 308 1251 q 326 1219 326 1232 q 317 1196 326 1206 q 294 1187 308 1187 z "},"Ӗ":{"ha":804,"x_min":148,"x_max":714,"o":"m 148 0 l 148 1010 l 703 1010 l 703 979 l 179 979 l 179 524 l 669 524 l 669 492 l 179 492 l 179 31 l 714 31 l 714 0 l 148 0 m 431 1117 q 341 1141 381 1117 q 277 1205 300 1165 q 253 1295 253 1246 l 284 1295 q 327 1190 284 1233 q 431 1147 370 1147 q 534 1190 491 1147 q 577 1295 577 1233 l 608 1295 q 585 1205 608 1246 q 521 1141 561 1165 q 431 1117 481 1117 z "},"F":{"ha":795,"x_min":148,"x_max":699,"o":"m 148 0 l 148 1010 l 699 1010 l 699 979 l 179 979 l 179 524 l 648 524 l 648 492 l 179 492 l 179 0 l 148 0 z "},"Ƒ":{"ha":795,"x_min":5,"x_max":699,"o":"m 5 -283 l 5 -252 q 32 -252 18 -252 q 54 -252 45 -252 q 125 -229 103 -252 q 148 -149 148 -205 l 148 87 l 179 87 l 179 -149 q 148 -251 179 -218 q 54 -283 117 -283 q 31 -283 45 -283 q 5 -283 17 -283 m 148 0 l 148 1010 l 699 1010 l 699 979 l 179 979 l 179 524 l 648 524 l 648 492 l 179 492 l 179 0 l 148 0 z "},"Ḟ":{"ha":795,"x_min":148,"x_max":699,"o":"m 148 0 l 148 1010 l 699 1010 l 699 979 l 179 979 l 179 524 l 648 524 l 648 492 l 179 492 l 179 0 l 148 0 m 424 1187 q 401 1196 411 1187 q 392 1219 392 1205 q 401 1241 392 1232 q 424 1251 411 1251 q 447 1241 437 1251 q 456 1219 456 1232 q 447 1196 456 1206 q 424 1187 437 1187 z "},"Ⅎ":{"ha":795,"x_min":96,"x_max":648,"o":"m 648 1010 l 648 0 l 96 0 l 96 31 l 616 31 l 616 487 l 148 487 l 148 518 l 616 518 l 616 1010 l 648 1010 z "},"G":{"ha":1006,"x_min":91,"x_max":903,"o":"m 513 -13 q 290 52 385 -13 q 143 234 195 117 q 91 505 91 351 q 143 777 91 661 q 290 959 196 894 q 510 1023 385 1023 q 666 993 598 1023 q 783 913 734 962 q 859 806 831 864 q 897 694 888 749 l 865 694 q 828 799 856 746 q 756 895 801 851 q 649 965 711 939 q 510 992 587 992 q 307 931 394 992 q 171 761 219 871 q 122 505 122 651 q 170 251 122 361 q 306 80 218 141 q 513 18 394 18 q 704 68 623 18 q 828 212 784 119 q 872 431 872 304 l 886 425 l 522 425 l 522 456 l 903 456 l 903 426 q 855 194 903 293 q 719 41 806 96 q 513 -13 631 -13 z "},"Ǥ":{"ha":1006,"x_min":91,"x_max":985,"o":"m 513 -13 q 290 52 385 -13 q 143 234 195 117 q 91 505 91 351 q 143 777 91 661 q 290 959 196 894 q 510 1023 385 1023 q 666 993 598 1023 q 783 913 734 962 q 859 806 831 864 q 897 694 888 749 l 865 694 q 828 799 856 746 q 756 895 801 851 q 649 965 711 939 q 510 992 587 992 q 307 931 394 992 q 171 761 219 871 q 122 505 122 651 q 170 251 122 361 q 306 80 218 141 q 513 18 394 18 q 704 68 623 18 q 828 212 784 119 q 872 431 872 304 l 886 425 l 522 425 l 522 456 l 903 456 l 903 426 q 855 194 903 293 q 719 41 806 96 q 513 -13 631 -13 m 522 224 l 522 255 l 985 255 l 985 224 l 522 224 z "},"Ɠ":{"ha":1006,"x_min":91,"x_max":1039,"o":"m 865 694 l 865 1002 q 897 1104 865 1072 q 990 1137 928 1137 q 1014 1137 1000 1137 q 1039 1137 1027 1137 l 1039 1105 q 1013 1105 1026 1105 q 990 1105 999 1105 q 919 1082 941 1105 q 897 1002 897 1058 l 897 694 l 865 694 m 513 -13 q 290 52 385 -13 q 143 234 195 117 q 91 505 91 351 q 143 777 91 661 q 290 959 196 894 q 510 1023 385 1023 q 666 993 598 1023 q 783 913 734 962 q 859 806 831 864 q 897 694 888 749 l 865 694 q 828 799 856 746 q 756 895 801 851 q 649 965 711 939 q 510 992 587 992 q 307 931 394 992 q 171 761 219 871 q 122 505 122 651 q 170 251 122 361 q 306 80 218 141 q 513 18 394 18 q 704 68 623 18 q 828 212 784 119 q 872 431 872 304 l 886 425 l 522 425 l 522 456 l 903 456 l 903 426 q 855 194 903 293 q 719 41 806 96 q 513 -13 631 -13 z "},"Ĝ":{"ha":1006,"x_min":91,"x_max":903,"o":"m 513 -13 q 290 52 385 -13 q 143 234 195 117 q 91 505 91 351 q 143 777 91 661 q 290 959 196 894 q 510 1023 385 1023 q 666 993 598 1023 q 783 913 734 962 q 859 806 831 864 q 897 694 888 749 l 865 694 q 828 799 856 746 q 756 895 801 851 q 649 965 711 939 q 510 992 587 992 q 307 931 394 992 q 171 761 219 871 q 122 505 122 651 q 170 251 122 361 q 306 80 218 141 q 513 18 394 18 q 704 68 623 18 q 828 212 784 119 q 872 431 872 304 l 886 425 l 522 425 l 522 456 l 903 456 l 903 426 q 855 194 903 293 q 719 41 806 96 q 513 -13 631 -13 m 355 1126 l 318 1126 l 318 1129 l 496 1314 l 509 1314 l 689 1129 l 689 1126 l 650 1126 l 503 1279 l 355 1126 z "},"Ğ":{"ha":1006,"x_min":91,"x_max":903,"o":"m 513 -13 q 290 52 385 -13 q 143 234 195 117 q 91 505 91 351 q 143 777 91 661 q 290 959 196 894 q 510 1023 385 1023 q 666 993 598 1023 q 783 913 734 962 q 859 806 831 864 q 897 694 888 749 l 865 694 q 828 799 856 746 q 756 895 801 851 q 649 965 711 939 q 510 992 587 992 q 307 931 394 992 q 171 761 219 871 q 122 505 122 651 q 170 251 122 361 q 306 80 218 141 q 513 18 394 18 q 704 68 623 18 q 828 212 784 119 q 872 431 872 304 l 886 425 l 522 425 l 522 456 l 903 456 l 903 426 q 855 194 903 293 q 719 41 806 96 q 513 -13 631 -13 m 503 1117 q 413 1141 454 1117 q 349 1205 373 1165 q 326 1295 326 1246 l 357 1295 q 400 1190 357 1233 q 503 1147 443 1147 q 607 1190 564 1147 q 650 1295 650 1233 l 681 1295 q 657 1205 681 1246 q 593 1141 633 1165 q 503 1117 553 1117 z "},"Ġ":{"ha":1006,"x_min":91,"x_max":903,"o":"m 513 -13 q 290 52 385 -13 q 143 234 195 117 q 91 505 91 351 q 143 777 91 661 q 290 959 196 894 q 510 1023 385 1023 q 666 993 598 1023 q 783 913 734 962 q 859 806 831 864 q 897 694 888 749 l 865 694 q 828 799 856 746 q 756 895 801 851 q 649 965 711 939 q 510 992 587 992 q 307 931 394 992 q 171 761 219 871 q 122 505 122 651 q 170 251 122 361 q 306 80 218 141 q 513 18 394 18 q 704 68 623 18 q 828 212 784 119 q 872 431 872 304 l 886 425 l 522 425 l 522 456 l 903 456 l 903 426 q 855 194 903 293 q 719 41 806 96 q 513 -13 631 -13 m 503 1187 q 481 1196 490 1187 q 471 1219 471 1205 q 481 1241 471 1232 q 503 1251 490 1251 q 526 1241 517 1251 q 535 1219 535 1232 q 526 1196 535 1206 q 503 1187 517 1187 z "},"Ģ":{"ha":1006,"x_min":91,"x_max":903,"o":"m 513 -13 q 290 52 385 -13 q 143 234 195 117 q 91 505 91 351 q 143 777 91 661 q 290 959 196 894 q 510 1023 385 1023 q 666 993 598 1023 q 783 913 734 962 q 859 806 831 864 q 897 694 888 749 l 865 694 q 828 799 856 746 q 756 895 801 851 q 649 965 711 939 q 510 992 587 992 q 307 931 394 992 q 171 761 219 871 q 122 505 122 651 q 170 251 122 361 q 306 80 218 141 q 513 18 394 18 q 704 68 623 18 q 828 212 784 119 q 872 431 872 304 l 886 425 l 522 425 l 522 456 l 903 456 l 903 426 q 855 194 903 293 q 719 41 806 96 q 513 -13 631 -13 m 419 -335 l 484 -80 l 518 -80 l 445 -335 l 419 -335 z "},"Ǧ":{"ha":1006,"x_min":91,"x_max":903,"o":"m 513 -13 q 290 52 385 -13 q 143 234 195 117 q 91 505 91 351 q 143 777 91 661 q 290 959 196 894 q 510 1023 385 1023 q 666 993 598 1023 q 783 913 734 962 q 859 806 831 864 q 897 694 888 749 l 865 694 q 828 799 856 746 q 756 895 801 851 q 649 965 711 939 q 510 992 587 992 q 307 931 394 992 q 171 761 219 871 q 122 505 122 651 q 170 251 122 361 q 306 80 218 141 q 513 18 394 18 q 704 68 623 18 q 828 212 784 119 q 872 431 872 304 l 886 425 l 522 425 l 522 456 l 903 456 l 903 426 q 855 194 903 293 q 719 41 806 96 q 513 -13 631 -13 m 355 1312 l 503 1158 l 650 1312 l 689 1312 l 689 1308 l 509 1122 l 496 1122 l 318 1308 l 318 1312 l 355 1312 z "},"Ǵ":{"ha":1006,"x_min":91,"x_max":903,"o":"m 513 -13 q 290 52 385 -13 q 143 234 195 117 q 91 505 91 351 q 143 777 91 661 q 290 959 196 894 q 510 1023 385 1023 q 666 993 598 1023 q 783 913 734 962 q 859 806 831 864 q 897 694 888 749 l 865 694 q 828 799 856 746 q 756 895 801 851 q 649 965 711 939 q 510 992 587 992 q 307 931 394 992 q 171 761 219 871 q 122 505 122 651 q 170 251 122 361 q 306 80 218 141 q 513 18 394 18 q 704 68 623 18 q 828 212 784 119 q 872 431 872 304 l 886 425 l 522 425 l 522 456 l 903 456 l 903 426 q 855 194 903 293 q 719 41 806 96 q 513 -13 631 -13 m 487 1118 l 585 1308 l 625 1308 l 517 1118 l 487 1118 z "},"Ḡ":{"ha":1006,"x_min":91,"x_max":903,"o":"m 513 -13 q 290 52 385 -13 q 143 234 195 117 q 91 505 91 351 q 143 777 91 661 q 290 959 196 894 q 510 1023 385 1023 q 666 993 598 1023 q 783 913 734 962 q 859 806 831 864 q 897 694 888 749 l 865 694 q 828 799 856 746 q 756 895 801 851 q 649 965 711 939 q 510 992 587 992 q 307 931 394 992 q 171 761 219 871 q 122 505 122 651 q 170 251 122 361 q 306 80 218 141 q 513 18 394 18 q 704 68 623 18 q 828 212 784 119 q 872 431 872 304 l 886 425 l 522 425 l 522 456 l 903 456 l 903 426 q 855 194 903 293 q 719 41 806 96 q 513 -13 631 -13 m 661 1234 l 661 1203 l 345 1203 l 345 1234 l 661 1234 z "},"":{"ha":1025,"x_min":91,"x_max":903,"o":"m 513 -13 q 290 52 385 -13 q 143 234 195 117 q 91 505 91 351 q 143 777 91 661 q 290 959 196 894 q 510 1023 385 1023 q 666 993 598 1023 q 783 913 734 962 q 859 806 831 864 q 897 694 888 749 l 865 694 q 828 799 856 746 q 756 895 801 851 q 649 965 711 939 q 510 992 587 992 q 307 931 394 992 q 171 761 219 871 q 122 505 122 651 q 170 251 122 361 q 306 80 218 141 q 513 18 394 18 q 704 68 623 18 q 830 212 785 119 q 874 431 874 304 l 897 431 l 897 426 q 870 245 897 326 q 793 106 843 164 q 672 18 743 49 q 513 -13 602 -13 m 878 0 l 874 310 l 880 425 l 522 425 l 522 456 l 903 456 l 903 0 l 878 0 z "},"":{"ha":1025,"x_min":91,"x_max":985,"o":"m 513 -13 q 290 52 385 -13 q 143 234 195 117 q 91 505 91 351 q 143 777 91 661 q 290 959 196 894 q 510 1023 385 1023 q 666 993 598 1023 q 783 913 734 962 q 859 806 831 864 q 897 694 888 749 l 865 694 q 828 799 856 746 q 756 895 801 851 q 649 965 711 939 q 510 992 587 992 q 307 931 394 992 q 171 761 219 871 q 122 505 122 651 q 170 251 122 361 q 306 80 218 141 q 513 18 394 18 q 704 68 623 18 q 830 212 785 119 q 874 431 874 304 l 897 431 l 897 426 q 870 245 897 326 q 793 106 843 164 q 672 18 743 49 q 513 -13 602 -13 m 878 0 l 874 310 l 880 425 l 522 425 l 522 456 l 903 456 l 903 0 l 878 0 m 522 224 l 522 255 l 985 255 l 985 224 l 522 224 z "},"":{"ha":1025,"x_min":91,"x_max":1039,"o":"m 865 694 l 865 1002 q 897 1104 865 1072 q 990 1137 928 1137 q 1014 1137 1000 1137 q 1039 1137 1027 1137 l 1039 1105 q 1013 1105 1026 1105 q 990 1105 999 1105 q 919 1082 941 1105 q 897 1002 897 1058 l 897 694 l 865 694 m 513 -13 q 290 52 385 -13 q 143 234 195 117 q 91 505 91 351 q 143 777 91 661 q 290 959 196 894 q 510 1023 385 1023 q 666 993 598 1023 q 783 913 734 962 q 859 806 831 864 q 897 694 888 749 l 865 694 q 828 799 856 746 q 756 895 801 851 q 649 965 711 939 q 510 992 587 992 q 307 931 394 992 q 171 761 219 871 q 122 505 122 651 q 170 251 122 361 q 306 80 218 141 q 513 18 394 18 q 704 68 623 18 q 830 212 785 119 q 874 431 874 304 l 897 431 l 897 426 q 870 245 897 326 q 793 106 843 164 q 672 18 743 49 q 513 -13 602 -13 m 878 0 l 874 310 l 880 425 l 522 425 l 522 456 l 903 456 l 903 0 l 878 0 z "},"":{"ha":1025,"x_min":91,"x_max":903,"o":"m 513 -13 q 290 52 385 -13 q 143 234 195 117 q 91 505 91 351 q 143 777 91 661 q 290 959 196 894 q 510 1023 385 1023 q 666 993 598 1023 q 783 913 734 962 q 859 806 831 864 q 897 694 888 749 l 865 694 q 828 799 856 746 q 756 895 801 851 q 649 965 711 939 q 510 992 587 992 q 307 931 394 992 q 171 761 219 871 q 122 505 122 651 q 170 251 122 361 q 306 80 218 141 q 513 18 394 18 q 704 68 623 18 q 830 212 785 119 q 874 431 874 304 l 897 431 l 897 426 q 870 245 897 326 q 793 106 843 164 q 672 18 743 49 q 513 -13 602 -13 m 878 0 l 874 310 l 880 425 l 522 425 l 522 456 l 903 456 l 903 0 l 878 0 m 355 1126 l 318 1126 l 318 1129 l 496 1314 l 509 1314 l 689 1129 l 689 1126 l 650 1126 l 503 1279 l 355 1126 z "},"":{"ha":1025,"x_min":91,"x_max":903,"o":"m 513 -13 q 290 52 385 -13 q 143 234 195 117 q 91 505 91 351 q 143 777 91 661 q 290 959 196 894 q 510 1023 385 1023 q 666 993 598 1023 q 783 913 734 962 q 859 806 831 864 q 897 694 888 749 l 865 694 q 828 799 856 746 q 756 895 801 851 q 649 965 711 939 q 510 992 587 992 q 307 931 394 992 q 171 761 219 871 q 122 505 122 651 q 170 251 122 361 q 306 80 218 141 q 513 18 394 18 q 704 68 623 18 q 830 212 785 119 q 874 431 874 304 l 897 431 l 897 426 q 870 245 897 326 q 793 106 843 164 q 672 18 743 49 q 513 -13 602 -13 m 878 0 l 874 310 l 880 425 l 522 425 l 522 456 l 903 456 l 903 0 l 878 0 m 503 1117 q 413 1141 454 1117 q 349 1205 373 1165 q 326 1295 326 1246 l 357 1295 q 400 1190 357 1233 q 503 1147 443 1147 q 607 1190 564 1147 q 650 1295 650 1233 l 681 1295 q 657 1205 681 1246 q 593 1141 633 1165 q 503 1117 553 1117 z "},"":{"ha":1025,"x_min":91,"x_max":903,"o":"m 513 -13 q 290 52 385 -13 q 143 234 195 117 q 91 505 91 351 q 143 777 91 661 q 290 959 196 894 q 510 1023 385 1023 q 666 993 598 1023 q 783 913 734 962 q 859 806 831 864 q 897 694 888 749 l 865 694 q 828 799 856 746 q 756 895 801 851 q 649 965 711 939 q 510 992 587 992 q 307 931 394 992 q 171 761 219 871 q 122 505 122 651 q 170 251 122 361 q 306 80 218 141 q 513 18 394 18 q 704 68 623 18 q 830 212 785 119 q 874 431 874 304 l 897 431 l 897 426 q 870 245 897 326 q 793 106 843 164 q 672 18 743 49 q 513 -13 602 -13 m 878 0 l 874 310 l 880 425 l 522 425 l 522 456 l 903 456 l 903 0 l 878 0 m 503 1187 q 481 1196 490 1187 q 471 1219 471 1205 q 481 1241 471 1232 q 503 1251 490 1251 q 526 1241 517 1251 q 535 1219 535 1232 q 526 1196 535 1206 q 503 1187 517 1187 z "},"":{"ha":1025,"x_min":91,"x_max":903,"o":"m 513 -13 q 290 52 385 -13 q 143 234 195 117 q 91 505 91 351 q 143 777 91 661 q 290 959 196 894 q 510 1023 385 1023 q 666 993 598 1023 q 783 913 734 962 q 859 806 831 864 q 897 694 888 749 l 865 694 q 828 799 856 746 q 756 895 801 851 q 649 965 711 939 q 510 992 587 992 q 307 931 394 992 q 171 761 219 871 q 122 505 122 651 q 170 251 122 361 q 306 80 218 141 q 513 18 394 18 q 704 68 623 18 q 830 212 785 119 q 874 431 874 304 l 897 431 l 897 426 q 870 245 897 326 q 793 106 843 164 q 672 18 743 49 q 513 -13 602 -13 m 878 0 l 874 310 l 880 425 l 522 425 l 522 456 l 903 456 l 903 0 l 878 0 m 419 -335 l 484 -80 l 518 -80 l 445 -335 l 419 -335 z "},"":{"ha":1025,"x_min":91,"x_max":903,"o":"m 513 -13 q 290 52 385 -13 q 143 234 195 117 q 91 505 91 351 q 143 777 91 661 q 290 959 196 894 q 510 1023 385 1023 q 666 993 598 1023 q 783 913 734 962 q 859 806 831 864 q 897 694 888 749 l 865 694 q 828 799 856 746 q 756 895 801 851 q 649 965 711 939 q 510 992 587 992 q 307 931 394 992 q 171 761 219 871 q 122 505 122 651 q 170 251 122 361 q 306 80 218 141 q 513 18 394 18 q 704 68 623 18 q 830 212 785 119 q 874 431 874 304 l 897 431 l 897 426 q 870 245 897 326 q 793 106 843 164 q 672 18 743 49 q 513 -13 602 -13 m 878 0 l 874 310 l 880 425 l 522 425 l 522 456 l 903 456 l 903 0 l 878 0 m 355 1312 l 503 1158 l 650 1312 l 689 1312 l 689 1308 l 509 1122 l 496 1122 l 318 1308 l 318 1312 l 355 1312 z "},"":{"ha":1025,"x_min":91,"x_max":903,"o":"m 513 -13 q 290 52 385 -13 q 143 234 195 117 q 91 505 91 351 q 143 777 91 661 q 290 959 196 894 q 510 1023 385 1023 q 666 993 598 1023 q 783 913 734 962 q 859 806 831 864 q 897 694 888 749 l 865 694 q 828 799 856 746 q 756 895 801 851 q 649 965 711 939 q 510 992 587 992 q 307 931 394 992 q 171 761 219 871 q 122 505 122 651 q 170 251 122 361 q 306 80 218 141 q 513 18 394 18 q 704 68 623 18 q 830 212 785 119 q 874 431 874 304 l 897 431 l 897 426 q 870 245 897 326 q 793 106 843 164 q 672 18 743 49 q 513 -13 602 -13 m 878 0 l 874 310 l 880 425 l 522 425 l 522 456 l 903 456 l 903 0 l 878 0 m 487 1118 l 585 1308 l 625 1308 l 517 1118 l 487 1118 z "},"":{"ha":1025,"x_min":91,"x_max":903,"o":"m 513 -13 q 290 52 385 -13 q 143 234 195 117 q 91 505 91 351 q 143 777 91 661 q 290 959 196 894 q 510 1023 385 1023 q 666 993 598 1023 q 783 913 734 962 q 859 806 831 864 q 897 694 888 749 l 865 694 q 828 799 856 746 q 756 895 801 851 q 649 965 711 939 q 510 992 587 992 q 307 931 394 992 q 171 761 219 871 q 122 505 122 651 q 170 251 122 361 q 306 80 218 141 q 513 18 394 18 q 704 68 623 18 q 830 212 785 119 q 874 431 874 304 l 897 431 l 897 426 q 870 245 897 326 q 793 106 843 164 q 672 18 743 49 q 513 -13 602 -13 m 878 0 l 874 310 l 880 425 l 522 425 l 522 456 l 903 456 l 903 0 l 878 0 m 661 1234 l 661 1203 l 345 1203 l 345 1234 l 661 1234 z "},"H":{"ha":1001,"x_min":148,"x_max":853,"o":"m 148 0 l 148 1010 l 179 1010 l 179 532 l 822 532 l 822 1010 l 853 1010 l 853 0 l 822 0 l 822 500 l 179 500 l 179 0 l 148 0 z "},"Ḩ":{"ha":1001,"x_min":101,"x_max":853,"o":"m 148 0 l 148 1010 l 179 1010 l 179 532 l 822 532 l 822 1010 l 853 1010 l 853 0 l 822 0 l 822 500 l 179 500 l 179 0 l 148 0 m 101 -283 l 101 -252 l 168 -252 q 235 -232 211 -252 q 259 -177 259 -212 q 235 -122 259 -142 q 163 -101 211 -101 l 123 -101 l 150 13 l 179 13 l 179 0 l 162 -70 q 256 -100 222 -71 q 290 -177 290 -128 q 257 -255 290 -226 q 168 -283 224 -283 l 101 -283 z "},"Ĥ":{"ha":1001,"x_min":148,"x_max":853,"o":"m 148 0 l 148 1010 l 179 1010 l 179 532 l 822 532 l 822 1010 l 853 1010 l 853 0 l 822 0 l 822 500 l 179 500 l 179 0 l 148 0 m 353 1126 l 315 1126 l 315 1129 l 494 1314 l 507 1314 l 686 1129 l 686 1126 l 648 1126 l 500 1279 l 353 1126 z "},"Ȟ":{"ha":1001,"x_min":148,"x_max":853,"o":"m 148 0 l 148 1010 l 179 1010 l 179 532 l 822 532 l 822 1010 l 853 1010 l 853 0 l 822 0 l 822 500 l 179 500 l 179 0 l 148 0 m 353 1312 l 500 1158 l 648 1312 l 686 1312 l 686 1308 l 507 1122 l 494 1122 l 315 1308 l 315 1312 l 353 1312 z "},"Ḣ":{"ha":1001,"x_min":148,"x_max":853,"o":"m 148 0 l 148 1010 l 179 1010 l 179 532 l 822 532 l 822 1010 l 853 1010 l 853 0 l 822 0 l 822 500 l 179 500 l 179 0 l 148 0 m 500 1187 q 478 1196 488 1187 q 469 1219 469 1205 q 478 1241 469 1232 q 500 1251 488 1251 q 523 1241 514 1251 q 532 1219 532 1232 q 523 1196 532 1206 q 500 1187 514 1187 z "},"Ḥ":{"ha":1001,"x_min":148,"x_max":853,"o":"m 148 0 l 148 1010 l 179 1010 l 179 532 l 822 532 l 822 1010 l 853 1010 l 853 0 l 822 0 l 822 500 l 179 500 l 179 0 l 148 0 m 500 -220 q 478 -211 488 -220 q 469 -189 469 -202 q 478 -166 469 -175 q 500 -157 488 -157 q 523 -166 514 -157 q 532 -189 532 -175 q 523 -211 532 -201 q 500 -220 514 -220 z "},"Ḧ":{"ha":1001,"x_min":148,"x_max":853,"o":"m 148 0 l 148 1010 l 179 1010 l 179 532 l 822 532 l 822 1010 l 853 1010 l 853 0 l 822 0 l 822 500 l 179 500 l 179 0 l 148 0 m 637 1187 q 615 1196 625 1187 q 606 1219 606 1206 q 615 1241 606 1232 q 637 1251 625 1251 q 660 1241 651 1251 q 669 1219 669 1232 q 660 1196 669 1206 q 637 1187 651 1187 m 363 1187 q 341 1196 351 1187 q 332 1219 332 1206 q 341 1241 332 1232 q 363 1251 351 1251 q 386 1241 377 1251 q 395 1219 395 1232 q 386 1196 395 1206 q 363 1187 377 1187 z "},"Ḫ":{"ha":1001,"x_min":148,"x_max":853,"o":"m 148 0 l 148 1010 l 179 1010 l 179 532 l 822 532 l 822 1010 l 853 1010 l 853 0 l 822 0 l 822 500 l 179 500 l 179 0 l 148 0 m 500 -292 q 411 -268 451 -292 q 347 -203 370 -243 q 323 -114 323 -163 l 354 -114 q 397 -218 354 -176 q 500 -261 440 -261 q 604 -218 561 -261 q 647 -114 647 -176 l 678 -114 q 654 -203 678 -163 q 591 -268 631 -243 q 500 -292 551 -292 z "},"Ħ":{"ha":1017,"x_min":77,"x_max":941,"o":"m 941 732 l 941 700 l 77 700 l 77 732 l 941 732 m 157 0 l 157 1010 l 188 1010 l 188 532 l 831 532 l 831 1010 l 862 1010 l 862 0 l 831 0 l 831 500 l 188 500 l 188 0 l 157 0 z "},"Ӈ":{"ha":1001,"x_min":148,"x_max":853,"o":"m 680 -283 l 680 -252 q 706 -252 692 -252 q 728 -252 720 -252 q 800 -229 777 -252 q 822 -149 822 -205 l 822 87 l 853 87 l 853 -149 q 822 -251 853 -218 q 728 -283 791 -283 q 705 -283 720 -283 q 680 -283 691 -283 m 148 0 l 148 1010 l 179 1010 l 179 532 l 822 532 l 822 1010 l 853 1010 l 853 0 l 822 0 l 822 500 l 179 500 l 179 0 l 148 0 z "},"Ң":{"ha":1008,"x_min":148,"x_max":948,"o":"m 148 0 l 148 1010 l 179 1010 l 179 532 l 822 532 l 822 1010 l 853 1010 l 853 0 l 822 0 l 822 500 l 179 500 l 179 0 l 148 0 m 917 -217 l 917 0 l 844 0 l 844 31 l 948 31 l 948 -217 l 917 -217 z "},"Ӊ":{"ha":1001,"x_min":148,"x_max":962,"o":"m 148 0 l 148 1010 l 179 1010 l 179 532 l 822 532 l 822 1010 l 853 1010 l 853 0 l 822 0 l 822 500 l 179 500 l 179 0 l 148 0 m 830 -217 l 917 0 l 831 0 l 831 31 l 962 31 l 862 -217 l 830 -217 z "},"Ҥ":{"ha":1324,"x_min":148,"x_max":1248,"o":"m 1248 1010 l 1248 978 l 825 978 l 825 1010 l 1248 1010 m 148 0 l 148 1010 l 179 1010 l 179 532 l 822 532 l 822 1010 l 853 1010 l 853 0 l 822 0 l 822 500 l 179 500 l 179 0 l 148 0 z "},"Ƕ":{"ha":1513,"x_min":148,"x_max":1389,"o":"m 1109 -15 q 961 19 1025 -14 q 859 119 896 52 q 823 289 823 186 l 823 492 l 180 492 l 180 0 l 148 0 l 148 1010 l 180 1010 l 180 524 l 823 524 l 823 1010 l 854 1010 l 854 289 q 884 138 854 199 q 972 47 915 78 q 1109 17 1029 17 q 1244 47 1189 17 q 1328 138 1299 78 q 1356 289 1356 199 l 1356 764 l 1389 764 l 1389 289 q 1352 116 1389 182 q 1253 17 1316 49 q 1109 -15 1190 -14 z "},"Η":{"ha":1001,"x_min":148,"x_max":853,"o":"m 148 0 l 148 1010 l 179 1010 l 179 532 l 822 532 l 822 1010 l 853 1010 l 853 0 l 822 0 l 822 500 l 179 500 l 179 0 l 148 0 z "},"Ή":{"ha":1084,"x_min":77,"x_max":937,"o":"m 232 0 l 232 1010 l 263 1010 l 263 532 l 906 532 l 906 1010 l 937 1010 l 937 0 l 906 0 l 906 500 l 263 500 l 263 0 l 232 0 m 77 821 l 102 1010 l 136 1010 l 102 821 l 77 821 z "},"Ἠ":{"ha":1190,"x_min":77,"x_max":1042,"o":"m 337 0 l 337 1010 l 368 1010 l 368 532 l 1011 532 l 1011 1010 l 1042 1010 l 1042 0 l 1011 0 l 1011 500 l 368 500 l 368 0 l 337 0 m 109 819 l 98 819 l 98 850 l 109 850 q 174 870 149 850 q 198 922 198 890 q 174 971 198 954 q 109 988 149 988 l 77 988 l 77 1019 l 109 1019 q 196 994 162 1019 q 229 922 229 968 q 196 847 229 876 q 109 819 162 819 z "},"Ἡ":{"ha":1192,"x_min":77,"x_max":1044,"o":"m 340 0 l 340 1010 l 371 1010 l 371 532 l 1014 532 l 1014 1010 l 1045 1010 l 1045 0 l 1014 0 l 1014 500 l 371 500 l 371 0 l 340 0 m 197 814 q 110 843 144 814 q 77 918 77 872 q 110 989 77 964 q 197 1015 144 1015 l 229 1015 l 229 984 l 197 984 q 133 967 157 984 q 108 918 108 949 q 133 866 108 886 q 197 846 157 846 l 208 846 l 208 814 l 197 814 z "},"Ἢ":{"ha":1323,"x_min":77,"x_max":1175,"o":"m 471 0 l 471 1010 l 502 1010 l 502 532 l 1145 532 l 1145 1010 l 1176 1010 l 1176 0 l 1145 0 l 1145 500 l 502 500 l 502 0 l 471 0 m 109 814 l 98 814 l 98 846 l 109 846 q 174 866 149 846 q 198 918 198 886 q 174 967 198 949 q 109 984 149 984 l 77 984 l 77 1015 l 109 1015 q 196 989 162 1015 q 229 918 229 964 q 196 843 229 872 q 109 814 162 814 m 343 821 l 317 821 l 283 1010 l 317 1010 l 343 821 z "},"Ἣ":{"ha":1332,"x_min":77,"x_max":1184,"o":"m 479 0 l 479 1010 l 510 1010 l 510 532 l 1153 532 l 1153 1010 l 1184 1010 l 1184 0 l 1153 0 l 1153 500 l 510 500 l 510 0 l 479 0 m 197 814 q 110 843 144 814 q 77 918 77 872 q 110 989 77 964 q 197 1015 144 1015 l 229 1015 l 229 984 l 197 984 q 133 967 157 984 q 108 918 108 949 q 133 866 108 886 q 197 846 157 846 l 208 846 l 208 814 l 197 814 m 365 821 l 339 821 l 305 1010 l 338 1010 l 365 821 z "},"Ἤ":{"ha":1322,"x_min":77,"x_max":1175,"o":"m 469 0 l 469 1010 l 500 1010 l 500 532 l 1143 532 l 1143 1010 l 1175 1010 l 1175 0 l 1143 0 l 1143 500 l 500 500 l 500 0 l 469 0 m 109 814 l 98 814 l 98 846 l 109 846 q 174 866 149 846 q 198 918 198 886 q 174 967 198 949 q 109 984 149 984 l 77 984 l 77 1015 l 109 1015 q 196 989 162 1015 q 229 918 229 964 q 196 843 229 872 q 109 814 162 814 m 307 821 l 332 1010 l 366 1010 l 332 821 l 307 821 z "},"Ἥ":{"ha":1326,"x_min":77,"x_max":1179,"o":"m 473 0 l 473 1010 l 505 1010 l 505 532 l 1147 532 l 1147 1010 l 1179 1010 l 1179 0 l 1147 0 l 1147 500 l 505 500 l 505 0 l 473 0 m 197 814 q 110 843 144 814 q 77 918 77 872 q 110 989 77 964 q 197 1015 144 1015 l 229 1015 l 229 984 l 197 984 q 133 967 157 984 q 108 918 108 949 q 133 866 108 886 q 197 846 157 846 l 208 846 l 208 814 l 197 814 m 315 821 l 341 1010 l 374 1010 l 340 821 l 315 821 z "},"Ἦ":{"ha":1304,"x_min":77,"x_max":1156,"o":"m 451 0 l 451 1010 l 482 1010 l 482 532 l 1125 532 l 1125 1010 l 1156 1010 l 1156 0 l 1125 0 l 1125 500 l 482 500 l 482 0 l 451 0 m 221 810 l 210 810 l 210 841 l 221 841 q 286 861 261 841 q 310 913 310 882 q 286 962 310 945 q 221 979 261 979 l 189 979 l 189 1010 l 221 1010 q 308 985 274 1010 q 341 913 341 959 q 308 839 341 867 q 221 810 274 810 m 353 1084 q 303 1097 324 1084 q 264 1124 282 1109 q 229 1152 247 1140 q 186 1164 210 1164 q 132 1144 153 1164 q 108 1089 111 1124 l 77 1089 q 109 1165 81 1135 q 181 1196 138 1196 q 235 1183 213 1196 q 275 1156 257 1171 q 309 1128 292 1140 q 347 1116 326 1116 q 395 1133 376 1116 q 422 1188 414 1149 l 454 1188 q 418 1112 446 1140 q 353 1084 391 1084 z "},"Ἧ":{"ha":1303,"x_min":77,"x_max":1156,"o":"m 451 0 l 451 1010 l 482 1010 l 482 532 l 1125 532 l 1125 1010 l 1156 1010 l 1156 0 l 1125 0 l 1125 500 l 482 500 l 482 0 l 451 0 m 309 810 q 222 839 256 810 q 189 913 189 867 q 222 985 189 959 q 309 1010 256 1010 l 341 1010 l 341 979 l 309 979 q 244 962 269 979 q 220 913 220 945 q 244 861 220 882 q 309 841 269 841 l 319 841 l 319 810 l 309 810 m 353 1084 q 303 1097 324 1084 q 264 1124 282 1109 q 229 1152 247 1140 q 186 1164 210 1164 q 132 1144 153 1164 q 108 1089 111 1124 l 77 1089 q 109 1165 81 1135 q 181 1196 138 1196 q 235 1183 213 1196 q 275 1156 257 1171 q 309 1128 292 1140 q 347 1116 326 1116 q 395 1133 376 1116 q 422 1188 414 1149 l 454 1188 q 418 1112 446 1140 q 353 1084 391 1084 z "},"Ὴ":{"ha":1057,"x_min":-16,"x_max":909,"o":"m 204 0 l 204 1010 l 235 1010 l 235 532 l 878 532 l 878 1010 l 909 1010 l 909 0 l 878 0 l 878 500 l 235 500 l 235 0 l 204 0 m 43 851 l 18 851 l -16 1040 l 17 1040 l 43 851 z "},"Ή":{"ha":1084,"x_min":77,"x_max":937,"o":"m 232 0 l 232 1010 l 263 1010 l 263 532 l 906 532 l 906 1010 l 937 1010 l 937 0 l 906 0 l 906 500 l 263 500 l 263 0 l 232 0 m 77 821 l 102 1010 l 136 1010 l 102 821 l 77 821 z "},"Н":{"ha":1001,"x_min":148,"x_max":853,"o":"m 148 0 l 148 1010 l 179 1010 l 179 532 l 822 532 l 822 1010 l 853 1010 l 853 0 l 822 0 l 822 500 l 179 500 l 179 0 l 148 0 z "},"ᾘ":{"ha":1190,"x_min":77,"x_max":1042,"o":"m 337 0 l 337 1010 l 368 1010 l 368 532 l 1011 532 l 1011 1010 l 1042 1010 l 1042 0 l 1011 0 l 1011 500 l 368 500 l 368 0 l 337 0 m 742 -293 q 693 -271 711 -293 q 674 -216 674 -250 l 674 -63 l 705 -63 l 705 -216 q 716 -251 705 -237 q 744 -264 726 -264 q 754 -263 748 -264 q 766 -262 760 -262 l 770 -290 q 756 -292 764 -291 q 742 -293 749 -293 m 109 819 l 98 819 l 98 850 l 109 850 q 174 870 149 850 q 198 922 198 890 q 174 971 198 954 q 109 988 149 988 l 77 988 l 77 1019 l 109 1019 q 196 994 162 1019 q 229 922 229 968 q 196 847 229 876 q 109 819 162 819 z "},"ᾙ":{"ha":1192,"x_min":77,"x_max":1044,"o":"m 340 0 l 340 1010 l 371 1010 l 371 532 l 1014 532 l 1014 1010 l 1045 1010 l 1045 0 l 1014 0 l 1014 500 l 371 500 l 371 0 l 340 0 m 745 -293 q 695 -271 714 -293 q 677 -216 677 -250 l 677 -63 l 708 -63 l 708 -216 q 719 -251 708 -237 q 747 -264 729 -264 q 757 -263 751 -264 q 768 -262 763 -262 l 773 -290 q 759 -292 767 -291 q 745 -293 751 -293 m 197 814 q 110 843 144 814 q 77 918 77 872 q 110 989 77 964 q 197 1015 144 1015 l 229 1015 l 229 984 l 197 984 q 133 967 157 984 q 108 918 108 949 q 133 866 108 886 q 197 846 157 846 l 208 846 l 208 814 l 197 814 z "},"ᾚ":{"ha":1323,"x_min":77,"x_max":1175,"o":"m 471 0 l 471 1010 l 502 1010 l 502 532 l 1145 532 l 1145 1010 l 1176 1010 l 1176 0 l 1145 0 l 1145 500 l 502 500 l 502 0 l 471 0 m 876 -293 q 826 -271 845 -293 q 808 -216 808 -250 l 808 -63 l 839 -63 l 839 -216 q 849 -251 839 -237 q 878 -264 860 -264 q 888 -263 882 -264 q 899 -262 894 -262 l 904 -290 q 890 -292 898 -291 q 876 -293 882 -293 m 109 814 l 98 814 l 98 846 l 109 846 q 174 866 149 846 q 198 918 198 886 q 174 967 198 949 q 109 984 149 984 l 77 984 l 77 1015 l 109 1015 q 196 989 162 1015 q 229 918 229 964 q 196 843 229 872 q 109 814 162 814 m 343 821 l 317 821 l 283 1010 l 317 1010 l 343 821 z "},"ᾛ":{"ha":1332,"x_min":77,"x_max":1184,"o":"m 479 0 l 479 1010 l 510 1010 l 510 532 l 1153 532 l 1153 1010 l 1184 1010 l 1184 0 l 1153 0 l 1153 500 l 510 500 l 510 0 l 479 0 m 884 -293 q 834 -271 853 -293 q 816 -216 816 -250 l 816 -63 l 847 -63 l 847 -216 q 858 -251 847 -237 q 886 -264 868 -264 q 896 -263 890 -264 q 907 -262 902 -262 l 912 -290 q 898 -292 906 -291 q 884 -293 890 -293 m 197 814 q 110 843 144 814 q 77 918 77 872 q 110 989 77 964 q 197 1015 144 1015 l 229 1015 l 229 984 l 197 984 q 133 967 157 984 q 108 918 108 949 q 133 866 108 886 q 197 846 157 846 l 208 846 l 208 814 l 197 814 m 365 821 l 339 821 l 305 1010 l 338 1010 l 365 821 z "},"ᾜ":{"ha":1322,"x_min":77,"x_max":1175,"o":"m 469 0 l 469 1010 l 500 1010 l 500 532 l 1143 532 l 1143 1010 l 1175 1010 l 1175 0 l 1143 0 l 1143 500 l 500 500 l 500 0 l 469 0 m 874 -293 q 825 -271 844 -293 q 806 -216 806 -250 l 806 -63 l 838 -63 l 838 -216 q 848 -251 838 -237 q 876 -264 859 -264 q 886 -263 880 -264 q 898 -262 892 -262 l 903 -290 q 889 -292 897 -291 q 874 -293 881 -293 m 109 814 l 98 814 l 98 846 l 109 846 q 174 866 149 846 q 198 918 198 886 q 174 967 198 949 q 109 984 149 984 l 77 984 l 77 1015 l 109 1015 q 196 989 162 1015 q 229 918 229 964 q 196 843 229 872 q 109 814 162 814 m 307 821 l 332 1010 l 366 1010 l 332 821 l 307 821 z "},"ᾝ":{"ha":1326,"x_min":77,"x_max":1179,"o":"m 473 0 l 473 1010 l 505 1010 l 505 532 l 1147 532 l 1147 1010 l 1179 1010 l 1179 0 l 1147 0 l 1147 500 l 505 500 l 505 0 l 473 0 m 878 -293 q 829 -271 848 -293 q 810 -216 810 -250 l 810 -63 l 842 -63 l 842 -216 q 852 -251 842 -237 q 880 -264 863 -264 q 890 -263 884 -264 q 902 -262 897 -262 l 907 -290 q 893 -292 901 -291 q 878 -293 885 -293 m 197 814 q 110 843 144 814 q 77 918 77 872 q 110 989 77 964 q 197 1015 144 1015 l 229 1015 l 229 984 l 197 984 q 133 967 157 984 q 108 918 108 949 q 133 866 108 886 q 197 846 157 846 l 208 846 l 208 814 l 197 814 m 315 821 l 341 1010 l 374 1010 l 340 821 l 315 821 z "},"ᾞ":{"ha":1304,"x_min":77,"x_max":1156,"o":"m 451 0 l 451 1010 l 482 1010 l 482 532 l 1125 532 l 1125 1010 l 1156 1010 l 1156 0 l 1125 0 l 1125 500 l 482 500 l 482 0 l 451 0 m 856 -293 q 807 -271 825 -293 q 788 -216 788 -250 l 788 -63 l 819 -63 l 819 -216 q 830 -251 819 -237 q 858 -264 840 -264 q 868 -263 862 -264 q 880 -262 874 -262 l 884 -290 q 870 -292 878 -291 q 856 -293 863 -293 m 221 810 l 210 810 l 210 841 l 221 841 q 286 861 261 841 q 310 913 310 882 q 286 962 310 945 q 221 979 261 979 l 189 979 l 189 1010 l 221 1010 q 308 985 274 1010 q 341 913 341 959 q 308 839 341 867 q 221 810 274 810 m 353 1084 q 303 1097 324 1084 q 264 1124 282 1109 q 229 1152 247 1140 q 186 1164 210 1164 q 132 1144 153 1164 q 108 1089 111 1124 l 77 1089 q 109 1165 81 1135 q 181 1196 138 1196 q 235 1183 213 1196 q 275 1156 257 1171 q 309 1128 292 1140 q 347 1116 326 1116 q 395 1133 376 1116 q 422 1188 414 1149 l 454 1188 q 418 1112 446 1140 q 353 1084 391 1084 z "},"ᾟ":{"ha":1303,"x_min":77,"x_max":1156,"o":"m 451 0 l 451 1010 l 482 1010 l 482 532 l 1125 532 l 1125 1010 l 1156 1010 l 1156 0 l 1125 0 l 1125 500 l 482 500 l 482 0 l 451 0 m 856 -293 q 807 -271 825 -293 q 788 -216 788 -250 l 788 -63 l 819 -63 l 819 -216 q 830 -251 819 -237 q 858 -264 840 -264 q 868 -263 862 -264 q 880 -262 874 -262 l 884 -290 q 870 -292 878 -291 q 856 -293 863 -293 m 309 810 q 222 839 256 810 q 189 913 189 867 q 222 985 189 959 q 309 1010 256 1010 l 341 1010 l 341 979 l 309 979 q 244 962 269 979 q 220 913 220 945 q 244 861 220 882 q 309 841 269 841 l 319 841 l 319 810 l 309 810 m 353 1084 q 303 1097 324 1084 q 264 1124 282 1109 q 229 1152 247 1140 q 186 1164 210 1164 q 132 1144 153 1164 q 108 1089 111 1124 l 77 1089 q 109 1165 81 1135 q 181 1196 138 1196 q 235 1183 213 1196 q 275 1156 257 1171 q 309 1128 292 1140 q 347 1116 326 1116 q 395 1133 376 1116 q 422 1188 414 1149 l 454 1188 q 418 1112 446 1140 q 353 1084 391 1084 z "},"ῌ":{"ha":1001,"x_min":148,"x_max":853,"o":"m 148 0 l 148 1010 l 179 1010 l 179 532 l 822 532 l 822 1010 l 853 1010 l 853 0 l 822 0 l 822 500 l 179 500 l 179 0 l 148 0 m 553 -293 q 504 -271 522 -293 q 485 -216 485 -250 l 485 -63 l 516 -63 l 516 -216 q 527 -251 516 -237 q 555 -264 537 -264 q 565 -263 559 -264 q 576 -262 571 -262 l 581 -290 q 567 -292 575 -291 q 553 -293 559 -293 z "},"I":{"ha":327,"x_min":148,"x_max":179,"o":"m 179 1010 l 179 0 l 148 0 l 148 1010 l 179 1010 z "},"":{"ha":653,"x_min":148,"x_max":505,"o":"m 179 1010 l 179 0 l 148 0 l 148 1010 l 179 1010 m 506 1010 l 506 0 l 475 0 l 475 1010 l 506 1010 z "},"Ï":{"ha":327,"x_min":-5,"x_max":332,"o":"m 179 1010 l 179 0 l 148 0 l 148 1010 l 179 1010 m 300 1187 q 278 1196 288 1187 q 269 1219 269 1206 q 278 1241 269 1232 q 300 1251 288 1251 q 323 1241 314 1251 q 332 1219 332 1232 q 323 1196 332 1206 q 300 1187 314 1187 m 26 1187 q 4 1196 14 1187 q -5 1219 -5 1206 q 4 1241 -5 1232 q 26 1251 14 1251 q 49 1241 40 1251 q 58 1219 58 1232 q 49 1196 58 1206 q 26 1187 40 1187 z "},"Ḯ":{"ha":327,"x_min":3,"x_max":340,"o":"m 179 1010 l 179 0 l 148 0 l 148 1010 l 179 1010 m 309 1164 q 286 1174 296 1164 q 277 1196 277 1183 q 286 1219 277 1210 q 309 1228 296 1228 q 331 1219 322 1228 q 340 1196 340 1210 q 331 1174 340 1183 q 309 1164 322 1164 m 35 1164 q 12 1174 22 1164 q 3 1196 3 1183 q 12 1219 3 1210 q 35 1228 22 1228 q 57 1219 48 1228 q 66 1196 66 1210 q 57 1174 66 1183 q 35 1164 48 1164 m 146 1343 l 256 1529 l 296 1529 l 178 1343 l 146 1343 z "},"Ɨ":{"ha":330,"x_min":14,"x_max":317,"o":"m 181 1010 l 181 0 l 150 0 l 150 1010 l 181 1010 m 14 506 l 14 536 l 317 536 l 317 506 l 14 506 z "},"Ḭ":{"ha":327,"x_min":-25,"x_max":352,"o":"m 179 1010 l 179 0 l 148 0 l 148 1010 l 179 1010 m 251 -244 q 201 -232 222 -244 q 163 -204 180 -220 q 127 -176 145 -189 q 85 -164 109 -164 q 31 -184 52 -164 q 6 -239 9 -204 l -25 -239 q 7 -163 -21 -193 q 79 -133 36 -133 q 133 -145 111 -133 q 173 -173 155 -157 q 208 -201 191 -189 q 245 -213 224 -213 q 293 -196 275 -213 q 320 -140 312 -179 l 352 -140 q 317 -216 344 -189 q 251 -244 290 -244 z "},"Ì":{"ha":327,"x_min":43,"x_max":182,"o":"m 179 1010 l 179 0 l 148 0 l 148 1010 l 179 1010 m 151 1118 l 43 1308 l 83 1308 l 182 1118 l 151 1118 z "},"Í":{"ha":327,"x_min":147,"x_max":285,"o":"m 179 1010 l 179 0 l 148 0 l 148 1010 l 179 1010 m 147 1118 l 245 1308 l 285 1308 l 178 1118 l 147 1118 z "},"Î":{"ha":327,"x_min":-22,"x_max":349,"o":"m 179 1010 l 179 0 l 148 0 l 148 1010 l 179 1010 m 16 1126 l -22 1126 l -22 1129 l 157 1314 l 170 1314 l 349 1129 l 349 1126 l 311 1126 l 163 1279 l 16 1126 z "},"Ĩ":{"ha":327,"x_min":-25,"x_max":352,"o":"m 179 1010 l 179 0 l 148 0 l 148 1010 l 179 1010 m 251 1163 q 201 1175 222 1163 q 163 1203 180 1187 q 127 1231 145 1219 q 85 1243 109 1243 q 31 1223 52 1243 q 6 1168 9 1203 l -25 1168 q 7 1244 -21 1214 q 79 1274 36 1274 q 133 1262 111 1274 q 173 1234 155 1250 q 208 1206 191 1219 q 245 1194 224 1194 q 293 1211 275 1194 q 320 1267 312 1228 l 352 1267 q 317 1191 344 1219 q 251 1163 290 1163 z "},"Ī":{"ha":327,"x_min":5,"x_max":321,"o":"m 179 1010 l 179 0 l 148 0 l 148 1010 l 179 1010 m 321 1234 l 321 1203 l 5 1203 l 5 1234 l 321 1234 z "},"Ĭ":{"ha":327,"x_min":-14,"x_max":341,"o":"m 179 1010 l 179 0 l 148 0 l 148 1010 l 179 1010 m 163 1117 q 74 1141 114 1117 q 9 1205 33 1165 q -14 1295 -14 1246 l 17 1295 q 60 1190 17 1233 q 163 1147 103 1147 q 267 1190 224 1147 q 310 1295 310 1233 l 341 1295 q 317 1205 341 1246 q 254 1141 294 1165 q 163 1117 214 1117 z "},"Į":{"ha":327,"x_min":22,"x_max":187,"o":"m 179 1010 l 179 0 l 148 0 l 148 1010 l 179 1010 m 142 -288 q 58 -261 93 -288 q 22 -182 22 -235 q 60 -82 22 -128 q 151 10 98 -35 l 179 0 q 90 -92 125 -48 q 54 -182 54 -136 q 80 -239 54 -222 q 142 -256 106 -256 q 161 -255 152 -256 q 178 -251 170 -254 l 187 -280 q 165 -286 176 -284 q 142 -288 154 -288 z "},"İ":{"ha":327,"x_min":132,"x_max":195,"o":"m 179 1010 l 179 0 l 148 0 l 148 1010 l 179 1010 m 163 1187 q 141 1196 151 1187 q 132 1219 132 1205 q 141 1241 132 1232 q 163 1251 151 1251 q 186 1241 177 1251 q 195 1219 195 1232 q 186 1196 195 1206 q 163 1187 177 1187 z "},"Ǐ":{"ha":327,"x_min":-22,"x_max":349,"o":"m 179 1010 l 179 0 l 148 0 l 148 1010 l 179 1010 m 16 1312 l 163 1158 l 311 1312 l 349 1312 l 349 1308 l 170 1122 l 157 1122 l -22 1308 l -22 1312 l 16 1312 z "},"Ȉ":{"ha":327,"x_min":-56,"x_max":269,"o":"m 179 1010 l 179 0 l 148 0 l 148 1010 l 179 1010 m 239 1118 l 142 1308 l 177 1308 l 270 1118 l 239 1118 m 63 1118 l -56 1308 l -18 1308 l 94 1118 l 63 1118 z "},"Ȋ":{"ha":327,"x_min":-14,"x_max":341,"o":"m 179 1010 l 179 0 l 148 0 l 148 1010 l 179 1010 m 163 1289 q 253 1267 213 1289 q 317 1208 294 1245 q 341 1126 341 1171 l 311 1126 q 268 1220 311 1181 q 163 1258 224 1258 q 58 1220 102 1258 q 15 1126 15 1181 l -14 1126 q 9 1208 -14 1171 q 74 1267 33 1245 q 163 1289 114 1289 z "},"Ỉ":{"ha":327,"x_min":79,"x_max":238,"o":"m 179 1010 l 179 0 l 148 0 l 148 1010 l 179 1010 m 179 1118 l 148 1118 l 184 1187 q 204 1255 208 1233 q 151 1278 199 1278 l 79 1278 l 79 1308 l 151 1308 q 204 1298 184 1308 q 232 1271 224 1289 q 233 1230 239 1253 q 212 1177 228 1206 l 179 1118 z "},"Ị":{"ha":327,"x_min":132,"x_max":195,"o":"m 179 1010 l 179 0 l 148 0 l 148 1010 l 179 1010 m 163 -220 q 141 -211 151 -220 q 132 -189 132 -202 q 141 -166 132 -175 q 163 -157 151 -157 q 186 -166 177 -157 q 195 -189 195 -175 q 186 -211 195 -201 q 163 -220 177 -220 z "},"Ɩ":{"ha":303,"x_min":125,"x_max":283,"o":"m 271 -1 q 164 16 204 -13 q 125 119 125 44 l 125 1010 l 156 1010 l 156 119 q 186 38 156 56 q 269 31 217 20 q 273 32 273 32 q 277 32 273 31 l 283 1 q 277 1 280 1 q 271 -1 274 0 z "},"Ι":{"ha":327,"x_min":148,"x_max":179,"o":"m 179 1010 l 179 0 l 148 0 l 148 1010 l 179 1010 z "},"Ί":{"ha":410,"x_min":77,"x_max":263,"o":"m 263 1010 l 263 0 l 232 0 l 232 1010 l 263 1010 m 77 821 l 102 1010 l 136 1010 l 102 821 l 77 821 z "},"Ϊ":{"ha":327,"x_min":-5,"x_max":332,"o":"m 179 1010 l 179 0 l 148 0 l 148 1010 l 179 1010 m 300 1187 q 278 1196 288 1187 q 269 1219 269 1206 q 278 1241 269 1232 q 300 1251 288 1251 q 323 1241 314 1251 q 332 1219 332 1232 q 323 1196 332 1206 q 300 1187 314 1187 m 26 1187 q 4 1196 14 1187 q -5 1219 -5 1206 q 4 1241 -5 1232 q 26 1251 14 1251 q 49 1241 40 1251 q 58 1219 58 1232 q 49 1196 58 1206 q 26 1187 40 1187 z "},"Ἰ":{"ha":516,"x_min":77,"x_max":368,"o":"m 368 1010 l 368 0 l 337 0 l 337 1010 l 368 1010 m 109 819 l 98 819 l 98 850 l 109 850 q 174 870 149 850 q 198 922 198 890 q 174 971 198 954 q 109 988 149 988 l 77 988 l 77 1019 l 109 1019 q 196 994 162 1019 q 229 922 229 968 q 196 847 229 876 q 109 819 162 819 z "},"Ἱ":{"ha":518,"x_min":77,"x_max":370,"o":"m 371 1010 l 371 0 l 340 0 l 340 1010 l 371 1010 m 197 814 q 110 843 144 814 q 77 918 77 872 q 110 989 77 964 q 197 1015 144 1015 l 229 1015 l 229 984 l 197 984 q 133 967 157 984 q 108 918 108 949 q 133 866 108 886 q 197 846 157 846 l 208 846 l 208 814 l 197 814 z "},"Ἲ":{"ha":649,"x_min":77,"x_max":501,"o":"m 502 1010 l 502 0 l 471 0 l 471 1010 l 502 1010 m 109 814 l 98 814 l 98 846 l 109 846 q 174 866 149 846 q 198 918 198 886 q 174 967 198 949 q 109 984 149 984 l 77 984 l 77 1015 l 109 1015 q 196 989 162 1015 q 229 918 229 964 q 196 843 229 872 q 109 814 162 814 m 343 821 l 317 821 l 283 1010 l 317 1010 l 343 821 z "},"Ἳ":{"ha":658,"x_min":77,"x_max":510,"o":"m 510 1010 l 510 0 l 479 0 l 479 1010 l 510 1010 m 197 814 q 110 843 144 814 q 77 918 77 872 q 110 989 77 964 q 197 1015 144 1015 l 229 1015 l 229 984 l 197 984 q 133 967 157 984 q 108 918 108 949 q 133 866 108 886 q 197 846 157 846 l 208 846 l 208 814 l 197 814 m 365 821 l 339 821 l 305 1010 l 338 1010 l 365 821 z "},"Ἴ":{"ha":648,"x_min":77,"x_max":500,"o":"m 500 1010 l 500 0 l 469 0 l 469 1010 l 500 1010 m 109 814 l 98 814 l 98 846 l 109 846 q 174 866 149 846 q 198 918 198 886 q 174 967 198 949 q 109 984 149 984 l 77 984 l 77 1015 l 109 1015 q 196 989 162 1015 q 229 918 229 964 q 196 843 229 872 q 109 814 162 814 m 307 821 l 332 1010 l 366 1010 l 332 821 l 307 821 z "},"Ἵ":{"ha":652,"x_min":77,"x_max":505,"o":"m 505 1010 l 505 0 l 473 0 l 473 1010 l 505 1010 m 197 814 q 110 843 144 814 q 77 918 77 872 q 110 989 77 964 q 197 1015 144 1015 l 229 1015 l 229 984 l 197 984 q 133 967 157 984 q 108 918 108 949 q 133 866 108 886 q 197 846 157 846 l 208 846 l 208 814 l 197 814 m 315 821 l 341 1010 l 374 1010 l 340 821 l 315 821 z "},"Ἶ":{"ha":630,"x_min":77,"x_max":482,"o":"m 482 1010 l 482 0 l 451 0 l 451 1010 l 482 1010 m 221 810 l 210 810 l 210 841 l 221 841 q 286 861 261 841 q 310 913 310 882 q 286 962 310 945 q 221 979 261 979 l 189 979 l 189 1010 l 221 1010 q 308 985 274 1010 q 341 913 341 959 q 308 839 341 867 q 221 810 274 810 m 353 1084 q 303 1097 324 1084 q 264 1124 282 1109 q 229 1152 247 1140 q 186 1164 210 1164 q 132 1144 153 1164 q 108 1089 111 1124 l 77 1089 q 109 1165 81 1135 q 181 1196 138 1196 q 235 1183 213 1196 q 275 1156 257 1171 q 309 1128 292 1140 q 347 1116 326 1116 q 395 1133 376 1116 q 422 1188 414 1149 l 454 1188 q 418 1112 446 1140 q 353 1084 391 1084 z "},"Ἷ":{"ha":629,"x_min":77,"x_max":482,"o":"m 482 1010 l 482 0 l 451 0 l 451 1010 l 482 1010 m 309 810 q 222 839 256 810 q 189 913 189 867 q 222 985 189 959 q 309 1010 256 1010 l 341 1010 l 341 979 l 309 979 q 244 962 269 979 q 220 913 220 945 q 244 861 220 882 q 309 841 269 841 l 319 841 l 319 810 l 309 810 m 353 1084 q 303 1097 324 1084 q 264 1124 282 1109 q 229 1152 247 1140 q 186 1164 210 1164 q 132 1144 153 1164 q 108 1089 111 1124 l 77 1089 q 109 1165 81 1135 q 181 1196 138 1196 q 235 1183 213 1196 q 275 1156 257 1171 q 309 1128 292 1140 q 347 1116 326 1116 q 395 1133 376 1116 q 422 1188 414 1149 l 454 1188 q 418 1112 446 1140 q 353 1084 391 1084 z "},"Ῐ":{"ha":327,"x_min":-14,"x_max":341,"o":"m 179 1010 l 179 0 l 148 0 l 148 1010 l 179 1010 m 163 1117 q 74 1141 114 1117 q 9 1205 33 1165 q -14 1295 -14 1246 l 17 1295 q 60 1190 17 1233 q 163 1147 103 1147 q 267 1190 224 1147 q 310 1295 310 1233 l 341 1295 q 317 1205 341 1246 q 254 1141 294 1165 q 163 1117 214 1117 z "},"Ῑ":{"ha":327,"x_min":5,"x_max":321,"o":"m 179 1010 l 179 0 l 148 0 l 148 1010 l 179 1010 m 321 1234 l 321 1203 l 5 1203 l 5 1234 l 321 1234 z "},"Ὶ":{"ha":383,"x_min":-16,"x_max":235,"o":"m 235 1010 l 235 0 l 204 0 l 204 1010 l 235 1010 m 43 851 l 18 851 l -16 1040 l 17 1040 l 43 851 z "},"Ί":{"ha":410,"x_min":77,"x_max":263,"o":"m 263 1010 l 263 0 l 232 0 l 232 1010 l 263 1010 m 77 821 l 102 1010 l 136 1010 l 102 821 l 77 821 z "},"І":{"ha":327,"x_min":148,"x_max":179,"o":"m 179 1010 l 179 0 l 148 0 l 148 1010 l 179 1010 z "},"Ї":{"ha":327,"x_min":-5,"x_max":332,"o":"m 179 1010 l 179 0 l 148 0 l 148 1010 l 179 1010 m 300 1187 q 278 1196 288 1187 q 269 1219 269 1206 q 278 1241 269 1232 q 300 1251 288 1251 q 323 1241 314 1251 q 332 1219 332 1232 q 323 1196 332 1206 q 300 1187 314 1187 m 26 1187 q 4 1196 14 1187 q -5 1219 -5 1206 q 4 1241 -5 1232 q 26 1251 14 1251 q 49 1241 40 1251 q 58 1219 58 1232 q 49 1196 58 1206 q 26 1187 40 1187 z "},"":{"ha":481,"x_min":74,"x_max":408,"o":"m 74 0 l 74 31 l 224 31 l 224 979 l 74 979 l 74 1010 l 408 1010 l 408 979 l 256 979 l 256 31 l 408 31 l 408 0 l 74 0 z "},"":{"ha":481,"x_min":72,"x_max":410,"o":"m 74 0 l 74 31 l 224 31 l 224 979 l 74 979 l 74 1010 l 408 1010 l 408 979 l 256 979 l 256 31 l 408 31 l 408 0 l 74 0 m 378 1187 q 355 1196 365 1187 q 346 1219 346 1206 q 355 1241 346 1232 q 378 1251 365 1251 q 400 1241 391 1251 q 410 1219 410 1232 q 400 1196 410 1206 q 378 1187 391 1187 m 104 1187 q 81 1196 91 1187 q 72 1219 72 1206 q 81 1241 72 1232 q 104 1251 91 1251 q 126 1241 117 1251 q 136 1219 136 1232 q 126 1196 136 1206 q 104 1187 117 1187 z "},"":{"ha":481,"x_min":74,"x_max":418,"o":"m 74 0 l 74 31 l 224 31 l 224 979 l 74 979 l 74 1010 l 408 1010 l 408 979 l 256 979 l 256 31 l 408 31 l 408 0 l 74 0 m 387 1164 q 364 1174 374 1164 q 355 1196 355 1183 q 364 1219 355 1210 q 387 1228 374 1228 q 409 1219 400 1228 q 418 1196 418 1210 q 409 1174 418 1183 q 387 1164 400 1164 m 113 1164 q 90 1174 100 1164 q 81 1196 81 1183 q 90 1219 81 1210 q 113 1228 100 1228 q 135 1219 126 1228 q 144 1196 144 1210 q 135 1174 144 1183 q 113 1164 126 1164 m 224 1343 l 334 1529 l 374 1529 l 256 1343 l 224 1343 z "},"":{"ha":481,"x_min":74,"x_max":408,"o":"m 74 0 l 74 31 l 224 31 l 224 979 l 74 979 l 74 1010 l 408 1010 l 408 979 l 256 979 l 256 31 l 408 31 l 408 0 l 74 0 m 88 506 l 88 536 l 391 536 l 391 506 l 88 506 z "},"":{"ha":481,"x_min":52,"x_max":429,"o":"m 74 0 l 74 31 l 224 31 l 224 979 l 74 979 l 74 1010 l 408 1010 l 408 979 l 256 979 l 256 31 l 408 31 l 408 0 l 74 0 m 329 -244 q 279 -232 300 -244 q 241 -204 258 -220 q 205 -176 223 -189 q 163 -164 186 -164 q 109 -184 130 -164 q 84 -239 87 -204 l 53 -239 q 85 -163 57 -193 q 157 -133 114 -133 q 211 -145 189 -133 q 251 -173 233 -157 q 286 -201 269 -189 q 323 -213 302 -213 q 371 -196 353 -213 q 398 -140 390 -179 l 430 -140 q 395 -216 422 -189 q 329 -244 368 -244 z "},"":{"ha":481,"x_min":74,"x_max":408,"o":"m 74 0 l 74 31 l 224 31 l 224 979 l 74 979 l 74 1010 l 408 1010 l 408 979 l 256 979 l 256 31 l 408 31 l 408 0 l 74 0 m 229 1118 l 121 1308 l 161 1308 l 260 1118 l 229 1118 z "},"":{"ha":481,"x_min":74,"x_max":408,"o":"m 74 0 l 74 31 l 224 31 l 224 979 l 74 979 l 74 1010 l 408 1010 l 408 979 l 256 979 l 256 31 l 408 31 l 408 0 l 74 0 m 224 1118 l 323 1308 l 362 1308 l 255 1118 l 224 1118 z "},"":{"ha":481,"x_min":56,"x_max":427,"o":"m 74 0 l 74 31 l 224 31 l 224 979 l 74 979 l 74 1010 l 408 1010 l 408 979 l 256 979 l 256 31 l 408 31 l 408 0 l 74 0 m 93 1126 l 56 1126 l 56 1129 l 234 1314 l 247 1314 l 427 1129 l 427 1126 l 388 1126 l 240 1279 l 93 1126 z "},"":{"ha":481,"x_min":52,"x_max":429,"o":"m 74 0 l 74 31 l 224 31 l 224 979 l 74 979 l 74 1010 l 408 1010 l 408 979 l 256 979 l 256 31 l 408 31 l 408 0 l 74 0 m 329 1163 q 279 1175 300 1163 q 241 1203 258 1187 q 205 1231 223 1219 q 163 1243 186 1243 q 109 1223 130 1243 q 84 1168 87 1203 l 53 1168 q 85 1244 57 1214 q 157 1274 114 1274 q 211 1262 189 1274 q 251 1234 233 1250 q 286 1206 269 1219 q 323 1194 302 1194 q 371 1211 353 1194 q 398 1267 390 1228 l 430 1267 q 395 1191 422 1219 q 329 1163 368 1163 z "},"":{"ha":481,"x_min":74,"x_max":408,"o":"m 74 0 l 74 31 l 224 31 l 224 979 l 74 979 l 74 1010 l 408 1010 l 408 979 l 256 979 l 256 31 l 408 31 l 408 0 l 74 0 m 399 1234 l 399 1203 l 83 1203 l 83 1234 l 399 1234 z "},"":{"ha":481,"x_min":63,"x_max":418,"o":"m 74 0 l 74 31 l 224 31 l 224 979 l 74 979 l 74 1010 l 408 1010 l 408 979 l 256 979 l 256 31 l 408 31 l 408 0 l 74 0 m 241 1117 q 151 1141 191 1117 q 87 1205 111 1165 q 63 1295 63 1246 l 94 1295 q 137 1190 94 1233 q 241 1147 180 1147 q 344 1190 301 1147 q 387 1295 387 1233 l 418 1295 q 395 1205 418 1246 q 331 1141 371 1165 q 241 1117 291 1117 z "},"":{"ha":481,"x_min":74,"x_max":416,"o":"m 74 0 l 74 31 l 224 31 l 224 979 l 74 979 l 74 1010 l 408 1010 l 408 979 l 256 979 l 256 31 l 408 31 l 408 0 l 74 0 m 371 -288 q 287 -261 322 -288 q 252 -182 252 -235 q 289 -82 252 -128 q 380 10 327 -35 l 408 0 q 319 -92 355 -48 q 283 -182 283 -136 q 309 -239 283 -222 q 371 -256 335 -256 q 390 -255 381 -256 q 408 -251 399 -254 l 416 -280 q 394 -286 406 -284 q 371 -288 383 -288 z "},"":{"ha":481,"x_min":74,"x_max":408,"o":"m 74 0 l 74 31 l 224 31 l 224 979 l 74 979 l 74 1010 l 408 1010 l 408 979 l 256 979 l 256 31 l 408 31 l 408 0 l 74 0 m 241 1187 q 218 1196 228 1187 q 209 1219 209 1205 q 218 1241 209 1232 q 241 1251 228 1251 q 263 1241 254 1251 q 273 1219 273 1232 q 263 1196 273 1206 q 241 1187 254 1187 z "},"":{"ha":481,"x_min":56,"x_max":427,"o":"m 74 0 l 74 31 l 224 31 l 224 979 l 74 979 l 74 1010 l 408 1010 l 408 979 l 256 979 l 256 31 l 408 31 l 408 0 l 74 0 m 93 1312 l 240 1158 l 388 1312 l 427 1312 l 427 1308 l 247 1122 l 234 1122 l 56 1308 l 56 1312 l 93 1312 z "},"":{"ha":481,"x_min":22,"x_max":408,"o":"m 74 0 l 74 31 l 224 31 l 224 979 l 74 979 l 74 1010 l 408 1010 l 408 979 l 256 979 l 256 31 l 408 31 l 408 0 l 74 0 m 316 1118 l 219 1308 l 254 1308 l 347 1118 l 316 1118 m 140 1118 l 22 1308 l 60 1308 l 172 1118 l 140 1118 z "},"":{"ha":481,"x_min":63,"x_max":418,"o":"m 74 0 l 74 31 l 224 31 l 224 979 l 74 979 l 74 1010 l 408 1010 l 408 979 l 256 979 l 256 31 l 408 31 l 408 0 l 74 0 m 240 1289 q 331 1267 290 1289 q 395 1208 371 1245 q 418 1126 418 1171 l 389 1126 q 345 1220 389 1181 q 241 1258 302 1258 q 136 1220 179 1258 q 92 1126 92 1181 l 63 1126 q 87 1208 63 1171 q 151 1267 111 1245 q 240 1289 191 1289 z "},"":{"ha":481,"x_min":74,"x_max":408,"o":"m 74 0 l 74 31 l 224 31 l 224 979 l 74 979 l 74 1010 l 408 1010 l 408 979 l 256 979 l 256 31 l 408 31 l 408 0 l 74 0 m 256 1118 l 225 1118 l 261 1187 q 281 1255 286 1233 q 228 1278 277 1278 l 157 1278 l 157 1308 l 228 1308 q 282 1298 262 1308 q 309 1271 302 1289 q 311 1230 316 1253 q 289 1177 305 1206 l 256 1118 z "},"":{"ha":481,"x_min":74,"x_max":408,"o":"m 74 0 l 74 31 l 224 31 l 224 979 l 74 979 l 74 1010 l 408 1010 l 408 979 l 256 979 l 256 31 l 408 31 l 408 0 l 74 0 m 241 -220 q 218 -211 228 -220 q 209 -189 209 -202 q 218 -166 209 -175 q 241 -157 228 -157 q 263 -166 254 -157 q 273 -189 273 -175 q 263 -211 273 -201 q 241 -220 254 -220 z "},"":{"ha":716,"x_min":77,"x_max":643,"o":"m 309 0 l 309 31 l 459 31 l 459 979 l 309 979 l 309 1010 l 642 1010 l 642 979 l 490 979 l 490 31 l 642 31 l 642 0 l 309 0 m 109 819 l 98 819 l 98 850 l 109 850 q 174 870 149 850 q 198 922 198 890 q 174 971 198 954 q 109 988 149 988 l 77 988 l 77 1019 l 109 1019 q 196 994 162 1019 q 229 922 229 968 q 196 847 229 876 q 109 819 162 819 z "},"":{"ha":719,"x_min":77,"x_max":645,"o":"m 311 0 l 311 31 l 462 31 l 462 979 l 311 979 l 311 1010 l 645 1010 l 645 979 l 493 979 l 493 31 l 645 31 l 645 0 l 311 0 m 197 814 q 110 843 144 814 q 77 918 77 872 q 110 989 77 964 q 197 1015 144 1015 l 229 1015 l 229 984 l 197 984 q 133 967 157 984 q 108 918 108 949 q 133 866 108 886 q 197 846 157 846 l 208 846 l 208 814 l 197 814 z "},"":{"ha":864,"x_min":77,"x_max":776,"o":"m 442 0 l 442 31 l 593 31 l 593 979 l 442 979 l 442 1010 l 776 1010 l 776 979 l 624 979 l 624 31 l 776 31 l 776 0 l 442 0 m 109 814 l 98 814 l 98 846 l 109 846 q 174 866 149 846 q 198 918 198 886 q 174 967 198 949 q 109 984 149 984 l 77 984 l 77 1015 l 109 1015 q 196 989 162 1015 q 229 918 229 964 q 196 843 229 872 q 109 814 162 814 m 343 821 l 317 821 l 283 1010 l 317 1010 l 343 821 z "},"":{"ha":858,"x_min":77,"x_max":784,"o":"m 450 0 l 450 31 l 601 31 l 601 979 l 450 979 l 450 1010 l 784 1010 l 784 979 l 632 979 l 632 31 l 784 31 l 784 0 l 450 0 m 197 814 q 110 843 144 814 q 77 918 77 872 q 110 989 77 964 q 197 1015 144 1015 l 229 1015 l 229 984 l 197 984 q 133 967 157 984 q 108 918 108 949 q 133 866 108 886 q 197 846 157 846 l 208 846 l 208 814 l 197 814 m 365 821 l 339 821 l 305 1010 l 338 1010 l 365 821 z "},"":{"ha":848,"x_min":77,"x_max":774,"o":"m 441 0 l 441 31 l 591 31 l 591 979 l 441 979 l 441 1010 l 774 1010 l 774 979 l 623 979 l 623 31 l 774 31 l 774 0 l 441 0 m 109 814 l 98 814 l 98 846 l 109 846 q 174 866 149 846 q 198 918 198 886 q 174 967 198 949 q 109 984 149 984 l 77 984 l 77 1015 l 109 1015 q 196 989 162 1015 q 229 918 229 964 q 196 843 229 872 q 109 814 162 814 m 307 821 l 332 1010 l 366 1010 l 332 821 l 307 821 z "},"":{"ha":852,"x_min":77,"x_max":779,"o":"m 445 0 l 445 31 l 595 31 l 595 979 l 445 979 l 445 1010 l 779 1010 l 779 979 l 627 979 l 627 31 l 779 31 l 779 0 l 445 0 m 197 814 q 110 843 144 814 q 77 918 77 872 q 110 989 77 964 q 197 1015 144 1015 l 229 1015 l 229 984 l 197 984 q 133 967 157 984 q 108 918 108 949 q 133 866 108 886 q 197 846 157 846 l 208 846 l 208 814 l 197 814 m 315 821 l 341 1010 l 374 1010 l 340 821 l 315 821 z "},"":{"ha":830,"x_min":77,"x_max":756,"o":"m 422 0 l 422 31 l 573 31 l 573 979 l 422 979 l 422 1010 l 756 1010 l 756 979 l 604 979 l 604 31 l 756 31 l 756 0 l 422 0 m 221 810 l 210 810 l 210 841 l 221 841 q 286 861 261 841 q 310 913 310 882 q 286 962 310 945 q 221 979 261 979 l 189 979 l 189 1010 l 221 1010 q 308 985 274 1010 q 341 913 341 959 q 308 839 341 867 q 221 810 274 810 m 353 1084 q 303 1097 324 1084 q 264 1124 282 1109 q 229 1152 247 1140 q 186 1164 210 1164 q 132 1144 153 1164 q 108 1089 111 1124 l 77 1089 q 109 1165 81 1135 q 181 1196 138 1196 q 235 1183 213 1196 q 275 1156 257 1171 q 309 1128 292 1140 q 347 1116 326 1116 q 395 1133 376 1116 q 422 1188 414 1149 l 454 1188 q 418 1112 446 1140 q 353 1084 391 1084 z "},"":{"ha":830,"x_min":77,"x_max":756,"o":"m 422 0 l 422 31 l 573 31 l 573 979 l 422 979 l 422 1010 l 756 1010 l 756 979 l 604 979 l 604 31 l 756 31 l 756 0 l 422 0 m 309 810 q 222 839 256 810 q 189 913 189 867 q 222 985 189 959 q 309 1010 256 1010 l 341 1010 l 341 979 l 309 979 q 244 962 269 979 q 220 913 220 945 q 244 861 220 882 q 309 841 269 841 l 319 841 l 319 810 l 309 810 m 353 1084 q 303 1097 324 1084 q 264 1124 282 1109 q 229 1152 247 1140 q 186 1164 210 1164 q 132 1144 153 1164 q 108 1089 111 1124 l 77 1089 q 109 1165 81 1135 q 181 1196 138 1196 q 235 1183 213 1196 q 275 1156 257 1171 q 309 1128 292 1140 q 347 1116 326 1116 q 395 1133 376 1116 q 422 1188 414 1149 l 454 1188 q 418 1112 446 1140 q 353 1084 391 1084 z "},"":{"ha":481,"x_min":63,"x_max":418,"o":"m 74 0 l 74 31 l 224 31 l 224 979 l 74 979 l 74 1010 l 408 1010 l 408 979 l 256 979 l 256 31 l 408 31 l 408 0 l 74 0 m 241 1117 q 151 1141 191 1117 q 87 1205 111 1165 q 63 1295 63 1246 l 94 1295 q 137 1190 94 1233 q 241 1147 180 1147 q 344 1190 301 1147 q 387 1295 387 1233 l 418 1295 q 395 1205 418 1246 q 331 1141 371 1165 q 241 1117 291 1117 z "},"":{"ha":481,"x_min":74,"x_max":408,"o":"m 74 0 l 74 31 l 224 31 l 224 979 l 74 979 l 74 1010 l 408 1010 l 408 979 l 256 979 l 256 31 l 408 31 l 408 0 l 74 0 m 399 1234 l 399 1203 l 83 1203 l 83 1234 l 399 1234 z "},"":{"ha":591,"x_min":-9,"x_max":517,"o":"m 183 0 l 183 31 l 334 31 l 334 979 l 183 979 l 183 1010 l 517 1010 l 517 979 l 365 979 l 365 31 l 517 31 l 517 0 l 183 0 m 50 851 l 25 851 l -9 1040 l 24 1040 l 50 851 z "},"":{"ha":611,"x_min":77,"x_max":537,"o":"m 203 0 l 203 31 l 354 31 l 354 979 l 203 979 l 203 1010 l 537 1010 l 537 979 l 385 979 l 385 31 l 537 31 l 537 0 l 203 0 m 77 821 l 102 1010 l 136 1010 l 102 821 l 77 821 z "},"":{"ha":481,"x_min":74,"x_max":408,"o":"m 74 0 l 74 31 l 224 31 l 224 979 l 74 979 l 74 1010 l 408 1010 l 408 979 l 256 979 l 256 31 l 408 31 l 408 0 l 74 0 z "},"":{"ha":481,"x_min":72,"x_max":410,"o":"m 74 0 l 74 31 l 224 31 l 224 979 l 74 979 l 74 1010 l 408 1010 l 408 979 l 256 979 l 256 31 l 408 31 l 408 0 l 74 0 m 378 1187 q 355 1196 365 1187 q 346 1219 346 1206 q 355 1241 346 1232 q 378 1251 365 1251 q 400 1241 391 1251 q 410 1219 410 1232 q 400 1196 410 1206 q 378 1187 391 1187 m 104 1187 q 81 1196 91 1187 q 72 1219 72 1206 q 81 1241 72 1232 q 104 1251 91 1251 q 126 1241 117 1251 q 136 1219 136 1232 q 126 1196 136 1206 q 104 1187 117 1187 z "},"J":{"ha":760,"x_min":101,"x_max":633,"o":"m 367 -14 q 173 62 244 -14 q 101 269 101 138 l 101 315 l 132 315 l 132 269 q 195 85 132 152 q 367 18 257 18 q 539 85 477 18 q 602 269 602 152 l 602 1010 l 633 1010 l 633 269 q 561 62 633 138 q 367 -14 490 -14 z "},"Ĵ":{"ha":760,"x_min":101,"x_max":802,"o":"m 367 -14 q 173 62 244 -14 q 101 269 101 138 l 101 315 l 132 315 l 132 269 q 195 85 132 152 q 367 18 257 18 q 539 85 477 18 q 602 269 602 152 l 602 1010 l 633 1010 l 633 269 q 561 62 633 138 q 367 -14 490 -14 m 469 1126 l 431 1126 l 431 1129 l 610 1314 l 623 1314 l 802 1129 l 802 1126 l 764 1126 l 616 1279 l 469 1126 z "},"Ɉ":{"ha":761,"x_min":101,"x_max":768,"o":"m 367 -14 q 173 62 244 -14 q 101 269 101 138 l 101 315 l 132 315 l 132 269 q 195 85 132 152 q 367 18 257 18 q 539 85 477 18 q 602 269 602 152 l 602 1010 l 633 1010 l 633 269 q 561 62 633 138 q 367 -14 490 -14 m 465 585 l 465 614 l 768 614 l 768 585 l 465 585 z "},"Ϳ":{"ha":760,"x_min":101,"x_max":633,"o":"m 367 -14 q 173 62 244 -14 q 101 269 101 138 l 101 315 l 132 315 l 132 269 q 195 85 132 152 q 367 18 257 18 q 539 85 477 18 q 602 269 602 152 l 602 1010 l 633 1010 l 633 269 q 561 62 633 138 q 367 -14 490 -14 z "},"Ј":{"ha":760,"x_min":101,"x_max":633,"o":"m 367 -14 q 173 62 244 -14 q 101 269 101 138 l 101 315 l 132 315 l 132 269 q 195 85 132 152 q 367 18 257 18 q 539 85 477 18 q 602 269 602 152 l 602 1010 l 633 1010 l 633 269 q 561 62 633 138 q 367 -14 490 -14 z "},"K":{"ha":814,"x_min":148,"x_max":776,"o":"m 176 363 l 165 396 q 243 480 206 440 q 318 562 281 521 q 396 646 355 602 l 734 1010 l 776 1010 l 360 562 l 352 554 l 176 363 m 148 0 l 148 1010 l 179 1010 l 179 651 l 179 401 l 179 380 l 179 0 l 148 0 m 737 0 l 338 560 l 363 578 l 774 0 l 737 0 z "},"Ķ":{"ha":814,"x_min":148,"x_max":776,"o":"m 176 363 l 165 396 q 243 480 206 440 q 318 562 281 521 q 396 646 355 602 l 734 1010 l 776 1010 l 360 562 l 352 554 l 176 363 m 148 0 l 148 1010 l 179 1010 l 179 651 l 179 401 l 179 380 l 179 0 l 148 0 m 737 0 l 338 560 l 363 578 l 774 0 l 737 0 m 355 -335 l 420 -80 l 454 -80 l 381 -335 l 355 -335 z "},"Ǩ":{"ha":814,"x_min":148,"x_max":776,"o":"m 176 363 l 165 396 q 243 480 206 440 q 318 562 281 521 q 396 646 355 602 l 734 1010 l 776 1010 l 360 562 l 352 554 l 176 363 m 148 0 l 148 1010 l 179 1010 l 179 651 l 179 401 l 179 380 l 179 0 l 148 0 m 737 0 l 338 560 l 363 578 l 774 0 l 737 0 m 292 1312 l 439 1158 l 587 1312 l 625 1312 l 625 1308 l 446 1122 l 433 1122 l 254 1308 l 254 1312 l 292 1312 z "},"Ḱ":{"ha":814,"x_min":148,"x_max":776,"o":"m 176 363 l 165 396 q 243 480 206 440 q 318 562 281 521 q 396 646 355 602 l 734 1010 l 776 1010 l 360 562 l 352 554 l 176 363 m 148 0 l 148 1010 l 179 1010 l 179 651 l 179 401 l 179 380 l 179 0 l 148 0 m 737 0 l 338 560 l 363 578 l 774 0 l 737 0 m 423 1118 l 522 1308 l 561 1308 l 454 1118 l 423 1118 z "},"Ḳ":{"ha":814,"x_min":148,"x_max":776,"o":"m 176 363 l 165 396 q 243 480 206 440 q 318 562 281 521 q 396 646 355 602 l 734 1010 l 776 1010 l 360 562 l 352 554 l 176 363 m 148 0 l 148 1010 l 179 1010 l 179 651 l 179 401 l 179 380 l 179 0 l 148 0 m 737 0 l 338 560 l 363 578 l 774 0 l 737 0 m 439 -220 q 417 -211 427 -220 q 408 -189 408 -202 q 417 -166 408 -175 q 439 -157 427 -157 q 462 -166 453 -157 q 471 -189 471 -175 q 462 -211 471 -201 q 439 -220 453 -220 z "},"Ḵ":{"ha":814,"x_min":148,"x_max":776,"o":"m 176 363 l 165 396 q 243 480 206 440 q 318 562 281 521 q 396 646 355 602 l 734 1010 l 776 1010 l 360 562 l 352 554 l 176 363 m 148 0 l 148 1010 l 179 1010 l 179 651 l 179 401 l 179 380 l 179 0 l 148 0 m 737 0 l 338 560 l 363 578 l 774 0 l 737 0 m 597 -173 l 597 -204 l 281 -204 l 281 -173 l 597 -173 z "},"Ҡ":{"ha":1086,"x_min":77,"x_max":1048,"o":"m 401 1010 l 401 979 l 77 979 l 77 1010 l 401 1010 m 382 0 l 382 1010 l 414 1010 l 414 532 l 606 532 l 993 1010 l 1032 1010 l 633 517 l 1048 0 l 1008 0 l 606 501 l 414 501 l 414 0 l 382 0 z "},"Қ":{"ha":874,"x_min":148,"x_max":888,"o":"m 148 0 l 148 1010 l 179 1010 l 179 532 l 371 532 l 758 1010 l 797 1010 l 398 517 l 812 0 l 773 0 l 371 501 l 179 501 l 179 0 l 148 0 m 857 -217 l 857 0 l 784 0 l 784 31 l 888 31 l 888 -217 l 857 -217 z "},"Ƙ":{"ha":891,"x_min":148,"x_max":888,"o":"m 148 0 l 148 1010 l 180 1010 l 180 381 l 184 381 l 712 963 q 769 1005 736 992 q 834 1012 802 1017 q 888 983 867 1007 l 867 963 q 799 982 831 988 q 736 941 766 975 l 354 521 l 842 0 l 799 0 l 332 498 l 180 330 l 180 0 l 148 0 z "},"Κ":{"ha":814,"x_min":148,"x_max":776,"o":"m 176 363 l 165 396 q 243 480 206 440 q 318 562 281 521 q 396 646 355 602 l 734 1010 l 776 1010 l 360 562 l 352 554 l 176 363 m 148 0 l 148 1010 l 179 1010 l 179 651 l 179 401 l 179 380 l 179 0 l 148 0 m 737 0 l 338 560 l 363 578 l 774 0 l 737 0 z "},"L":{"ha":765,"x_min":148,"x_max":688,"o":"m 148 0 l 148 1010 l 180 1010 l 180 31 l 688 31 l 688 0 l 148 0 z "},"Ĺ":{"ha":765,"x_min":148,"x_max":688,"o":"m 148 0 l 148 1010 l 180 1010 l 180 31 l 688 31 l 688 0 l 148 0 m 148 1118 l 246 1308 l 286 1308 l 178 1118 l 148 1118 z "},"Ļ":{"ha":765,"x_min":148,"x_max":688,"o":"m 148 0 l 148 1010 l 180 1010 l 180 31 l 688 31 l 688 0 l 148 0 m 332 -335 l 397 -80 l 431 -80 l 358 -335 l 332 -335 z "},"Ľ":{"ha":765,"x_min":148,"x_max":688,"o":"m 148 0 l 148 1010 l 180 1010 l 180 31 l 688 31 l 688 0 l 148 0 m 415 802 l 415 1058 l 450 1058 l 441 802 l 415 802 z "},"Ḷ":{"ha":765,"x_min":148,"x_max":688,"o":"m 148 0 l 148 1010 l 180 1010 l 180 31 l 688 31 l 688 0 l 148 0 m 416 -220 q 394 -211 404 -220 q 385 -189 385 -202 q 394 -166 385 -175 q 416 -157 404 -157 q 439 -166 430 -157 q 448 -189 448 -175 q 439 -211 448 -201 q 416 -220 430 -220 z "},"Ḹ":{"ha":765,"x_min":6,"x_max":688,"o":"m 148 0 l 148 1010 l 180 1010 l 180 31 l 688 31 l 688 0 l 148 0 m 416 -220 q 394 -211 404 -220 q 385 -189 385 -202 q 394 -166 385 -175 q 416 -157 404 -157 q 439 -166 430 -157 q 448 -189 448 -175 q 439 -211 448 -201 q 416 -220 430 -220 m 321 1234 l 321 1203 l 6 1203 l 6 1234 l 321 1234 z "},"Ḻ":{"ha":765,"x_min":148,"x_max":688,"o":"m 148 0 l 148 1010 l 180 1010 l 180 31 l 688 31 l 688 0 l 148 0 m 574 -173 l 574 -204 l 258 -204 l 258 -173 l 574 -173 z "},"Ḽ":{"ha":765,"x_min":148,"x_max":688,"o":"m 148 0 l 148 1010 l 180 1010 l 180 31 l 688 31 l 688 0 l 148 0 m 269 -283 l 231 -283 l 231 -279 l 410 -94 l 422 -94 l 602 -279 l 602 -283 l 564 -283 l 416 -130 l 269 -283 z "},"Ł":{"ha":785,"x_min":31,"x_max":709,"o":"m 168 0 l 168 1010 l 201 1010 l 201 31 l 709 31 l 709 0 l 168 0 m 31 439 l 31 475 l 511 753 l 511 718 l 31 439 z "},"Ƚ":{"ha":768,"x_min":31,"x_max":691,"o":"m 151 0 l 151 1010 l 183 1010 l 183 31 l 691 31 l 691 0 l 151 0 m 31 490 l 31 521 l 421 521 l 421 490 l 31 490 z "},"ǈ":{"ha":1050,"x_min":148,"x_max":941,"o":"m 148 0 l 148 1010 l 180 1010 l 180 31 l 688 31 l 688 0 l 148 0 m 894 749 l 925 749 l 925 -110 q 901 -202 925 -163 q 838 -262 877 -241 q 751 -283 798 -283 l 739 -283 l 739 -252 l 751 -252 q 851 -214 808 -252 q 894 -110 894 -176 l 894 749 m 909 925 q 887 934 897 925 q 878 957 878 943 q 887 980 878 970 q 909 989 897 989 q 932 980 923 989 q 941 957 941 970 q 932 935 941 944 q 909 925 923 925 z "},"M":{"ha":1223,"x_min":148,"x_max":1076,"o":"m 148 0 l 148 1010 l 191 1010 l 541 206 q 561 160 551 183 q 580 113 570 136 q 600 65 590 89 q 620 18 610 41 l 604 18 q 624 65 614 41 q 644 113 633 89 q 664 160 654 136 q 684 206 673 183 l 1032 1010 l 1076 1010 l 1076 0 l 1044 0 l 1044 770 q 1044 825 1044 798 q 1045 881 1044 853 q 1045 937 1045 909 q 1045 991 1045 964 l 1055 991 q 1031 936 1043 964 q 1008 880 1020 907 q 985 825 997 852 q 962 770 973 798 l 627 0 l 596 0 l 262 770 q 238 825 250 798 q 215 880 227 852 q 192 936 203 907 q 169 991 180 964 l 178 991 q 178 937 178 964 q 179 881 178 909 q 179 825 179 853 q 179 770 179 798 l 179 0 l 148 0 z "},"Ḿ":{"ha":1223,"x_min":148,"x_max":1076,"o":"m 148 0 l 148 1010 l 191 1010 l 541 206 q 561 160 551 183 q 580 113 570 136 q 600 65 590 89 q 620 18 610 41 l 604 18 q 624 65 614 41 q 644 113 633 89 q 664 160 654 136 q 684 206 673 183 l 1032 1010 l 1076 1010 l 1076 0 l 1044 0 l 1044 770 q 1044 825 1044 798 q 1045 881 1044 853 q 1045 937 1045 909 q 1045 991 1045 964 l 1055 991 q 1031 936 1043 964 q 1008 880 1020 907 q 985 825 997 852 q 962 770 973 798 l 627 0 l 596 0 l 262 770 q 238 825 250 798 q 215 880 227 852 q 192 936 203 907 q 169 991 180 964 l 178 991 q 178 937 178 964 q 179 881 178 909 q 179 825 179 853 q 179 770 179 798 l 179 0 l 148 0 m 595 1118 l 694 1308 l 733 1308 l 626 1118 l 595 1118 z "},"Ṁ":{"ha":1223,"x_min":148,"x_max":1076,"o":"m 148 0 l 148 1010 l 191 1010 l 541 206 q 561 160 551 183 q 580 113 570 136 q 600 65 590 89 q 620 18 610 41 l 604 18 q 624 65 614 41 q 644 113 633 89 q 664 160 654 136 q 684 206 673 183 l 1032 1010 l 1076 1010 l 1076 0 l 1044 0 l 1044 770 q 1044 825 1044 798 q 1045 881 1044 853 q 1045 937 1045 909 q 1045 991 1045 964 l 1055 991 q 1031 936 1043 964 q 1008 880 1020 907 q 985 825 997 852 q 962 770 973 798 l 627 0 l 596 0 l 262 770 q 238 825 250 798 q 215 880 227 852 q 192 936 203 907 q 169 991 180 964 l 178 991 q 178 937 178 964 q 179 881 178 909 q 179 825 179 853 q 179 770 179 798 l 179 0 l 148 0 m 612 1187 q 589 1196 599 1187 q 580 1219 580 1205 q 589 1241 580 1232 q 612 1251 599 1251 q 634 1241 625 1251 q 644 1219 644 1232 q 634 1196 644 1206 q 612 1187 625 1187 z "},"Ṃ":{"ha":1223,"x_min":148,"x_max":1076,"o":"m 148 0 l 148 1010 l 191 1010 l 541 206 q 561 160 551 183 q 580 113 570 136 q 600 65 590 89 q 620 18 610 41 l 604 18 q 624 65 614 41 q 644 113 633 89 q 664 160 654 136 q 684 206 673 183 l 1032 1010 l 1076 1010 l 1076 0 l 1044 0 l 1044 770 q 1044 825 1044 798 q 1045 881 1044 853 q 1045 937 1045 909 q 1045 991 1045 964 l 1055 991 q 1031 936 1043 964 q 1008 880 1020 907 q 985 825 997 852 q 962 770 973 798 l 627 0 l 596 0 l 262 770 q 238 825 250 798 q 215 880 227 852 q 192 936 203 907 q 169 991 180 964 l 178 991 q 178 937 178 964 q 179 881 178 909 q 179 825 179 853 q 179 770 179 798 l 179 0 l 148 0 m 612 -220 q 589 -211 599 -220 q 580 -189 580 -202 q 589 -166 580 -175 q 612 -157 599 -157 q 634 -166 625 -157 q 644 -189 644 -175 q 634 -211 644 -201 q 612 -220 625 -220 z "},"Ӎ":{"ha":1223,"x_min":148,"x_max":1163,"o":"m 148 0 l 148 1010 l 191 1010 l 541 206 q 561 160 551 183 q 580 113 570 136 q 600 65 590 89 q 620 18 610 41 l 604 18 q 624 65 614 41 q 644 113 633 89 q 664 160 654 136 q 684 206 673 183 l 1032 1010 l 1076 1010 l 1076 0 l 1044 0 l 1044 770 q 1044 825 1044 798 q 1045 881 1044 853 q 1045 937 1045 909 q 1045 991 1045 964 l 1055 991 q 1031 936 1043 964 q 1008 880 1020 907 q 985 825 997 852 q 962 770 973 798 l 627 0 l 596 0 l 262 770 q 238 825 250 798 q 215 880 227 852 q 192 936 203 907 q 169 991 180 964 l 178 991 q 178 937 178 964 q 179 881 178 909 q 179 825 179 853 q 179 770 179 798 l 179 0 l 148 0 m 1031 -217 l 1118 0 l 1032 0 l 1032 31 l 1163 31 l 1063 -217 l 1031 -217 z "},"Μ":{"ha":1223,"x_min":148,"x_max":1076,"o":"m 148 0 l 148 1010 l 191 1010 l 541 206 q 561 160 551 183 q 580 113 570 136 q 600 65 590 89 q 620 18 610 41 l 604 18 q 624 65 614 41 q 644 113 633 89 q 664 160 654 136 q 684 206 673 183 l 1032 1010 l 1076 1010 l 1076 0 l 1044 0 l 1044 770 q 1044 825 1044 798 q 1045 881 1044 853 q 1045 937 1045 909 q 1045 991 1045 964 l 1055 991 q 1031 936 1043 964 q 1008 880 1020 907 q 985 825 997 852 q 962 770 973 798 l 627 0 l 596 0 l 262 770 q 238 825 250 798 q 215 880 227 852 q 192 936 203 907 q 169 991 180 964 l 178 991 q 178 937 178 964 q 179 881 178 909 q 179 825 179 853 q 179 770 179 798 l 179 0 l 148 0 z "},"Ϻ":{"ha":1223,"x_min":148,"x_max":1076,"o":"m 148 0 l 148 1010 l 191 1010 l 541 206 q 561 160 551 183 q 580 113 570 136 q 600 65 590 89 q 620 18 610 41 l 604 18 q 624 65 614 41 q 644 113 633 89 q 664 160 654 136 q 684 206 673 183 l 1032 1010 l 1076 1010 l 1076 0 l 1044 0 l 1044 770 q 1044 825 1044 798 q 1045 881 1044 853 q 1045 937 1045 909 q 1045 991 1045 964 l 1055 991 q 1031 936 1043 964 q 1008 880 1020 907 q 985 825 997 852 q 962 770 973 798 l 627 0 l 596 0 l 262 770 q 238 825 250 798 q 215 880 227 852 q 192 936 203 907 q 169 991 180 964 l 178 991 q 178 937 178 964 q 179 881 178 909 q 179 825 179 853 q 179 770 179 798 l 179 0 l 148 0 z "},"М":{"ha":1223,"x_min":148,"x_max":1076,"o":"m 148 0 l 148 1010 l 191 1010 l 541 206 q 561 160 551 183 q 580 113 570 136 q 600 65 590 89 q 620 18 610 41 l 604 18 q 624 65 614 41 q 644 113 633 89 q 664 160 654 136 q 684 206 673 183 l 1032 1010 l 1076 1010 l 1076 0 l 1044 0 l 1044 770 q 1044 825 1044 798 q 1045 881 1044 853 q 1045 937 1045 909 q 1045 991 1045 964 l 1055 991 q 1031 936 1043 964 q 1008 880 1020 907 q 985 825 997 852 q 962 770 973 798 l 627 0 l 596 0 l 262 770 q 238 825 250 798 q 215 880 227 852 q 192 936 203 907 q 169 991 180 964 l 178 991 q 178 937 178 964 q 179 881 178 909 q 179 825 179 853 q 179 770 179 798 l 179 0 l 148 0 z "},"N":{"ha":1053,"x_min":148,"x_max":905,"o":"m 148 0 l 148 1010 l 178 1010 l 736 243 q 786 173 762 208 q 836 103 811 138 q 886 33 861 68 l 876 33 q 875 103 876 68 q 874 173 875 138 q 873 243 873 208 l 873 1010 l 905 1010 l 905 0 l 875 0 l 318 766 q 268 836 292 801 q 218 907 243 871 q 167 977 193 942 l 176 977 q 177 907 176 942 q 178 836 178 871 q 179 766 179 801 l 179 0 l 148 0 z "},"Ñ":{"ha":1053,"x_min":148,"x_max":905,"o":"m 148 0 l 148 1010 l 178 1010 l 736 243 q 786 173 762 208 q 836 103 811 138 q 886 33 861 68 l 876 33 q 875 103 876 68 q 874 173 875 138 q 873 243 873 208 l 873 1010 l 905 1010 l 905 0 l 875 0 l 318 766 q 268 836 292 801 q 218 907 243 871 q 167 977 193 942 l 176 977 q 177 907 176 942 q 178 836 178 871 q 179 766 179 801 l 179 0 l 148 0 m 614 1163 q 564 1175 585 1163 q 526 1203 543 1187 q 490 1231 508 1219 q 448 1243 471 1243 q 393 1223 414 1243 q 369 1168 372 1203 l 338 1168 q 370 1244 342 1214 q 442 1274 399 1274 q 496 1262 474 1274 q 536 1234 518 1250 q 570 1206 553 1219 q 608 1194 587 1194 q 656 1211 637 1194 q 683 1267 675 1228 l 715 1267 q 680 1191 707 1219 q 614 1163 652 1163 z "},"Ń":{"ha":1053,"x_min":148,"x_max":905,"o":"m 148 0 l 148 1010 l 178 1010 l 736 243 q 786 173 762 208 q 836 103 811 138 q 886 33 861 68 l 876 33 q 875 103 876 68 q 874 173 875 138 q 873 243 873 208 l 873 1010 l 905 1010 l 905 0 l 875 0 l 318 766 q 268 836 292 801 q 218 907 243 871 q 167 977 193 942 l 176 977 q 177 907 176 942 q 178 836 178 871 q 179 766 179 801 l 179 0 l 148 0 m 510 1118 l 608 1308 l 648 1308 l 541 1118 l 510 1118 z "},"Ņ":{"ha":1053,"x_min":148,"x_max":905,"o":"m 148 0 l 148 1010 l 178 1010 l 736 243 q 786 173 762 208 q 836 103 811 138 q 886 33 861 68 l 876 33 q 875 103 876 68 q 874 173 875 138 q 873 243 873 208 l 873 1010 l 905 1010 l 905 0 l 875 0 l 318 766 q 268 836 292 801 q 218 907 243 871 q 167 977 193 942 l 176 977 q 177 907 176 942 q 178 836 178 871 q 179 766 179 801 l 179 0 l 148 0 m 442 -335 l 507 -80 l 541 -80 l 468 -335 l 442 -335 z "},"Ň":{"ha":1053,"x_min":148,"x_max":905,"o":"m 148 0 l 148 1010 l 178 1010 l 736 243 q 786 173 762 208 q 836 103 811 138 q 886 33 861 68 l 876 33 q 875 103 876 68 q 874 173 875 138 q 873 243 873 208 l 873 1010 l 905 1010 l 905 0 l 875 0 l 318 766 q 268 836 292 801 q 218 907 243 871 q 167 977 193 942 l 176 977 q 177 907 176 942 q 178 836 178 871 q 179 766 179 801 l 179 0 l 148 0 m 378 1312 l 526 1158 l 673 1312 l 712 1312 l 712 1308 l 532 1122 l 519 1122 l 341 1308 l 341 1312 l 378 1312 z "},"Ǹ":{"ha":1053,"x_min":148,"x_max":905,"o":"m 148 0 l 148 1010 l 178 1010 l 736 243 q 786 173 762 208 q 836 103 811 138 q 886 33 861 68 l 876 33 q 875 103 876 68 q 874 173 875 138 q 873 243 873 208 l 873 1010 l 905 1010 l 905 0 l 875 0 l 318 766 q 268 836 292 801 q 218 907 243 871 q 167 977 193 942 l 176 977 q 177 907 176 942 q 178 836 178 871 q 179 766 179 801 l 179 0 l 148 0 m 514 1118 l 406 1308 l 446 1308 l 545 1118 l 514 1118 z "},"Ṅ":{"ha":1053,"x_min":148,"x_max":905,"o":"m 148 0 l 148 1010 l 178 1010 l 736 243 q 786 173 762 208 q 836 103 811 138 q 886 33 861 68 l 876 33 q 875 103 876 68 q 874 173 875 138 q 873 243 873 208 l 873 1010 l 905 1010 l 905 0 l 875 0 l 318 766 q 268 836 292 801 q 218 907 243 871 q 167 977 193 942 l 176 977 q 177 907 176 942 q 178 836 178 871 q 179 766 179 801 l 179 0 l 148 0 m 526 1187 q 504 1196 513 1187 q 494 1219 494 1205 q 504 1241 494 1232 q 526 1251 513 1251 q 549 1241 540 1251 q 558 1219 558 1232 q 549 1196 558 1206 q 526 1187 540 1187 z "},"Ṇ":{"ha":1053,"x_min":148,"x_max":905,"o":"m 148 0 l 148 1010 l 178 1010 l 736 243 q 786 173 762 208 q 836 103 811 138 q 886 33 861 68 l 876 33 q 875 103 876 68 q 874 173 875 138 q 873 243 873 208 l 873 1010 l 905 1010 l 905 0 l 875 0 l 318 766 q 268 836 292 801 q 218 907 243 871 q 167 977 193 942 l 176 977 q 177 907 176 942 q 178 836 178 871 q 179 766 179 801 l 179 0 l 148 0 m 526 -220 q 504 -211 513 -220 q 494 -189 494 -202 q 504 -166 494 -175 q 526 -157 513 -157 q 549 -166 540 -157 q 558 -189 558 -175 q 549 -211 558 -201 q 526 -220 540 -220 z "},"Ṉ":{"ha":1053,"x_min":148,"x_max":905,"o":"m 148 0 l 148 1010 l 178 1010 l 736 243 q 786 173 762 208 q 836 103 811 138 q 886 33 861 68 l 876 33 q 875 103 876 68 q 874 173 875 138 q 873 243 873 208 l 873 1010 l 905 1010 l 905 0 l 875 0 l 318 766 q 268 836 292 801 q 218 907 243 871 q 167 977 193 942 l 176 977 q 177 907 176 942 q 178 836 178 871 q 179 766 179 801 l 179 0 l 148 0 m 684 -173 l 684 -204 l 368 -204 l 368 -173 l 684 -173 z "},"Ṋ":{"ha":1053,"x_min":148,"x_max":905,"o":"m 148 0 l 148 1010 l 178 1010 l 736 243 q 786 173 762 208 q 836 103 811 138 q 886 33 861 68 l 876 33 q 875 103 876 68 q 874 173 875 138 q 873 243 873 208 l 873 1010 l 905 1010 l 905 0 l 875 0 l 318 766 q 268 836 292 801 q 218 907 243 871 q 167 977 193 942 l 176 977 q 177 907 176 942 q 178 836 178 871 q 179 766 179 801 l 179 0 l 148 0 m 378 -283 l 341 -283 l 341 -279 l 519 -94 l 532 -94 l 712 -279 l 712 -283 l 673 -283 l 526 -130 l 378 -283 z "},"Ɲ":{"ha":1053,"x_min":5,"x_max":905,"o":"m 5 -283 l 5 -252 q 32 -252 18 -252 q 54 -252 45 -252 q 125 -229 103 -252 q 148 -149 148 -205 l 148 87 l 179 87 l 179 -149 q 148 -251 179 -218 q 54 -283 117 -283 q 31 -283 45 -283 q 5 -283 17 -283 m 148 0 l 148 1010 l 178 1010 l 736 243 q 786 173 762 208 q 836 103 811 138 q 886 33 861 68 l 876 33 q 875 103 876 68 q 874 173 875 138 q 873 243 873 208 l 873 1010 l 905 1010 l 905 0 l 875 0 l 318 766 q 268 836 292 801 q 218 907 243 871 q 167 977 193 942 l 176 977 q 177 907 176 942 q 178 836 178 871 q 179 766 179 801 l 179 0 l 148 0 z "},"Ŋ":{"ha":1053,"x_min":148,"x_max":905,"o":"m 731 -283 l 731 -252 q 758 -252 744 -252 q 780 -252 771 -252 q 851 -229 829 -252 q 873 -149 873 -205 l 873 87 l 905 87 l 905 -149 q 873 -251 905 -218 q 780 -283 842 -283 q 757 -283 771 -283 q 731 -283 743 -283 m 148 0 l 148 1010 l 178 1010 l 736 243 q 786 173 762 208 q 836 103 811 138 q 886 33 861 68 l 876 33 q 875 103 876 68 q 874 173 875 138 q 873 243 873 208 l 873 1010 l 905 1010 l 905 0 l 875 0 l 318 766 q 268 836 292 801 q 218 907 243 871 q 167 977 193 942 l 176 977 q 177 907 176 942 q 178 836 178 871 q 179 766 179 801 l 179 0 l 148 0 z "},"И":{"ha":1053,"x_min":148,"x_max":905,"o":"m 905 0 l 873 0 l 873 766 q 874 836 873 801 q 875 907 875 871 q 876 977 876 942 l 886 977 q 835 907 860 942 q 785 836 810 871 q 734 766 760 801 l 178 0 l 148 0 l 148 1010 l 179 1010 l 179 243 q 178 173 179 208 q 177 103 178 138 q 176 33 176 68 l 166 33 q 217 103 192 68 q 267 173 241 138 q 317 243 292 208 l 875 1010 l 905 1010 l 905 0 z "},"Ѝ":{"ha":1053,"x_min":148,"x_max":905,"o":"m 905 0 l 873 0 l 873 766 q 874 836 873 801 q 875 907 875 871 q 876 977 876 942 l 886 977 q 835 907 860 942 q 785 836 810 871 q 734 766 760 801 l 178 0 l 148 0 l 148 1010 l 179 1010 l 179 243 q 178 173 179 208 q 177 103 178 138 q 176 33 176 68 l 166 33 q 217 103 192 68 q 267 173 241 138 q 317 243 292 208 l 875 1010 l 905 1010 l 905 0 m 514 1118 l 406 1308 l 446 1308 l 545 1118 l 514 1118 z "},"Й":{"ha":1053,"x_min":148,"x_max":905,"o":"m 905 0 l 873 0 l 873 766 q 874 836 873 801 q 875 907 875 871 q 876 977 876 942 l 886 977 q 835 907 860 942 q 785 836 810 871 q 734 766 760 801 l 178 0 l 148 0 l 148 1010 l 179 1010 l 179 243 q 178 173 179 208 q 177 103 178 138 q 176 33 176 68 l 166 33 q 217 103 192 68 q 267 173 241 138 q 317 243 292 208 l 875 1010 l 905 1010 l 905 0 m 526 1117 q 436 1141 477 1117 q 372 1205 396 1165 q 349 1295 349 1246 l 380 1295 q 423 1190 380 1233 q 526 1147 466 1147 q 630 1190 587 1147 q 673 1295 673 1233 l 704 1295 q 680 1205 704 1246 q 616 1141 656 1165 q 526 1117 576 1117 z "},"Ӣ":{"ha":1053,"x_min":148,"x_max":905,"o":"m 905 0 l 873 0 l 873 766 q 874 836 873 801 q 875 907 875 871 q 876 977 876 942 l 886 977 q 835 907 860 942 q 785 836 810 871 q 734 766 760 801 l 178 0 l 148 0 l 148 1010 l 179 1010 l 179 243 q 178 173 179 208 q 177 103 178 138 q 176 33 176 68 l 166 33 q 217 103 192 68 q 267 173 241 138 q 317 243 292 208 l 875 1010 l 905 1010 l 905 0 m 684 1234 l 684 1203 l 368 1203 l 368 1234 l 684 1234 z "},"Ӥ":{"ha":1053,"x_min":148,"x_max":905,"o":"m 905 0 l 873 0 l 873 766 q 874 836 873 801 q 875 907 875 871 q 876 977 876 942 l 886 977 q 835 907 860 942 q 785 836 810 871 q 734 766 760 801 l 178 0 l 148 0 l 148 1010 l 179 1010 l 179 243 q 178 173 179 208 q 177 103 178 138 q 176 33 176 68 l 166 33 q 217 103 192 68 q 267 173 241 138 q 317 243 292 208 l 875 1010 l 905 1010 l 905 0 m 663 1187 q 641 1196 650 1187 q 631 1219 631 1206 q 641 1241 631 1232 q 663 1251 650 1251 q 686 1241 677 1251 q 695 1219 695 1232 q 686 1196 695 1206 q 663 1187 677 1187 m 389 1187 q 367 1196 376 1187 q 357 1219 357 1206 q 367 1241 357 1232 q 389 1251 376 1251 q 412 1241 403 1251 q 421 1219 421 1232 q 412 1196 421 1206 q 389 1187 403 1187 z "},"Ҋ":{"ha":1053,"x_min":148,"x_max":1014,"o":"m 905 0 l 873 0 l 873 766 q 874 836 873 801 q 875 907 875 871 q 876 977 876 942 l 886 977 q 835 907 860 942 q 785 836 810 871 q 734 766 760 801 l 178 0 l 148 0 l 148 1010 l 179 1010 l 179 243 q 178 173 179 208 q 177 103 178 138 q 176 33 176 68 l 166 33 q 217 103 192 68 q 267 173 241 138 q 317 243 292 208 l 875 1010 l 905 1010 l 905 0 m 526 1117 q 436 1141 477 1117 q 372 1205 396 1165 q 349 1295 349 1246 l 380 1295 q 423 1190 380 1233 q 526 1147 466 1147 q 630 1190 587 1147 q 673 1295 673 1233 l 704 1295 q 680 1205 704 1246 q 616 1141 656 1165 q 526 1117 576 1117 m 882 -217 l 968 0 l 883 0 l 883 31 l 1014 31 l 913 -217 l 882 -217 z "},"Ͷ":{"ha":1053,"x_min":148,"x_max":905,"o":"m 905 0 l 873 0 l 873 766 q 874 836 873 801 q 875 907 875 871 q 876 977 876 942 l 886 977 q 835 907 860 942 q 785 836 810 871 q 734 766 760 801 l 178 0 l 148 0 l 148 1010 l 179 1010 l 179 243 q 178 173 179 208 q 177 103 178 138 q 176 33 176 68 l 166 33 q 217 103 192 68 q 267 173 241 138 q 317 243 292 208 l 875 1010 l 905 1010 l 905 0 z "},"Ν":{"ha":1053,"x_min":148,"x_max":905,"o":"m 148 0 l 148 1010 l 178 1010 l 736 243 q 786 173 762 208 q 836 103 811 138 q 886 33 861 68 l 876 33 q 875 103 876 68 q 874 173 875 138 q 873 243 873 208 l 873 1010 l 905 1010 l 905 0 l 875 0 l 318 766 q 268 836 292 801 q 218 907 243 871 q 167 977 193 942 l 176 977 q 177 907 176 942 q 178 836 178 871 q 179 766 179 801 l 179 0 l 148 0 z "},"ǋ":{"ha":1337,"x_min":148,"x_max":1228,"o":"m 148 0 l 148 1010 l 178 1010 l 736 243 q 786 173 762 208 q 836 103 811 138 q 886 33 861 68 l 876 33 q 875 103 876 68 q 874 173 875 138 q 873 243 873 208 l 873 1010 l 905 1010 l 905 0 l 875 0 l 318 766 q 268 836 292 801 q 218 907 243 871 q 167 977 193 942 l 176 977 q 177 907 176 942 q 178 836 178 871 q 179 766 179 801 l 179 0 l 148 0 m 1181 749 l 1213 749 l 1213 -110 q 1188 -202 1213 -163 q 1125 -262 1164 -241 q 1039 -283 1086 -283 l 1027 -283 l 1027 -252 l 1039 -252 q 1138 -214 1095 -252 q 1181 -110 1181 -176 l 1181 749 m 1197 925 q 1175 934 1184 925 q 1165 957 1165 943 q 1175 980 1165 970 q 1197 989 1184 989 q 1220 980 1211 989 q 1229 957 1229 970 q 1220 935 1229 944 q 1197 925 1211 925 z "},"O":{"ha":1019,"x_min":91,"x_max":928,"o":"m 510 -13 q 291 52 385 -13 q 143 234 196 117 q 91 505 91 351 q 144 776 91 659 q 291 958 197 893 q 510 1023 385 1023 q 728 958 634 1023 q 875 776 823 893 q 928 505 928 659 q 875 234 928 351 q 728 52 823 117 q 510 -13 634 -13 m 510 18 q 712 79 625 18 q 848 250 799 140 q 897 505 897 360 q 848 760 897 650 q 712 931 799 869 q 510 992 625 992 q 308 931 395 992 q 171 761 220 871 q 122 505 122 651 q 171 251 122 361 q 307 80 219 141 q 510 18 394 18 z "},"Ö":{"ha":1019,"x_min":91,"x_max":928,"o":"m 510 -13 q 291 52 385 -13 q 143 234 196 117 q 91 505 91 351 q 144 776 91 659 q 291 958 197 893 q 510 1023 385 1023 q 728 958 634 1023 q 875 776 823 893 q 928 505 928 659 q 875 234 928 351 q 728 52 823 117 q 510 -13 634 -13 m 510 18 q 712 79 625 18 q 848 250 799 140 q 897 505 897 360 q 848 760 897 650 q 712 931 799 869 q 510 992 625 992 q 308 931 395 992 q 171 761 220 871 q 122 505 122 651 q 171 251 122 361 q 307 80 219 141 q 510 18 394 18 m 647 1187 q 625 1196 634 1187 q 615 1219 615 1206 q 625 1241 615 1232 q 647 1251 634 1251 q 670 1241 661 1251 q 679 1219 679 1232 q 670 1196 679 1206 q 647 1187 661 1187 m 373 1187 q 351 1196 360 1187 q 341 1219 341 1206 q 351 1241 341 1232 q 373 1251 360 1251 q 396 1241 387 1251 q 405 1219 405 1232 q 396 1196 405 1206 q 373 1187 387 1187 z "},"Õ":{"ha":1019,"x_min":91,"x_max":928,"o":"m 510 -13 q 291 52 385 -13 q 143 234 196 117 q 91 505 91 351 q 144 776 91 659 q 291 958 197 893 q 510 1023 385 1023 q 728 958 634 1023 q 875 776 823 893 q 928 505 928 659 q 875 234 928 351 q 728 52 823 117 q 510 -13 634 -13 m 510 18 q 712 79 625 18 q 848 250 799 140 q 897 505 897 360 q 848 760 897 650 q 712 931 799 869 q 510 992 625 992 q 308 931 395 992 q 171 761 220 871 q 122 505 122 651 q 171 251 122 361 q 307 80 219 141 q 510 18 394 18 m 597 1163 q 548 1175 569 1163 q 509 1203 527 1187 q 473 1231 492 1219 q 431 1243 455 1243 q 377 1223 398 1243 q 353 1168 356 1203 l 321 1168 q 354 1244 326 1214 q 426 1274 382 1274 q 480 1262 458 1274 q 519 1234 502 1250 q 554 1206 537 1219 q 592 1194 571 1194 q 640 1211 621 1194 q 667 1267 659 1228 l 699 1267 q 663 1191 690 1219 q 597 1163 636 1163 z "},"Ø":{"ha":1019,"x_min":91,"x_max":928,"o":"m 510 -13 q 291 52 385 -13 q 143 234 196 117 q 91 505 91 351 q 144 776 91 659 q 291 958 197 893 q 510 1023 385 1023 q 728 958 634 1023 q 875 776 823 893 q 928 505 928 659 q 875 234 928 351 q 728 52 823 117 q 510 -13 634 -13 m 510 18 q 712 79 625 18 q 848 250 799 140 q 897 505 897 360 q 848 760 897 650 q 712 931 799 869 q 510 992 625 992 q 308 931 395 992 q 171 761 220 871 q 122 505 122 651 q 171 251 122 361 q 307 80 219 141 q 510 18 394 18 m 195 -9 l 169 9 l 825 1019 l 851 1002 l 195 -9 z "},"Ơ":{"ha":1019,"x_min":91,"x_max":928,"o":"m 509 998 l 509 1024 q 578 1022 550 1024 q 638 1017 607 1020 q 717 1013 669 1015 q 844 1010 764 1010 q 897 1063 897 1010 l 897 1156 l 928 1156 l 928 1063 q 906 1001 928 1023 q 844 979 884 979 q 761 982 803 979 q 676 988 719 985 q 592 995 634 992 q 509 998 550 998 m 510 -13 q 291 52 385 -13 q 143 234 196 117 q 91 505 91 351 q 144 776 91 659 q 291 958 197 893 q 510 1023 385 1023 q 728 958 634 1023 q 875 776 823 893 q 928 505 928 659 q 875 234 928 351 q 728 52 823 117 q 510 -13 634 -13 m 510 18 q 712 79 625 18 q 848 250 799 140 q 897 505 897 360 q 848 760 897 650 q 712 931 799 869 q 510 992 625 992 q 308 931 395 992 q 171 761 220 871 q 122 505 122 651 q 171 251 122 361 q 307 80 219 141 q 510 18 394 18 z "},"Ò":{"ha":1019,"x_min":91,"x_max":928,"o":"m 510 -13 q 291 52 385 -13 q 143 234 196 117 q 91 505 91 351 q 144 776 91 659 q 291 958 197 893 q 510 1023 385 1023 q 728 958 634 1023 q 875 776 823 893 q 928 505 928 659 q 875 234 928 351 q 728 52 823 117 q 510 -13 634 -13 m 510 18 q 712 79 625 18 q 848 250 799 140 q 897 505 897 360 q 848 760 897 650 q 712 931 799 869 q 510 992 625 992 q 308 931 395 992 q 171 761 220 871 q 122 505 122 651 q 171 251 122 361 q 307 80 219 141 q 510 18 394 18 m 498 1118 l 389 1308 l 430 1308 l 528 1118 l 498 1118 z "},"Ó":{"ha":1019,"x_min":91,"x_max":928,"o":"m 510 -13 q 291 52 385 -13 q 143 234 196 117 q 91 505 91 351 q 144 776 91 659 q 291 958 197 893 q 510 1023 385 1023 q 728 958 634 1023 q 875 776 823 893 q 928 505 928 659 q 875 234 928 351 q 728 52 823 117 q 510 -13 634 -13 m 510 18 q 712 79 625 18 q 848 250 799 140 q 897 505 897 360 q 848 760 897 650 q 712 931 799 869 q 510 992 625 992 q 308 931 395 992 q 171 761 220 871 q 122 505 122 651 q 171 251 122 361 q 307 80 219 141 q 510 18 394 18 m 494 1118 l 592 1308 l 631 1308 l 524 1118 l 494 1118 z "},"Ô":{"ha":1019,"x_min":91,"x_max":928,"o":"m 510 -13 q 291 52 385 -13 q 143 234 196 117 q 91 505 91 351 q 144 776 91 659 q 291 958 197 893 q 510 1023 385 1023 q 728 958 634 1023 q 875 776 823 893 q 928 505 928 659 q 875 234 928 351 q 728 52 823 117 q 510 -13 634 -13 m 510 18 q 712 79 625 18 q 848 250 799 140 q 897 505 897 360 q 848 760 897 650 q 712 931 799 869 q 510 992 625 992 q 308 931 395 992 q 171 761 220 871 q 122 505 122 651 q 171 251 122 361 q 307 80 219 141 q 510 18 394 18 m 362 1126 l 325 1126 l 325 1129 l 503 1314 l 516 1314 l 696 1129 l 696 1126 l 657 1126 l 509 1279 l 362 1126 z "},"Ō":{"ha":1019,"x_min":91,"x_max":928,"o":"m 510 -13 q 291 52 385 -13 q 143 234 196 117 q 91 505 91 351 q 144 776 91 659 q 291 958 197 893 q 510 1023 385 1023 q 728 958 634 1023 q 875 776 823 893 q 928 505 928 659 q 875 234 928 351 q 728 52 823 117 q 510 -13 634 -13 m 510 18 q 712 79 625 18 q 848 250 799 140 q 897 505 897 360 q 848 760 897 650 q 712 931 799 869 q 510 992 625 992 q 308 931 395 992 q 171 761 220 871 q 122 505 122 651 q 171 251 122 361 q 307 80 219 141 q 510 18 394 18 m 667 1234 l 667 1203 l 352 1203 l 352 1234 l 667 1234 z "},"Ŏ":{"ha":1019,"x_min":91,"x_max":928,"o":"m 510 -13 q 291 52 385 -13 q 143 234 196 117 q 91 505 91 351 q 144 776 91 659 q 291 958 197 893 q 510 1023 385 1023 q 728 958 634 1023 q 875 776 823 893 q 928 505 928 659 q 875 234 928 351 q 728 52 823 117 q 510 -13 634 -13 m 510 18 q 712 79 625 18 q 848 250 799 140 q 897 505 897 360 q 848 760 897 650 q 712 931 799 869 q 510 992 625 992 q 308 931 395 992 q 171 761 220 871 q 122 505 122 651 q 171 251 122 361 q 307 80 219 141 q 510 18 394 18 m 510 1117 q 420 1141 460 1117 q 356 1205 380 1165 q 332 1295 332 1246 l 363 1295 q 407 1190 363 1233 q 510 1147 450 1147 q 613 1190 570 1147 q 656 1295 656 1233 l 688 1295 q 664 1205 688 1246 q 600 1141 640 1165 q 510 1117 560 1117 z "},"Ő":{"ha":1019,"x_min":91,"x_max":928,"o":"m 510 -13 q 291 52 385 -13 q 143 234 196 117 q 91 505 91 351 q 144 776 91 659 q 291 958 197 893 q 510 1023 385 1023 q 728 958 634 1023 q 875 776 823 893 q 928 505 928 659 q 875 234 928 351 q 728 52 823 117 q 510 -13 634 -13 m 510 18 q 712 79 625 18 q 848 250 799 140 q 897 505 897 360 q 848 760 897 650 q 712 931 799 869 q 510 992 625 992 q 308 931 395 992 q 171 761 220 871 q 122 505 122 651 q 171 251 122 361 q 307 80 219 141 q 510 18 394 18 m 394 1118 l 363 1118 l 456 1308 l 492 1308 l 394 1118 m 570 1118 l 539 1118 l 650 1308 l 688 1308 l 570 1118 z "},"Ǒ":{"ha":1019,"x_min":91,"x_max":928,"o":"m 510 -13 q 291 52 385 -13 q 143 234 196 117 q 91 505 91 351 q 144 776 91 659 q 291 958 197 893 q 510 1023 385 1023 q 728 958 634 1023 q 875 776 823 893 q 928 505 928 659 q 875 234 928 351 q 728 52 823 117 q 510 -13 634 -13 m 510 18 q 712 79 625 18 q 848 250 799 140 q 897 505 897 360 q 848 760 897 650 q 712 931 799 869 q 510 992 625 992 q 308 931 395 992 q 171 761 220 871 q 122 505 122 651 q 171 251 122 361 q 307 80 219 141 q 510 18 394 18 m 362 1312 l 509 1158 l 657 1312 l 696 1312 l 696 1308 l 516 1122 l 503 1122 l 325 1308 l 325 1312 l 362 1312 z "},"Ǫ":{"ha":1019,"x_min":91,"x_max":928,"o":"m 510 -13 q 291 52 385 -13 q 143 234 196 117 q 91 505 91 351 q 144 776 91 659 q 291 958 197 893 q 510 1023 385 1023 q 728 958 634 1023 q 875 776 823 893 q 928 505 928 659 q 875 234 928 351 q 728 52 823 117 q 510 -13 634 -13 m 510 18 q 712 79 625 18 q 848 250 799 140 q 897 505 897 360 q 848 760 897 650 q 712 931 799 869 q 510 992 625 992 q 308 931 395 992 q 171 761 220 871 q 122 505 122 651 q 171 251 122 361 q 307 80 219 141 q 510 18 394 18 m 576 -288 q 493 -261 530 -288 q 456 -177 456 -235 q 480 -99 456 -132 q 545 -39 505 -66 q 633 17 585 -12 q 729 85 681 46 q 817 179 777 123 q 881 313 857 234 q 905 505 905 393 l 928 505 q 904 308 928 391 q 841 168 880 226 q 754 70 802 111 q 661 0 707 30 q 574 -55 614 -29 q 511 -109 535 -81 q 488 -177 488 -138 q 515 -239 488 -221 q 576 -256 542 -256 q 595 -255 586 -256 q 612 -251 604 -254 l 621 -280 q 599 -286 610 -284 q 576 -288 588 -288 z "},"Ǭ":{"ha":1019,"x_min":91,"x_max":928,"o":"m 510 -13 q 291 52 385 -13 q 143 234 196 117 q 91 505 91 351 q 144 776 91 659 q 291 958 197 893 q 510 1023 385 1023 q 728 958 634 1023 q 875 776 823 893 q 928 505 928 659 q 875 234 928 351 q 728 52 823 117 q 510 -13 634 -13 m 510 18 q 712 79 625 18 q 848 250 799 140 q 897 505 897 360 q 848 760 897 650 q 712 931 799 869 q 510 992 625 992 q 308 931 395 992 q 171 761 220 871 q 122 505 122 651 q 171 251 122 361 q 307 80 219 141 q 510 18 394 18 m 576 -288 q 493 -261 530 -288 q 456 -177 456 -235 q 480 -99 456 -132 q 545 -39 505 -66 q 633 17 585 -12 q 729 85 681 46 q 817 179 777 123 q 881 313 857 234 q 905 505 905 393 l 928 505 q 904 308 928 391 q 841 168 880 226 q 754 70 802 111 q 661 0 707 30 q 574 -55 614 -29 q 511 -109 535 -81 q 488 -177 488 -138 q 515 -239 488 -221 q 576 -256 542 -256 q 595 -255 586 -256 q 612 -251 604 -254 l 621 -280 q 599 -286 610 -284 q 576 -288 588 -288 m 667 1234 l 667 1203 l 352 1203 l 352 1234 l 667 1234 z "},"Ȍ":{"ha":1019,"x_min":91,"x_max":928,"o":"m 510 -13 q 291 52 385 -13 q 143 234 196 117 q 91 505 91 351 q 144 776 91 659 q 291 958 197 893 q 510 1023 385 1023 q 728 958 634 1023 q 875 776 823 893 q 928 505 928 659 q 875 234 928 351 q 728 52 823 117 q 510 -13 634 -13 m 510 18 q 712 79 625 18 q 848 250 799 140 q 897 505 897 360 q 848 760 897 650 q 712 931 799 869 q 510 992 625 992 q 308 931 395 992 q 171 761 220 871 q 122 505 122 651 q 171 251 122 361 q 307 80 219 141 q 510 18 394 18 m 585 1118 l 488 1308 l 524 1308 l 616 1118 l 585 1118 m 410 1118 l 291 1308 l 329 1308 l 441 1118 l 410 1118 z "},"Ȏ":{"ha":1019,"x_min":91,"x_max":928,"o":"m 510 -13 q 291 52 385 -13 q 143 234 196 117 q 91 505 91 351 q 144 776 91 659 q 291 958 197 893 q 510 1023 385 1023 q 728 958 634 1023 q 875 776 823 893 q 928 505 928 659 q 875 234 928 351 q 728 52 823 117 q 510 -13 634 -13 m 510 18 q 712 79 625 18 q 848 250 799 140 q 897 505 897 360 q 848 760 897 650 q 712 931 799 869 q 510 992 625 992 q 308 931 395 992 q 171 761 220 871 q 122 505 122 651 q 171 251 122 361 q 307 80 219 141 q 510 18 394 18 m 509 1289 q 600 1267 559 1289 q 664 1208 640 1245 q 688 1126 688 1171 l 658 1126 q 614 1220 658 1181 q 510 1258 571 1258 q 405 1220 448 1258 q 361 1126 361 1181 l 332 1126 q 356 1208 332 1171 q 420 1267 380 1245 q 509 1289 460 1289 z "},"Ȫ":{"ha":1019,"x_min":91,"x_max":928,"o":"m 510 -13 q 291 52 385 -13 q 143 234 196 117 q 91 505 91 351 q 144 776 91 659 q 291 958 197 893 q 510 1023 385 1023 q 728 958 634 1023 q 875 776 823 893 q 928 505 928 659 q 875 234 928 351 q 728 52 823 117 q 510 -13 634 -13 m 510 18 q 712 79 625 18 q 848 250 799 140 q 897 505 897 360 q 848 760 897 650 q 712 931 799 869 q 510 992 625 992 q 308 931 395 992 q 171 761 220 871 q 122 505 122 651 q 171 251 122 361 q 307 80 219 141 q 510 18 394 18 m 655 1164 q 633 1174 642 1164 q 623 1196 623 1183 q 633 1219 623 1210 q 655 1228 642 1228 q 678 1219 669 1228 q 687 1196 687 1210 q 678 1174 687 1183 q 655 1164 669 1164 m 381 1164 q 359 1174 368 1164 q 349 1196 349 1183 q 359 1219 349 1210 q 381 1228 368 1228 q 404 1219 395 1228 q 413 1196 413 1210 q 404 1174 413 1183 q 381 1164 395 1164 m 667 1402 l 667 1371 l 352 1371 l 352 1402 l 667 1402 z "},"Ȭ":{"ha":1019,"x_min":91,"x_max":928,"o":"m 510 -13 q 291 52 385 -13 q 143 234 196 117 q 91 505 91 351 q 144 776 91 659 q 291 958 197 893 q 510 1023 385 1023 q 728 958 634 1023 q 875 776 823 893 q 928 505 928 659 q 875 234 928 351 q 728 52 823 117 q 510 -13 634 -13 m 510 18 q 712 79 625 18 q 848 250 799 140 q 897 505 897 360 q 848 760 897 650 q 712 931 799 869 q 510 992 625 992 q 308 931 395 992 q 171 761 220 871 q 122 505 122 651 q 171 251 122 361 q 307 80 219 141 q 510 18 394 18 m 597 1141 q 548 1153 569 1141 q 509 1181 527 1165 q 473 1208 492 1196 q 431 1221 455 1221 q 377 1201 398 1221 q 353 1145 356 1181 l 321 1145 q 354 1222 326 1192 q 426 1252 382 1252 q 480 1240 458 1252 q 519 1212 502 1227 q 554 1184 537 1196 q 592 1172 571 1172 q 640 1189 621 1172 q 667 1244 659 1206 l 699 1244 q 663 1168 690 1196 q 597 1141 636 1141 m 667 1402 l 667 1371 l 352 1371 l 352 1402 l 667 1402 z "},"Ȯ":{"ha":1019,"x_min":91,"x_max":928,"o":"m 510 -13 q 291 52 385 -13 q 143 234 196 117 q 91 505 91 351 q 144 776 91 659 q 291 958 197 893 q 510 1023 385 1023 q 728 958 634 1023 q 875 776 823 893 q 928 505 928 659 q 875 234 928 351 q 728 52 823 117 q 510 -13 634 -13 m 510 18 q 712 79 625 18 q 848 250 799 140 q 897 505 897 360 q 848 760 897 650 q 712 931 799 869 q 510 992 625 992 q 308 931 395 992 q 171 761 220 871 q 122 505 122 651 q 171 251 122 361 q 307 80 219 141 q 510 18 394 18 m 510 1187 q 488 1196 497 1187 q 478 1219 478 1205 q 488 1241 478 1232 q 510 1251 497 1251 q 533 1241 524 1251 q 542 1219 542 1232 q 533 1196 542 1206 q 510 1187 524 1187 z "},"Ȱ":{"ha":1019,"x_min":91,"x_max":928,"o":"m 510 -13 q 291 52 385 -13 q 143 234 196 117 q 91 505 91 351 q 144 776 91 659 q 291 958 197 893 q 510 1023 385 1023 q 728 958 634 1023 q 875 776 823 893 q 928 505 928 659 q 875 234 928 351 q 728 52 823 117 q 510 -13 634 -13 m 510 18 q 712 79 625 18 q 848 250 799 140 q 897 505 897 360 q 848 760 897 650 q 712 931 799 869 q 510 992 625 992 q 308 931 395 992 q 171 761 220 871 q 122 505 122 651 q 171 251 122 361 q 307 80 219 141 q 510 18 394 18 m 510 1164 q 488 1174 497 1164 q 478 1196 478 1183 q 488 1219 478 1210 q 510 1228 497 1228 q 533 1219 524 1228 q 542 1196 542 1210 q 533 1174 542 1183 q 510 1164 524 1164 m 668 1402 l 668 1371 l 352 1371 l 352 1402 l 668 1402 z "},"Ṍ":{"ha":1019,"x_min":91,"x_max":928,"o":"m 510 -13 q 291 52 385 -13 q 143 234 196 117 q 91 505 91 351 q 144 776 91 659 q 291 958 197 893 q 510 1023 385 1023 q 728 958 634 1023 q 875 776 823 893 q 928 505 928 659 q 875 234 928 351 q 728 52 823 117 q 510 -13 634 -13 m 510 18 q 712 79 625 18 q 848 250 799 140 q 897 505 897 360 q 848 760 897 650 q 712 931 799 869 q 510 992 625 992 q 308 931 395 992 q 171 761 220 871 q 122 505 122 651 q 171 251 122 361 q 307 80 219 141 q 510 18 394 18 m 597 1141 q 548 1153 569 1141 q 509 1181 527 1165 q 473 1208 492 1196 q 431 1221 455 1221 q 377 1201 398 1221 q 353 1145 356 1181 l 321 1145 q 354 1222 326 1192 q 426 1252 382 1252 q 480 1240 458 1252 q 519 1212 502 1227 q 554 1184 537 1196 q 592 1172 571 1172 q 640 1189 621 1172 q 667 1244 659 1206 l 699 1244 q 663 1168 690 1196 q 597 1141 636 1141 m 490 1343 l 600 1529 l 640 1529 l 522 1343 l 490 1343 z "},"Ṏ":{"ha":1019,"x_min":91,"x_max":928,"o":"m 510 -13 q 291 52 385 -13 q 143 234 196 117 q 91 505 91 351 q 144 776 91 659 q 291 958 197 893 q 510 1023 385 1023 q 728 958 634 1023 q 875 776 823 893 q 928 505 928 659 q 875 234 928 351 q 728 52 823 117 q 510 -13 634 -13 m 510 18 q 712 79 625 18 q 848 250 799 140 q 897 505 897 360 q 848 760 897 650 q 712 931 799 869 q 510 992 625 992 q 308 931 395 992 q 171 761 220 871 q 122 505 122 651 q 171 251 122 361 q 307 80 219 141 q 510 18 394 18 m 597 1141 q 548 1153 569 1141 q 509 1181 527 1165 q 473 1208 492 1196 q 431 1221 455 1221 q 377 1201 398 1221 q 353 1145 356 1181 l 321 1145 q 354 1222 326 1192 q 426 1252 382 1252 q 480 1240 458 1252 q 519 1212 502 1227 q 554 1184 537 1196 q 592 1172 571 1172 q 640 1189 621 1172 q 667 1244 659 1206 l 699 1244 q 663 1168 690 1196 q 597 1141 636 1141 m 658 1355 q 635 1364 645 1355 q 626 1388 626 1374 q 635 1410 626 1400 q 658 1419 645 1419 q 681 1410 671 1419 q 690 1388 690 1400 q 681 1364 690 1374 q 658 1355 671 1355 m 384 1355 q 361 1364 371 1355 q 352 1388 352 1374 q 361 1410 352 1400 q 384 1419 371 1419 q 407 1410 397 1419 q 416 1388 416 1400 q 407 1364 416 1374 q 384 1355 397 1355 z "},"Ṑ":{"ha":1019,"x_min":91,"x_max":928,"o":"m 510 -13 q 291 52 385 -13 q 143 234 196 117 q 91 505 91 351 q 144 776 91 659 q 291 958 197 893 q 510 1023 385 1023 q 728 958 634 1023 q 875 776 823 893 q 928 505 928 659 q 875 234 928 351 q 728 52 823 117 q 510 -13 634 -13 m 510 18 q 712 79 625 18 q 848 250 799 140 q 897 505 897 360 q 848 760 897 650 q 712 931 799 869 q 510 992 625 992 q 308 931 395 992 q 171 761 220 871 q 122 505 122 651 q 171 251 122 361 q 307 80 219 141 q 510 18 394 18 m 667 1212 l 667 1181 l 352 1181 l 352 1212 l 667 1212 m 498 1343 l 379 1529 l 420 1529 l 530 1343 l 498 1343 z "},"Ṓ":{"ha":1019,"x_min":91,"x_max":928,"o":"m 510 -13 q 291 52 385 -13 q 143 234 196 117 q 91 505 91 351 q 144 776 91 659 q 291 958 197 893 q 510 1023 385 1023 q 728 958 634 1023 q 875 776 823 893 q 928 505 928 659 q 875 234 928 351 q 728 52 823 117 q 510 -13 634 -13 m 510 18 q 712 79 625 18 q 848 250 799 140 q 897 505 897 360 q 848 760 897 650 q 712 931 799 869 q 510 992 625 992 q 308 931 395 992 q 171 761 220 871 q 122 505 122 651 q 171 251 122 361 q 307 80 219 141 q 510 18 394 18 m 667 1212 l 667 1181 l 352 1181 l 352 1212 l 667 1212 m 497 1343 l 607 1529 l 648 1529 l 529 1343 l 497 1343 z "},"Ọ":{"ha":1019,"x_min":91,"x_max":928,"o":"m 510 -13 q 291 52 385 -13 q 143 234 196 117 q 91 505 91 351 q 144 776 91 659 q 291 958 197 893 q 510 1023 385 1023 q 728 958 634 1023 q 875 776 823 893 q 928 505 928 659 q 875 234 928 351 q 728 52 823 117 q 510 -13 634 -13 m 510 18 q 712 79 625 18 q 848 250 799 140 q 897 505 897 360 q 848 760 897 650 q 712 931 799 869 q 510 992 625 992 q 308 931 395 992 q 171 761 220 871 q 122 505 122 651 q 171 251 122 361 q 307 80 219 141 q 510 18 394 18 m 510 -220 q 488 -211 497 -220 q 478 -189 478 -202 q 488 -166 478 -175 q 510 -157 497 -157 q 533 -166 524 -157 q 542 -189 542 -175 q 533 -211 542 -201 q 510 -220 524 -220 z "},"Ỏ":{"ha":1019,"x_min":91,"x_max":928,"o":"m 510 -13 q 291 52 385 -13 q 143 234 196 117 q 91 505 91 351 q 144 776 91 659 q 291 958 197 893 q 510 1023 385 1023 q 728 958 634 1023 q 875 776 823 893 q 928 505 928 659 q 875 234 928 351 q 728 52 823 117 q 510 -13 634 -13 m 510 18 q 712 79 625 18 q 848 250 799 140 q 897 505 897 360 q 848 760 897 650 q 712 931 799 869 q 510 992 625 992 q 308 931 395 992 q 171 761 220 871 q 122 505 122 651 q 171 251 122 361 q 307 80 219 141 q 510 18 394 18 m 526 1118 l 494 1118 l 530 1187 q 550 1255 555 1233 q 497 1278 546 1278 l 426 1278 l 426 1308 l 497 1308 q 551 1298 531 1308 q 578 1271 571 1289 q 580 1230 585 1253 q 558 1177 574 1206 l 526 1118 z "},"Ố":{"ha":1019,"x_min":91,"x_max":928,"o":"m 510 -13 q 291 52 385 -13 q 143 234 196 117 q 91 505 91 351 q 144 776 91 659 q 291 958 197 893 q 510 1023 385 1023 q 728 958 634 1023 q 875 776 823 893 q 928 505 928 659 q 875 234 928 351 q 728 52 823 117 q 510 -13 634 -13 m 510 18 q 712 79 625 18 q 848 250 799 140 q 897 505 897 360 q 848 760 897 650 q 712 931 799 869 q 510 992 625 992 q 308 931 395 992 q 171 761 220 871 q 122 505 122 651 q 171 251 122 361 q 307 80 219 141 q 510 18 394 18 m 362 1101 l 325 1101 l 325 1105 l 503 1291 l 516 1291 l 696 1105 l 696 1101 l 657 1101 l 509 1255 l 362 1101 m 619 1339 l 729 1525 l 770 1525 l 651 1339 l 619 1339 z "},"Ồ":{"ha":1019,"x_min":91,"x_max":928,"o":"m 510 -13 q 291 52 385 -13 q 143 234 196 117 q 91 505 91 351 q 144 776 91 659 q 291 958 197 893 q 510 1023 385 1023 q 728 958 634 1023 q 875 776 823 893 q 928 505 928 659 q 875 234 928 351 q 728 52 823 117 q 510 -13 634 -13 m 510 18 q 712 79 625 18 q 848 250 799 140 q 897 505 897 360 q 848 760 897 650 q 712 931 799 869 q 510 992 625 992 q 308 931 395 992 q 171 761 220 871 q 122 505 122 651 q 171 251 122 361 q 307 80 219 141 q 510 18 394 18 m 362 1101 l 325 1101 l 325 1105 l 503 1291 l 516 1291 l 696 1105 l 696 1101 l 657 1101 l 509 1255 l 362 1101 m 664 1339 l 545 1525 l 586 1525 l 696 1339 l 664 1339 z "},"Ổ":{"ha":1019,"x_min":91,"x_max":928,"o":"m 510 -13 q 291 52 385 -13 q 143 234 196 117 q 91 505 91 351 q 144 776 91 659 q 291 958 197 893 q 510 1023 385 1023 q 728 958 634 1023 q 875 776 823 893 q 928 505 928 659 q 875 234 928 351 q 728 52 823 117 q 510 -13 634 -13 m 510 18 q 712 79 625 18 q 848 250 799 140 q 897 505 897 360 q 848 760 897 650 q 712 931 799 869 q 510 992 625 992 q 308 931 395 992 q 171 761 220 871 q 122 505 122 651 q 171 251 122 361 q 307 80 219 141 q 510 18 394 18 m 362 1101 l 325 1101 l 325 1105 l 503 1291 l 516 1291 l 696 1105 l 696 1101 l 657 1101 l 509 1255 l 362 1101 m 638 1339 l 607 1339 l 645 1404 q 667 1472 672 1449 q 612 1495 661 1495 l 541 1495 l 541 1525 l 612 1525 q 679 1507 658 1525 q 699 1460 700 1490 q 673 1394 697 1431 l 638 1339 z "},"Ỗ":{"ha":1019,"x_min":91,"x_max":928,"o":"m 510 -13 q 291 52 385 -13 q 143 234 196 117 q 91 505 91 351 q 144 776 91 659 q 291 958 197 893 q 510 1023 385 1023 q 728 958 634 1023 q 875 776 823 893 q 928 505 928 659 q 875 234 928 351 q 728 52 823 117 q 510 -13 634 -13 m 510 18 q 712 79 625 18 q 848 250 799 140 q 897 505 897 360 q 848 760 897 650 q 712 931 799 869 q 510 992 625 992 q 308 931 395 992 q 171 761 220 871 q 122 505 122 651 q 171 251 122 361 q 307 80 219 141 q 510 18 394 18 m 362 1101 l 324 1101 l 324 1105 l 503 1291 l 515 1291 l 695 1105 l 695 1101 l 657 1101 l 509 1255 l 362 1101 m 597 1380 q 548 1392 569 1380 q 509 1420 527 1404 q 473 1448 492 1436 q 431 1460 455 1460 q 377 1440 398 1460 q 353 1385 356 1420 l 321 1385 q 354 1461 326 1431 q 426 1491 382 1491 q 480 1479 458 1491 q 519 1451 502 1467 q 554 1423 537 1436 q 592 1411 571 1411 q 640 1428 621 1411 q 667 1484 659 1445 l 699 1484 q 663 1408 690 1436 q 597 1380 636 1380 z "},"Ộ":{"ha":1019,"x_min":91,"x_max":928,"o":"m 510 -13 q 291 52 385 -13 q 143 234 196 117 q 91 505 91 351 q 144 776 91 659 q 291 958 197 893 q 510 1023 385 1023 q 728 958 634 1023 q 875 776 823 893 q 928 505 928 659 q 875 234 928 351 q 728 52 823 117 q 510 -13 634 -13 m 510 18 q 712 79 625 18 q 848 250 799 140 q 897 505 897 360 q 848 760 897 650 q 712 931 799 869 q 510 992 625 992 q 308 931 395 992 q 171 761 220 871 q 122 505 122 651 q 171 251 122 361 q 307 80 219 141 q 510 18 394 18 m 362 1126 l 325 1126 l 325 1129 l 503 1314 l 516 1314 l 696 1129 l 696 1126 l 657 1126 l 509 1279 l 362 1126 m 510 -220 q 488 -211 497 -220 q 478 -189 478 -202 q 488 -166 478 -175 q 510 -157 497 -157 q 533 -166 524 -157 q 542 -189 542 -175 q 533 -211 542 -201 q 510 -220 524 -220 z "},"Ớ":{"ha":1019,"x_min":91,"x_max":928,"o":"m 509 998 l 509 1024 q 578 1022 550 1024 q 638 1017 607 1020 q 717 1013 669 1015 q 844 1010 764 1010 q 897 1063 897 1010 l 897 1156 l 928 1156 l 928 1063 q 906 1001 928 1023 q 844 979 884 979 q 761 982 803 979 q 676 988 719 985 q 592 995 634 992 q 509 998 550 998 m 510 -13 q 291 52 385 -13 q 143 234 196 117 q 91 505 91 351 q 144 776 91 659 q 291 958 197 893 q 510 1023 385 1023 q 728 958 634 1023 q 875 776 823 893 q 928 505 928 659 q 875 234 928 351 q 728 52 823 117 q 510 -13 634 -13 m 510 18 q 712 79 625 18 q 848 250 799 140 q 897 505 897 360 q 848 760 897 650 q 712 931 799 869 q 510 992 625 992 q 308 931 395 992 q 171 761 220 871 q 122 505 122 651 q 171 251 122 361 q 307 80 219 141 q 510 18 394 18 m 494 1118 l 592 1308 l 631 1308 l 524 1118 l 494 1118 z "},"Ờ":{"ha":1019,"x_min":91,"x_max":928,"o":"m 509 998 l 509 1024 q 578 1022 550 1024 q 638 1017 607 1020 q 717 1013 669 1015 q 844 1010 764 1010 q 897 1063 897 1010 l 897 1156 l 928 1156 l 928 1063 q 906 1001 928 1023 q 844 979 884 979 q 761 982 803 979 q 676 988 719 985 q 592 995 634 992 q 509 998 550 998 m 510 -13 q 291 52 385 -13 q 143 234 196 117 q 91 505 91 351 q 144 776 91 659 q 291 958 197 893 q 510 1023 385 1023 q 728 958 634 1023 q 875 776 823 893 q 928 505 928 659 q 875 234 928 351 q 728 52 823 117 q 510 -13 634 -13 m 510 18 q 712 79 625 18 q 848 250 799 140 q 897 505 897 360 q 848 760 897 650 q 712 931 799 869 q 510 992 625 992 q 308 931 395 992 q 171 761 220 871 q 122 505 122 651 q 171 251 122 361 q 307 80 219 141 q 510 18 394 18 m 498 1118 l 389 1308 l 430 1308 l 528 1118 l 498 1118 z "},"Ở":{"ha":1019,"x_min":91,"x_max":928,"o":"m 509 998 l 509 1024 q 578 1022 550 1024 q 638 1017 607 1020 q 717 1013 669 1015 q 844 1010 764 1010 q 897 1063 897 1010 l 897 1156 l 928 1156 l 928 1063 q 906 1001 928 1023 q 844 979 884 979 q 761 982 803 979 q 676 988 719 985 q 592 995 634 992 q 509 998 550 998 m 510 -13 q 291 52 385 -13 q 143 234 196 117 q 91 505 91 351 q 144 776 91 659 q 291 958 197 893 q 510 1023 385 1023 q 728 958 634 1023 q 875 776 823 893 q 928 505 928 659 q 875 234 928 351 q 728 52 823 117 q 510 -13 634 -13 m 510 18 q 712 79 625 18 q 848 250 799 140 q 897 505 897 360 q 848 760 897 650 q 712 931 799 869 q 510 992 625 992 q 308 931 395 992 q 171 761 220 871 q 122 505 122 651 q 171 251 122 361 q 307 80 219 141 q 510 18 394 18 m 526 1118 l 494 1118 l 530 1187 q 550 1255 555 1233 q 497 1278 546 1278 l 426 1278 l 426 1308 l 497 1308 q 551 1298 531 1308 q 578 1271 571 1289 q 580 1230 585 1253 q 558 1177 574 1206 l 526 1118 z "},"Ỡ":{"ha":1019,"x_min":91,"x_max":928,"o":"m 509 998 l 509 1024 q 578 1022 550 1024 q 638 1017 607 1020 q 717 1013 669 1015 q 844 1010 764 1010 q 897 1063 897 1010 l 897 1156 l 928 1156 l 928 1063 q 906 1001 928 1023 q 844 979 884 979 q 761 982 803 979 q 676 988 719 985 q 592 995 634 992 q 509 998 550 998 m 510 -13 q 291 52 385 -13 q 143 234 196 117 q 91 505 91 351 q 144 776 91 659 q 291 958 197 893 q 510 1023 385 1023 q 728 958 634 1023 q 875 776 823 893 q 928 505 928 659 q 875 234 928 351 q 728 52 823 117 q 510 -13 634 -13 m 510 18 q 712 79 625 18 q 848 250 799 140 q 897 505 897 360 q 848 760 897 650 q 712 931 799 869 q 510 992 625 992 q 308 931 395 992 q 171 761 220 871 q 122 505 122 651 q 171 251 122 361 q 307 80 219 141 q 510 18 394 18 m 597 1163 q 548 1175 569 1163 q 509 1203 527 1187 q 473 1231 492 1219 q 431 1243 455 1243 q 377 1223 398 1243 q 353 1168 356 1203 l 321 1168 q 354 1244 326 1214 q 426 1274 382 1274 q 480 1262 458 1274 q 519 1234 502 1250 q 554 1206 537 1219 q 592 1194 571 1194 q 640 1211 621 1194 q 667 1267 659 1228 l 699 1267 q 663 1191 690 1219 q 597 1163 636 1163 z "},"Ợ":{"ha":1019,"x_min":91,"x_max":928,"o":"m 509 998 l 509 1024 q 578 1022 550 1024 q 638 1017 607 1020 q 717 1013 669 1015 q 844 1010 764 1010 q 897 1063 897 1010 l 897 1156 l 928 1156 l 928 1063 q 906 1001 928 1023 q 844 979 884 979 q 761 982 803 979 q 676 988 719 985 q 592 995 634 992 q 509 998 550 998 m 510 -13 q 291 52 385 -13 q 143 234 196 117 q 91 505 91 351 q 144 776 91 659 q 291 958 197 893 q 510 1023 385 1023 q 728 958 634 1023 q 875 776 823 893 q 928 505 928 659 q 875 234 928 351 q 728 52 823 117 q 510 -13 634 -13 m 510 18 q 712 79 625 18 q 848 250 799 140 q 897 505 897 360 q 848 760 897 650 q 712 931 799 869 q 510 992 625 992 q 308 931 395 992 q 171 761 220 871 q 122 505 122 651 q 171 251 122 361 q 307 80 219 141 q 510 18 394 18 m 510 -220 q 488 -211 497 -220 q 478 -189 478 -202 q 488 -166 478 -175 q 510 -157 497 -157 q 533 -166 524 -157 q 542 -189 542 -175 q 533 -211 542 -201 q 510 -220 524 -220 z "},"Ǿ":{"ha":1019,"x_min":91,"x_max":928,"o":"m 510 -13 q 291 52 385 -13 q 143 234 196 117 q 91 505 91 351 q 144 776 91 659 q 291 958 197 893 q 510 1023 385 1023 q 728 958 634 1023 q 875 776 823 893 q 928 505 928 659 q 875 234 928 351 q 728 52 823 117 q 510 -13 634 -13 m 510 18 q 712 79 625 18 q 848 250 799 140 q 897 505 897 360 q 848 760 897 650 q 712 931 799 869 q 510 992 625 992 q 308 931 395 992 q 171 761 220 871 q 122 505 122 651 q 171 251 122 361 q 307 80 219 141 q 510 18 394 18 m 195 -9 l 169 9 l 825 1019 l 851 1002 l 195 -9 m 494 1118 l 592 1308 l 631 1308 l 524 1118 l 494 1118 z "},"Ο":{"ha":1019,"x_min":91,"x_max":928,"o":"m 510 -13 q 291 52 385 -13 q 143 234 196 117 q 91 505 91 351 q 144 776 91 659 q 291 958 197 893 q 510 1023 385 1023 q 728 958 634 1023 q 875 776 823 893 q 928 505 928 659 q 875 234 928 351 q 728 52 823 117 q 510 -13 634 -13 m 510 18 q 712 79 625 18 q 848 250 799 140 q 897 505 897 360 q 848 760 897 650 q 712 931 799 869 q 510 992 625 992 q 308 931 395 992 q 171 761 220 871 q 122 505 122 651 q 171 251 122 361 q 307 80 219 141 q 510 18 394 18 z "},"Ό":{"ha":1068,"x_min":77,"x_max":977,"o":"m 559 -13 q 340 52 435 -13 q 193 234 245 117 q 140 505 140 351 q 193 776 140 659 q 340 958 246 893 q 559 1023 435 1023 q 778 958 684 1023 q 925 776 872 893 q 977 505 977 659 q 925 234 977 351 q 778 52 872 117 q 559 -13 684 -13 m 559 18 q 761 79 674 18 q 897 250 848 140 q 946 505 946 360 q 897 760 946 650 q 761 931 848 869 q 559 992 674 992 q 357 931 445 992 q 221 761 270 871 q 172 505 172 651 q 220 251 172 361 q 356 80 269 141 q 559 18 444 18 m 77 821 l 102 1010 l 136 1010 l 102 821 l 77 821 z "},"Ὀ":{"ha":1173,"x_min":77,"x_max":1082,"o":"m 665 -13 q 446 52 541 -13 q 299 234 351 117 q 246 505 246 351 q 299 776 246 659 q 446 958 352 893 q 665 1023 541 1023 q 884 958 789 1023 q 1030 776 978 893 q 1083 505 1083 659 q 1030 234 1083 351 q 884 52 978 117 q 665 -13 789 -13 m 665 18 q 867 79 780 18 q 1003 250 954 140 q 1052 505 1052 360 q 1003 760 1052 650 q 867 931 954 869 q 665 992 780 992 q 463 931 551 992 q 327 761 376 871 q 277 505 277 651 q 326 251 277 361 q 462 80 374 141 q 665 18 549 18 m 109 819 l 98 819 l 98 850 l 109 850 q 174 870 149 850 q 198 922 198 890 q 174 971 198 954 q 109 988 149 988 l 77 988 l 77 1019 l 109 1019 q 196 994 162 1019 q 229 922 229 968 q 196 847 229 876 q 109 819 162 819 z "},"Ὁ":{"ha":1176,"x_min":77,"x_max":1085,"o":"m 667 -13 q 448 52 543 -13 q 301 234 353 117 q 248 505 248 351 q 301 776 248 659 q 448 958 354 893 q 667 1023 543 1023 q 886 958 791 1023 q 1033 776 980 893 q 1085 505 1085 659 q 1033 234 1085 351 q 886 52 980 117 q 667 -13 791 -13 m 667 18 q 869 79 782 18 q 1005 250 956 140 q 1054 505 1054 360 q 1005 760 1054 650 q 869 931 956 869 q 667 992 782 992 q 465 931 553 992 q 329 761 378 871 q 279 505 279 651 q 328 251 279 361 q 464 80 376 141 q 667 18 551 18 m 197 814 q 110 843 144 814 q 77 918 77 872 q 110 989 77 964 q 197 1015 144 1015 l 229 1015 l 229 984 l 197 984 q 133 967 157 984 q 108 918 108 949 q 133 866 108 886 q 197 846 157 846 l 208 846 l 208 814 l 197 814 z "},"Ὂ":{"ha":1307,"x_min":77,"x_max":1216,"o":"m 798 -13 q 579 52 673 -13 q 432 234 484 117 q 379 505 379 351 q 432 776 379 659 q 579 958 485 893 q 798 1023 673 1023 q 1017 958 922 1023 q 1163 776 1111 893 q 1216 505 1216 659 q 1163 234 1216 351 q 1017 52 1111 117 q 798 -13 922 -13 m 798 18 q 1000 79 913 18 q 1136 250 1087 140 q 1185 505 1185 360 q 1136 760 1185 650 q 1000 931 1087 869 q 798 992 913 992 q 596 931 684 992 q 459 761 509 871 q 410 505 410 651 q 459 251 410 361 q 595 80 507 141 q 798 18 682 18 m 109 814 l 98 814 l 98 846 l 109 846 q 174 866 149 846 q 198 918 198 886 q 174 967 198 949 q 109 984 149 984 l 77 984 l 77 1015 l 109 1015 q 196 989 162 1015 q 229 918 229 964 q 196 843 229 872 q 109 814 162 814 m 343 821 l 317 821 l 283 1010 l 317 1010 l 343 821 z "},"Ὃ":{"ha":1315,"x_min":77,"x_max":1224,"o":"m 807 -13 q 588 52 682 -13 q 440 234 493 117 q 388 505 388 351 q 441 776 388 659 q 588 958 494 893 q 807 1023 682 1023 q 1025 958 931 1023 q 1172 776 1120 893 q 1225 505 1225 659 q 1172 234 1225 351 q 1025 52 1120 117 q 807 -13 931 -13 m 807 18 q 1009 79 922 18 q 1145 250 1096 140 q 1194 505 1194 360 q 1145 760 1194 650 q 1009 931 1096 869 q 807 992 922 992 q 605 931 692 992 q 468 761 517 871 q 419 505 419 651 q 468 251 419 361 q 604 80 516 141 q 807 18 691 18 m 197 814 q 110 843 144 814 q 77 918 77 872 q 110 989 77 964 q 197 1015 144 1015 l 229 1015 l 229 984 l 197 984 q 133 967 157 984 q 108 918 108 949 q 133 866 108 886 q 197 846 157 846 l 208 846 l 208 814 l 197 814 m 365 821 l 339 821 l 305 1010 l 338 1010 l 365 821 z "},"Ὄ":{"ha":1305,"x_min":77,"x_max":1215,"o":"m 797 -13 q 577 52 672 -13 q 430 234 483 117 q 378 505 378 351 q 431 776 378 659 q 578 958 484 893 q 797 1023 672 1023 q 1015 958 921 1023 q 1162 776 1109 893 q 1215 505 1215 659 q 1162 234 1215 351 q 1015 52 1109 117 q 797 -13 921 -13 m 797 18 q 999 79 911 18 q 1135 250 1086 140 q 1183 505 1183 360 q 1135 760 1183 650 q 999 931 1086 869 q 797 992 911 992 q 595 931 682 992 q 458 761 507 871 q 409 505 409 651 q 457 251 409 361 q 593 80 506 141 q 797 18 681 18 m 109 814 l 98 814 l 98 846 l 109 846 q 174 866 149 846 q 198 918 198 886 q 174 967 198 949 q 109 984 149 984 l 77 984 l 77 1015 l 109 1015 q 196 989 162 1015 q 229 918 229 964 q 196 843 229 872 q 109 814 162 814 m 307 821 l 332 1010 l 366 1010 l 332 821 l 307 821 z "},"Ὅ":{"ha":1310,"x_min":77,"x_max":1219,"o":"m 802 -13 q 582 52 677 -13 q 435 234 488 117 q 382 505 382 351 q 435 776 382 659 q 583 958 488 893 q 802 1023 677 1023 q 1020 958 926 1023 q 1167 776 1114 893 q 1219 505 1219 659 q 1167 234 1219 351 q 1020 52 1114 117 q 802 -13 926 -13 m 802 18 q 1003 79 916 18 q 1139 250 1090 140 q 1188 505 1188 360 q 1139 760 1188 650 q 1003 931 1090 869 q 802 992 916 992 q 600 931 687 992 q 463 761 512 871 q 414 505 414 651 q 462 251 414 361 q 598 80 511 141 q 802 18 686 18 m 197 814 q 110 843 144 814 q 77 918 77 872 q 110 989 77 964 q 197 1015 144 1015 l 229 1015 l 229 984 l 197 984 q 133 967 157 984 q 108 918 108 949 q 133 866 108 886 q 197 846 157 846 l 208 846 l 208 814 l 197 814 m 315 821 l 341 1010 l 374 1010 l 340 821 l 315 821 z "},"Ὸ":{"ha":1019,"x_min":-39,"x_max":928,"o":"m 510 -13 q 291 52 385 -13 q 143 234 196 117 q 91 505 91 351 q 144 776 91 659 q 291 958 197 893 q 510 1023 385 1023 q 728 958 634 1023 q 875 776 823 893 q 928 505 928 659 q 875 234 928 351 q 728 52 823 117 q 510 -13 634 -13 m 510 18 q 712 79 625 18 q 848 250 799 140 q 897 505 897 360 q 848 760 897 650 q 712 931 799 869 q 510 992 625 992 q 308 931 395 992 q 171 761 220 871 q 122 505 122 651 q 171 251 122 361 q 307 80 219 141 q 510 18 394 18 m 20 851 l -5 851 l -39 1040 l -5 1040 l 20 851 z "},"ϴ":{"ha":1019,"x_min":91,"x_max":928,"o":"m 907 521 l 907 490 l 111 490 l 111 521 l 907 521 m 510 -13 q 291 52 385 -13 q 143 234 196 117 q 91 505 91 351 q 144 776 91 659 q 291 958 197 893 q 510 1023 385 1023 q 728 958 634 1023 q 875 776 823 893 q 928 505 928 659 q 875 234 928 351 q 728 52 823 117 q 510 -13 634 -13 m 510 18 q 712 79 625 18 q 848 250 799 140 q 897 505 897 360 q 848 760 897 650 q 712 931 799 869 q 510 992 625 992 q 308 931 395 992 q 171 761 220 871 q 122 505 122 651 q 171 251 122 361 q 307 80 219 141 q 510 18 394 18 z "},"Ό":{"ha":1068,"x_min":77,"x_max":977,"o":"m 559 -13 q 340 52 435 -13 q 193 234 245 117 q 140 505 140 351 q 193 776 140 659 q 340 958 246 893 q 559 1023 435 1023 q 778 958 684 1023 q 925 776 872 893 q 977 505 977 659 q 925 234 977 351 q 778 52 872 117 q 559 -13 684 -13 m 559 18 q 761 79 674 18 q 897 250 848 140 q 946 505 946 360 q 897 760 946 650 q 761 931 848 869 q 559 992 674 992 q 357 931 445 992 q 221 761 270 871 q 172 505 172 651 q 220 251 172 361 q 356 80 269 141 q 559 18 444 18 m 77 821 l 102 1010 l 136 1010 l 102 821 l 77 821 z "},"О":{"ha":1019,"x_min":91,"x_max":928,"o":"m 510 -13 q 291 52 385 -13 q 143 234 196 117 q 91 505 91 351 q 144 776 91 659 q 291 958 197 893 q 510 1023 385 1023 q 728 958 634 1023 q 875 776 823 893 q 928 505 928 659 q 875 234 928 351 q 728 52 823 117 q 510 -13 634 -13 m 510 18 q 712 79 625 18 q 848 250 799 140 q 897 505 897 360 q 848 760 897 650 q 712 931 799 869 q 510 992 625 992 q 308 931 395 992 q 171 761 220 871 q 122 505 122 651 q 171 251 122 361 q 307 80 219 141 q 510 18 394 18 z "},"Ӧ":{"ha":1019,"x_min":91,"x_max":928,"o":"m 510 -13 q 291 52 385 -13 q 143 234 196 117 q 91 505 91 351 q 144 776 91 659 q 291 958 197 893 q 510 1023 385 1023 q 728 958 634 1023 q 875 776 823 893 q 928 505 928 659 q 875 234 928 351 q 728 52 823 117 q 510 -13 634 -13 m 510 18 q 712 79 625 18 q 848 250 799 140 q 897 505 897 360 q 848 760 897 650 q 712 931 799 869 q 510 992 625 992 q 308 931 395 992 q 171 761 220 871 q 122 505 122 651 q 171 251 122 361 q 307 80 219 141 q 510 18 394 18 m 647 1187 q 625 1196 634 1187 q 615 1219 615 1206 q 625 1241 615 1232 q 647 1251 634 1251 q 670 1241 661 1251 q 679 1219 679 1232 q 670 1196 679 1206 q 647 1187 661 1187 m 373 1187 q 351 1196 360 1187 q 341 1219 341 1206 q 351 1241 341 1232 q 373 1251 360 1251 q 396 1241 387 1251 q 405 1219 405 1232 q 396 1196 405 1206 q 373 1187 387 1187 z "},"Ɵ":{"ha":1019,"x_min":91,"x_max":928,"o":"m 907 521 l 907 490 l 111 490 l 111 521 l 907 521 m 510 -13 q 291 52 385 -13 q 143 234 196 117 q 91 505 91 351 q 144 776 91 659 q 291 958 197 893 q 510 1023 385 1023 q 728 958 634 1023 q 875 776 823 893 q 928 505 928 659 q 875 234 928 351 q 728 52 823 117 q 510 -13 634 -13 m 510 18 q 712 79 625 18 q 848 250 799 140 q 897 505 897 360 q 848 760 897 650 q 712 931 799 869 q 510 992 625 992 q 308 931 395 992 q 171 761 220 871 q 122 505 122 651 q 171 251 122 361 q 307 80 219 141 q 510 18 394 18 z "},"Ө":{"ha":1019,"x_min":91,"x_max":928,"o":"m 907 521 l 907 490 l 111 490 l 111 521 l 907 521 m 510 -13 q 291 52 385 -13 q 143 234 196 117 q 91 505 91 351 q 144 776 91 659 q 291 958 197 893 q 510 1023 385 1023 q 728 958 634 1023 q 875 776 823 893 q 928 505 928 659 q 875 234 928 351 q 728 52 823 117 q 510 -13 634 -13 m 510 18 q 712 79 625 18 q 848 250 799 140 q 897 505 897 360 q 848 760 897 650 q 712 931 799 869 q 510 992 625 992 q 308 931 395 992 q 171 761 220 871 q 122 505 122 651 q 171 251 122 361 q 307 80 219 141 q 510 18 394 18 z "},"Ӫ":{"ha":1019,"x_min":91,"x_max":928,"o":"m 907 521 l 907 490 l 111 490 l 111 521 l 907 521 m 510 -13 q 291 52 385 -13 q 143 234 196 117 q 91 505 91 351 q 144 776 91 659 q 291 958 197 893 q 510 1023 385 1023 q 728 958 634 1023 q 875 776 823 893 q 928 505 928 659 q 875 234 928 351 q 728 52 823 117 q 510 -13 634 -13 m 510 18 q 712 79 625 18 q 848 250 799 140 q 897 505 897 360 q 848 760 897 650 q 712 931 799 869 q 510 992 625 992 q 308 931 395 992 q 171 761 220 871 q 122 505 122 651 q 171 251 122 361 q 307 80 219 141 q 510 18 394 18 m 647 1187 q 625 1196 634 1187 q 615 1219 615 1206 q 625 1241 615 1232 q 647 1251 634 1251 q 670 1241 661 1251 q 679 1219 679 1232 q 670 1196 679 1206 q 647 1187 661 1187 m 373 1187 q 351 1196 360 1187 q 341 1219 341 1206 q 351 1241 341 1232 q 373 1251 360 1251 q 396 1241 387 1251 q 405 1219 405 1232 q 396 1196 405 1206 q 373 1187 387 1187 z "},"Œ":{"ha":1273,"x_min":91,"x_max":1183,"o":"m 510 0 q 291 64 385 0 q 143 241 196 127 q 91 505 91 355 q 144 769 91 655 q 291 947 197 883 q 510 1010 385 1010 l 633 1010 l 633 978 l 510 978 q 308 920 395 979 q 171 754 220 861 q 122 505 122 647 q 171 258 122 365 q 307 91 219 151 q 510 31 394 31 l 633 31 l 633 0 l 510 0 m 617 0 l 617 1010 l 1172 1010 l 1172 979 l 648 979 l 648 524 l 1138 524 l 1138 492 l 648 492 l 648 31 l 1183 31 l 1183 0 l 617 0 z "},"P":{"ha":825,"x_min":148,"x_max":741,"o":"m 148 0 l 148 1010 l 452 1010 q 602 973 536 1010 q 704 869 667 935 q 741 716 741 802 q 704 564 741 630 q 602 461 667 498 q 452 424 536 424 l 164 424 l 164 455 l 452 455 q 586 488 528 455 q 676 580 644 522 q 709 716 709 639 q 676 853 709 793 q 586 946 644 912 q 452 979 528 979 l 179 979 l 179 0 l 148 0 z "},"Ṕ":{"ha":825,"x_min":148,"x_max":741,"o":"m 148 0 l 148 1010 l 452 1010 q 602 973 536 1010 q 704 869 667 935 q 741 716 741 802 q 704 564 741 630 q 602 461 667 498 q 452 424 536 424 l 164 424 l 164 455 l 452 455 q 586 488 528 455 q 676 580 644 522 q 709 716 709 639 q 676 853 709 793 q 586 946 644 912 q 452 979 528 979 l 179 979 l 179 0 l 148 0 m 407 1118 l 505 1308 l 545 1308 l 437 1118 l 407 1118 z "},"Ṗ":{"ha":825,"x_min":148,"x_max":741,"o":"m 148 0 l 148 1010 l 452 1010 q 602 973 536 1010 q 704 869 667 935 q 741 716 741 802 q 704 564 741 630 q 602 461 667 498 q 452 424 536 424 l 164 424 l 164 455 l 452 455 q 586 488 528 455 q 676 580 644 522 q 709 716 709 639 q 676 853 709 793 q 586 946 644 912 q 452 979 528 979 l 179 979 l 179 0 l 148 0 m 423 1187 q 401 1196 410 1187 q 391 1219 391 1205 q 401 1241 391 1232 q 423 1251 410 1251 q 446 1241 437 1251 q 455 1219 455 1232 q 446 1196 455 1206 q 423 1187 437 1187 z "},"Ҏ":{"ha":826,"x_min":142,"x_max":735,"o":"m 553 624 l 712 381 l 686 363 l 526 608 l 553 624 m 142 0 l 142 1010 l 446 1010 q 596 973 531 1010 q 698 869 661 935 q 735 716 735 802 q 698 564 735 630 q 596 461 661 498 q 446 424 531 424 l 159 424 l 159 455 l 446 455 q 580 488 522 455 q 671 580 638 522 q 704 716 704 639 q 671 853 704 793 q 580 946 638 912 q 446 979 522 979 l 174 979 l 174 0 l 142 0 z "},"Ƥ":{"ha":933,"x_min":49,"x_max":849,"o":"m 49 758 l 49 868 q 83 974 49 937 q 182 1010 117 1010 l 256 1010 l 256 979 l 184 979 q 105 952 131 979 q 80 868 80 925 l 80 758 l 49 758 m 256 0 l 256 1010 l 560 1010 q 710 973 645 1010 q 812 869 775 935 q 849 716 849 802 q 812 564 849 630 q 710 461 775 498 q 560 424 645 424 l 273 424 l 273 455 l 560 455 q 694 488 636 455 q 785 580 752 522 q 818 716 818 639 q 785 853 818 793 q 694 946 752 912 q 560 979 636 979 l 288 979 l 288 0 l 256 0 z "},"Ρ":{"ha":825,"x_min":148,"x_max":741,"o":"m 148 0 l 148 1010 l 452 1010 q 602 973 536 1010 q 704 869 667 935 q 741 716 741 802 q 704 564 741 630 q 602 461 667 498 q 452 424 536 424 l 164 424 l 164 455 l 452 455 q 586 488 528 455 q 676 580 644 522 q 709 716 709 639 q 676 853 709 793 q 586 946 644 912 q 452 979 528 979 l 179 979 l 179 0 l 148 0 z "},"Ῥ":{"ha":1045,"x_min":77,"x_max":961,"o":"m 368 0 l 368 1010 l 672 1010 q 822 973 757 1010 q 924 869 887 935 q 961 716 961 802 q 924 564 961 630 q 822 461 887 498 q 672 424 757 424 l 385 424 l 385 455 l 672 455 q 806 488 748 455 q 897 580 864 522 q 930 716 930 639 q 897 853 930 793 q 806 946 864 912 q 672 979 748 979 l 399 979 l 399 0 l 368 0 m 197 814 q 110 843 144 814 q 77 918 77 872 q 110 989 77 964 q 197 1015 144 1015 l 229 1015 l 229 984 l 197 984 q 133 967 157 984 q 108 918 108 949 q 133 866 108 886 q 197 846 157 846 l 208 846 l 208 814 l 197 814 z "},"Q":{"ha":1019,"x_min":91,"x_max":928,"o":"m 549 316 l 589 316 l 751 99 l 758 91 l 898 -95 l 859 -95 l 731 75 l 724 83 l 549 316 m 510 -13 q 291 52 385 -13 q 143 234 196 117 q 91 505 91 351 q 144 776 91 659 q 291 958 197 893 q 510 1023 385 1023 q 728 958 634 1023 q 875 776 823 893 q 928 505 928 659 q 875 234 928 351 q 728 52 823 117 q 510 -13 634 -13 m 510 18 q 712 79 625 18 q 848 250 799 140 q 897 505 897 360 q 848 760 897 650 q 712 931 799 869 q 510 992 625 992 q 308 931 395 992 q 171 761 220 871 q 122 505 122 651 q 171 251 122 361 q 307 80 219 141 q 510 18 394 18 z "},"Ɋ":{"ha":1015,"x_min":91,"x_max":1009,"o":"m 867 1010 l 867 0 l 836 0 l 836 259 l 831 259 q 705 56 788 125 q 505 -14 622 -14 q 337 24 413 -14 q 206 131 261 62 q 121 295 151 199 q 91 505 91 390 q 121 716 91 621 q 207 880 151 811 q 340 987 263 949 q 510 1024 416 1024 q 707 955 626 1024 q 831 750 789 886 l 836 750 l 836 1010 l 867 1010 m 510 18 q 686 76 612 18 q 799 243 760 134 q 838 505 838 353 q 798 765 838 656 q 685 934 758 875 q 510 993 611 993 q 307 931 395 993 q 171 760 220 869 q 122 505 122 650 q 171 250 122 359 q 307 79 220 140 q 510 18 395 18 m 960 -283 q 867 -251 898 -283 q 836 -149 836 -218 l 836 0 l 867 0 l 867 -149 q 889 -229 867 -205 q 960 -252 911 -252 q 983 -252 969 -252 q 1009 -252 996 -252 l 1009 -283 q 984 -283 998 -283 q 960 -283 970 -283 z "},"R":{"ha":843,"x_min":148,"x_max":780,"o":"m 148 0 l 148 1010 l 452 1010 q 602 975 536 1010 q 704 873 667 939 q 741 722 741 808 q 704 572 741 636 q 602 471 667 507 q 452 435 536 435 l 164 435 l 164 467 l 452 467 q 586 498 528 467 q 676 588 644 530 q 709 722 709 645 q 676 857 709 800 q 586 947 644 915 q 452 979 528 979 l 179 979 l 179 0 l 148 0 m 745 0 l 498 460 l 533 460 l 780 0 l 745 0 z "},"Ŕ":{"ha":843,"x_min":148,"x_max":780,"o":"m 148 0 l 148 1010 l 452 1010 q 602 975 536 1010 q 704 873 667 939 q 741 722 741 808 q 704 572 741 636 q 602 471 667 507 q 452 435 536 435 l 164 435 l 164 467 l 452 467 q 586 498 528 467 q 676 588 644 530 q 709 722 709 645 q 676 857 709 800 q 586 947 644 915 q 452 979 528 979 l 179 979 l 179 0 l 148 0 m 745 0 l 498 460 l 533 460 l 780 0 l 745 0 m 404 1118 l 503 1308 l 542 1308 l 435 1118 l 404 1118 z "},"Ŗ":{"ha":843,"x_min":148,"x_max":780,"o":"m 148 0 l 148 1010 l 452 1010 q 602 975 536 1010 q 704 873 667 939 q 741 722 741 808 q 704 572 741 636 q 602 471 667 507 q 452 435 536 435 l 164 435 l 164 467 l 452 467 q 586 498 528 467 q 676 588 644 530 q 709 722 709 645 q 676 857 709 800 q 586 947 644 915 q 452 979 528 979 l 179 979 l 179 0 l 148 0 m 745 0 l 498 460 l 533 460 l 780 0 l 745 0 m 347 -335 l 412 -80 l 446 -80 l 372 -335 l 347 -335 z "},"Ř":{"ha":843,"x_min":148,"x_max":780,"o":"m 148 0 l 148 1010 l 452 1010 q 602 975 536 1010 q 704 873 667 939 q 741 722 741 808 q 704 572 741 636 q 602 471 667 507 q 452 435 536 435 l 164 435 l 164 467 l 452 467 q 586 498 528 467 q 676 588 644 530 q 709 722 709 645 q 676 857 709 800 q 586 947 644 915 q 452 979 528 979 l 179 979 l 179 0 l 148 0 m 745 0 l 498 460 l 533 460 l 780 0 l 745 0 m 272 1312 l 419 1158 l 567 1312 l 606 1312 l 606 1308 l 426 1122 l 413 1122 l 235 1308 l 235 1312 l 272 1312 z "},"Ȑ":{"ha":843,"x_min":148,"x_max":780,"o":"m 148 0 l 148 1010 l 452 1010 q 602 975 536 1010 q 704 873 667 939 q 741 722 741 808 q 704 572 741 636 q 602 471 667 507 q 452 435 536 435 l 164 435 l 164 467 l 452 467 q 586 498 528 467 q 676 588 644 530 q 709 722 709 645 q 676 857 709 800 q 586 947 644 915 q 452 979 528 979 l 179 979 l 179 0 l 148 0 m 745 0 l 498 460 l 533 460 l 780 0 l 745 0 m 495 1118 l 398 1308 l 433 1308 l 526 1118 l 495 1118 m 319 1118 l 201 1308 l 239 1308 l 351 1118 l 319 1118 z "},"Ȓ":{"ha":843,"x_min":148,"x_max":780,"o":"m 148 0 l 148 1010 l 452 1010 q 602 975 536 1010 q 704 873 667 939 q 741 722 741 808 q 704 572 741 636 q 602 471 667 507 q 452 435 536 435 l 164 435 l 164 467 l 452 467 q 586 498 528 467 q 676 588 644 530 q 709 722 709 645 q 676 857 709 800 q 586 947 644 915 q 452 979 528 979 l 179 979 l 179 0 l 148 0 m 745 0 l 498 460 l 533 460 l 780 0 l 745 0 m 420 1289 q 510 1267 470 1289 q 574 1208 551 1245 q 598 1126 598 1171 l 568 1126 q 525 1220 568 1181 q 420 1258 481 1258 q 315 1220 359 1258 q 272 1126 272 1181 l 243 1126 q 267 1208 243 1171 q 331 1267 290 1245 q 420 1289 371 1289 z "},"Ṙ":{"ha":843,"x_min":148,"x_max":780,"o":"m 148 0 l 148 1010 l 452 1010 q 602 975 536 1010 q 704 873 667 939 q 741 722 741 808 q 704 572 741 636 q 602 471 667 507 q 452 435 536 435 l 164 435 l 164 467 l 452 467 q 586 498 528 467 q 676 588 644 530 q 709 722 709 645 q 676 857 709 800 q 586 947 644 915 q 452 979 528 979 l 179 979 l 179 0 l 148 0 m 745 0 l 498 460 l 533 460 l 780 0 l 745 0 m 420 1187 q 398 1196 408 1187 q 389 1219 389 1205 q 398 1241 389 1232 q 420 1251 408 1251 q 443 1241 434 1251 q 452 1219 452 1232 q 443 1196 452 1206 q 420 1187 434 1187 z "},"Ṛ":{"ha":843,"x_min":148,"x_max":780,"o":"m 148 0 l 148 1010 l 452 1010 q 602 975 536 1010 q 704 873 667 939 q 741 722 741 808 q 704 572 741 636 q 602 471 667 507 q 452 435 536 435 l 164 435 l 164 467 l 452 467 q 586 498 528 467 q 676 588 644 530 q 709 722 709 645 q 676 857 709 800 q 586 947 644 915 q 452 979 528 979 l 179 979 l 179 0 l 148 0 m 745 0 l 498 460 l 533 460 l 780 0 l 745 0 m 431 -220 q 408 -211 418 -220 q 399 -189 399 -202 q 408 -166 399 -175 q 431 -157 418 -157 q 453 -166 444 -157 q 463 -189 463 -175 q 453 -211 463 -201 q 431 -220 444 -220 z "},"Ṝ":{"ha":843,"x_min":148,"x_max":780,"o":"m 148 0 l 148 1010 l 452 1010 q 602 975 536 1010 q 704 873 667 939 q 741 722 741 808 q 704 572 741 636 q 602 471 667 507 q 452 435 536 435 l 164 435 l 164 467 l 452 467 q 586 498 528 467 q 676 588 644 530 q 709 722 709 645 q 676 857 709 800 q 586 947 644 915 q 452 979 528 979 l 179 979 l 179 0 l 148 0 m 745 0 l 498 460 l 533 460 l 780 0 l 745 0 m 431 -220 q 408 -211 418 -220 q 399 -189 399 -202 q 408 -166 399 -175 q 431 -157 418 -157 q 453 -166 444 -157 q 463 -189 463 -175 q 453 -211 463 -201 q 431 -220 444 -220 m 578 1234 l 578 1203 l 262 1203 l 262 1234 l 578 1234 z "},"Ṟ":{"ha":843,"x_min":148,"x_max":780,"o":"m 148 0 l 148 1010 l 452 1010 q 602 975 536 1010 q 704 873 667 939 q 741 722 741 808 q 704 572 741 636 q 602 471 667 507 q 452 435 536 435 l 164 435 l 164 467 l 452 467 q 586 498 528 467 q 676 588 644 530 q 709 722 709 645 q 676 857 709 800 q 586 947 644 915 q 452 979 528 979 l 179 979 l 179 0 l 148 0 m 745 0 l 498 460 l 533 460 l 780 0 l 745 0 m 588 -173 l 588 -204 l 273 -204 l 273 -173 l 588 -173 z "},"℟":{"ha":837,"x_min":144,"x_max":776,"o":"m 656 1122 l 183 -222 l 152 -216 l 616 1103 l 387 1190 l 399 1218 l 656 1122 m 144 0 l 144 1010 l 448 1010 q 597 975 532 1010 q 700 873 663 939 q 736 722 736 808 q 700 572 736 636 q 597 471 663 507 q 448 435 532 435 l 160 435 l 160 467 l 448 467 q 582 498 524 467 q 672 588 640 530 q 705 722 705 645 q 672 857 705 800 q 582 947 640 915 q 448 979 524 979 l 175 979 l 175 0 l 144 0 m 741 0 l 494 460 l 529 460 l 776 0 l 741 0 z "},"℞":{"ha":792,"x_min":148,"x_max":788,"o":"m 148 1010 l 445 1010 q 595 975 530 1010 q 697 874 660 939 q 734 722 734 809 q 697 572 734 636 q 595 471 660 507 q 445 435 530 435 l 435 435 l 164 435 l 164 468 l 445 468 q 579 499 521 468 q 670 588 637 530 q 703 722 703 645 q 670 857 703 800 q 579 946 637 914 q 445 978 521 978 l 180 978 l 180 0 l 148 0 l 148 1010 m 749 0 l 412 460 l 450 460 l 788 0 l 749 0 m 452 0 l 412 0 l 749 461 l 788 461 l 452 0 z "},"Ɍ":{"ha":842,"x_min":12,"x_max":781,"o":"m 160 435 l 12 435 l 12 468 l 160 468 l 160 435 m 149 0 l 149 1010 l 453 1010 q 603 975 538 1010 q 705 873 668 939 q 742 722 742 808 q 705 572 742 636 q 603 471 668 507 q 453 435 538 435 l 165 435 l 165 467 l 453 467 q 587 498 529 467 q 678 588 645 530 q 711 722 711 645 q 678 857 711 800 q 587 947 645 915 q 453 979 529 979 l 180 979 l 180 0 l 149 0 m 746 0 l 499 460 l 534 460 l 781 0 l 746 0 z "},"S":{"ha":831,"x_min":98,"x_max":734,"o":"m 412 -16 q 251 16 320 -16 q 142 105 182 48 q 98 237 102 163 l 129 237 q 170 122 134 172 q 268 44 205 72 q 412 16 330 16 q 565 46 500 16 q 666 131 630 77 q 703 256 703 185 q 679 352 703 311 q 605 425 655 393 q 472 481 554 456 l 358 517 q 180 616 239 554 q 121 765 121 677 q 160 899 121 840 q 267 991 199 958 q 420 1025 334 1025 q 573 991 507 1025 q 677 896 638 956 q 720 758 715 836 l 689 758 q 610 928 682 861 q 420 994 538 994 q 283 965 344 994 q 187 883 222 935 q 152 765 152 831 q 175 673 152 714 q 245 601 198 632 q 365 548 293 570 l 480 513 q 593 467 545 492 q 672 411 641 442 q 719 341 703 380 q 734 256 734 303 q 693 116 734 178 q 581 19 653 54 q 412 -16 509 -16 z "},"Ś":{"ha":831,"x_min":98,"x_max":734,"o":"m 412 -16 q 251 16 320 -16 q 142 105 182 48 q 98 237 102 163 l 129 237 q 170 122 134 172 q 268 44 205 72 q 412 16 330 16 q 565 46 500 16 q 666 131 630 77 q 703 256 703 185 q 679 352 703 311 q 605 425 655 393 q 472 481 554 456 l 358 517 q 180 616 239 554 q 121 765 121 677 q 160 899 121 840 q 267 991 199 958 q 420 1025 334 1025 q 573 991 507 1025 q 677 896 638 956 q 720 758 715 836 l 689 758 q 610 928 682 861 q 420 994 538 994 q 283 965 344 994 q 187 883 222 935 q 152 765 152 831 q 175 673 152 714 q 245 601 198 632 q 365 548 293 570 l 480 513 q 593 467 545 492 q 672 411 641 442 q 719 341 703 380 q 734 256 734 303 q 693 116 734 178 q 581 19 653 54 q 412 -16 509 -16 m 400 1118 l 498 1308 l 538 1308 l 431 1118 l 400 1118 z "},"Ŝ":{"ha":831,"x_min":98,"x_max":734,"o":"m 412 -16 q 251 16 320 -16 q 142 105 182 48 q 98 237 102 163 l 129 237 q 170 122 134 172 q 268 44 205 72 q 412 16 330 16 q 565 46 500 16 q 666 131 630 77 q 703 256 703 185 q 679 352 703 311 q 605 425 655 393 q 472 481 554 456 l 358 517 q 180 616 239 554 q 121 765 121 677 q 160 899 121 840 q 267 991 199 958 q 420 1025 334 1025 q 573 991 507 1025 q 677 896 638 956 q 720 758 715 836 l 689 758 q 610 928 682 861 q 420 994 538 994 q 283 965 344 994 q 187 883 222 935 q 152 765 152 831 q 175 673 152 714 q 245 601 198 632 q 365 548 293 570 l 480 513 q 593 467 545 492 q 672 411 641 442 q 719 341 703 380 q 734 256 734 303 q 693 116 734 178 q 581 19 653 54 q 412 -16 509 -16 m 269 1126 l 231 1126 l 231 1129 l 410 1314 l 422 1314 l 602 1129 l 602 1126 l 564 1126 l 416 1279 l 269 1126 z "}}}
